<svg width="8" height="8" viewBox="0 0 8 8" fill="none" xmlns="http://www.w3.org/2000/svg">
<circle cx="4" cy="4" r="4" fill="#00A81B"/>
<path opacity="0.5" d="M7.58048 2.69992C7.58048 3.80804 8.5863 8.79642 4.56301 4.3205C3.53748 4.3205 0.307617 3.96238 0.307617 2.85426C0.307617 1.74613 2.37691 0.307617 3.40245 0.307617C4.42799 0.307617 7.58048 1.59179 7.58048 2.69992Z" fill="#D4EEFE"/>
<path opacity="0.5" d="M7.07685 6.0935C7.07685 7.35487 5.52286 7.69223 4.26267 7.69223C3.00249 7.69223 0.307617 5.45161 0.307617 4.19025C0.307617 2.92889 2.54614 0.307617 3.80632 0.307617C5.0665 0.307617 7.07685 4.83214 7.07685 6.0935Z" fill="#627D83"/>
<path opacity="0.6" d="M6.76901 5.6424C6.76901 6.81648 4.76242 7.69235 3.43493 7.69235C2.10744 7.69235 3.97773 6.89241 3.97773 5.71832C3.97773 4.54423 -0.141069 1.84619 1.18642 1.84619C2.51391 1.84619 6.76901 4.46831 6.76901 5.6424Z" fill="#FFB596"/>
</svg>
