<svg width="163" height="163" viewBox="0 0 163 163" fill="none" xmlns="http://www.w3.org/2000/svg">
<path d="M8.19886 68.3C8.21106 68.2288 8.20829 68.1177 8.11582 68.0291C8.06663 67.9825 8.00912 67.9591 7.96418 67.9464C7.90019 67.9283 7.83103 67.9243 7.76963 67.9243C7.61891 67.9243 7.41641 67.9519 7.21502 67.9794C6.93688 68.0173 6.63396 68.0578 6.35305 68.0578C6.22526 68.0578 6.10653 68.0494 6.00112 68.0296C5.88683 68.0082 5.78438 67.9736 5.69524 67.9291C5.29135 67.7273 5.16097 67.3476 5.3239 67.0539C5.34442 67.0172 5.36994 66.9793 5.40138 66.9407C5.55136 66.7556 5.79788 66.5764 6.09543 66.3627C6.41185 66.1355 6.77765 65.8747 7.03619 65.5549C7.26606 65.2712 7.40439 64.9493 7.52829 64.6638C7.70638 64.2541 7.85544 63.9239 8.16594 63.7032C8.69244 63.3291 9.71678 63.2344 10.5625 63.1736C10.5954 63.1715 10.6228 63.1696 10.6548 63.167L10.7424 63.1609C10.7655 63.159 10.8537 63.1531 10.8746 63.1512C11.1796 63.1293 11.4182 63.1116 11.6262 63.1116C11.9262 63.1116 12.1483 63.148 12.3822 63.2546C12.5106 63.3133 12.645 63.394 12.8005 63.4877C13.1597 63.7043 13.6207 63.988 14.186 63.9972C14.194 63.9972 14.2069 63.9977 14.2149 63.9977C15.0206 63.9977 15.9424 63.4543 16.4169 62.2059C16.8883 60.9648 16.9288 58.999 16.8313 57.4539C16.7328 55.8903 16.4892 54.7045 15.8012 53.199C15.6833 52.941 15.5518 52.6726 15.4164 52.3966C14.7675 51.0716 14.0039 49.5094 13.8892 47.4379C13.8369 46.4844 13.9214 45.4171 14.0699 44.2926C14.1916 43.3734 14.3549 42.4212 14.5187 41.4667C14.6817 40.5178 14.8451 39.5664 14.9663 38.6498C15.358 35.6869 15.3078 33.089 14.9323 31.1127C14.6362 29.5527 14.1382 28.3867 13.6967 27.4385C13.6337 27.3031 13.5774 27.1839 13.5171 27.057C13.4628 26.9421 13.408 26.8262 13.3574 26.7174C12.8621 25.6546 12.5586 24.8482 12.3051 23.9646C12.0512 23.0805 11.8479 22.1182 11.7324 20.9025C11.6162 19.6807 11.5913 18.2209 11.8409 17.0595C12.0887 15.9077 12.6104 15.037 13.2004 14.2744C13.7918 13.5107 14.4165 12.9016 15.4543 12.6558C15.8364 12.5655 16.281 12.5227 16.7424 12.5227C17.5551 12.5227 18.3975 12.6549 19.0159 12.8725C19.4646 13.0307 19.8017 13.2355 20.0987 13.4165C20.4075 13.6046 20.7264 13.8081 21.0772 13.8081C21.0894 13.8081 21.1009 13.8076 21.1131 13.8072C21.1243 13.8067 21.1353 13.8062 21.146 13.8053C21.3605 13.7895 21.5763 13.6987 21.8047 13.6054C22.2913 13.4071 23.0358 13.1023 24.5238 12.9926C24.9693 12.9601 25.4823 12.9446 26.0369 12.9446C28.2905 12.9446 31.1841 13.1975 32.8912 13.5374C34.247 13.8075 34.8482 14.1311 35.2445 14.3435C35.4612 14.4597 35.663 14.5711 35.9049 14.5998C35.9495 14.605 35.9944 14.6073 36.0395 14.6073C36.1555 14.6073 36.2738 14.5913 36.3927 14.5666C36.6224 14.5183 36.8778 14.431 37.1462 14.3398C37.5025 14.2187 37.9003 14.084 38.3589 13.9879C38.8936 13.8761 39.5164 13.8157 40.1045 13.8157C40.6852 13.8157 41.2163 13.8744 41.5894 13.9902C42.2485 14.1945 42.4378 14.5774 42.772 15.3696C42.7603 15.3425 42.8151 15.4732 42.804 15.4464C42.8114 15.464 42.8301 15.5081 42.8378 15.5266C42.8615 15.5826 42.8874 15.6443 42.9125 15.7033C43.2807 16.5735 43.7647 17.7201 43.9968 18.9151C44.2437 20.1885 44.2056 21.5278 43.9461 23.0355C43.6869 24.5409 43.2083 26.2027 42.2237 28.0752C41.8799 28.7294 41.4727 29.4116 41.0632 30.0977C40.3044 31.3702 39.5279 32.669 39.1671 33.7971C38.8233 34.8727 38.8584 35.7857 38.9935 36.7393C39.0343 37.0286 39.0841 37.3198 39.136 37.622C39.1917 37.9487 39.2494 38.2864 39.3004 38.6441C39.3691 39.1314 39.4256 39.6599 39.4828 40.1964C39.6326 41.6005 39.7896 43.1007 40.2194 44.0097C40.7438 45.1197 41.6676 45.3552 42.809 45.5596C42.9151 45.5785 43.0292 45.5985 43.1407 45.6178C43.2595 45.6381 43.381 45.6592 43.5054 45.6816C43.9972 45.7699 44.5361 45.8778 45.1482 46.0002C46.4018 46.2508 47.949 46.5605 49.9588 46.8732C50.507 46.9587 51.0858 47.0433 51.6967 47.1332C54.4198 47.5326 57.7232 48.0171 61.2175 48.9553C65.4965 50.1044 70.069 51.9348 74.6577 53.7724L74.6523 53.7715C77.9047 55.1674 81.1449 56.5587 83.7967 57.9343C86.444 59.3071 88.4847 60.6554 90.2923 62.8475C91.6012 64.4349 92.7922 66.4698 94.0553 68.7435C94.3009 69.1848 94.5329 69.6066 94.7841 70.063C95.0328 70.5143 95.2997 70.9994 95.5573 71.4636C97.4159 74.8085 99.5426 78.4307 103.215 82.0464C104.948 83.7527 107.024 85.456 109.047 87.1164C111.31 88.9734 113.504 90.7745 115.111 92.4829C115.117 92.4906 115.144 92.5182 115.151 92.5253C116.741 94.2259 117.756 95.8379 118.72 97.3708C119.577 98.7332 120.398 100.039 121.547 101.267C122.4 102.178 123.43 103.044 124.457 103.907C126.392 105.532 128.303 107.144 129.171 109.097C130.497 112.083 129.39 115.931 127.104 118.342C125.665 119.86 123.782 120.782 122.113 120.782C121.14 120.782 120.236 120.469 119.519 119.775C117.521 117.844 116.903 112.962 116.654 110.532C116.639 110.395 116.63 110.299 116.618 110.175C116.415 108.161 116.386 108.089 114.552 105.943L114.455 105.831L114.353 105.711C112.226 103.224 107.851 98.073 105.162 94.8988C102.473 91.7247 101.47 90.5276 100.146 88.9358L100.099 88.8793C98.8054 87.3233 97.1457 85.3175 96.1171 84.8351C95.9342 84.7492 95.7572 84.703 95.5874 84.703C94.687 84.703 94.4799 85.8954 94.434 86.7644C94.3722 87.9382 94.5746 89.1829 95.0151 90.5126C95.1549 90.935 95.3178 91.3639 95.485 91.8036C95.8443 92.7492 96.2206 93.7402 96.4365 94.8308C96.7529 96.432 96.727 98.2605 96.6221 99.7185C96.5176 101.17 96.3375 102.21 95.6385 103.379C94.9306 104.562 93.6843 105.887 92.5732 106.8C92.1823 107.122 91.8076 107.393 91.4605 107.644C90.8334 108.097 90.2693 108.502 89.9152 109.019C89.7615 109.244 89.6502 109.485 89.5634 109.729C89.4479 110.053 89.3726 110.392 89.3031 110.706C89.2357 111.01 89.1727 111.292 89.0832 111.543C88.833 112.245 88.3682 112.728 87.7235 112.988C87.3463 113.14 86.903 113.217 86.5215 113.217C86.2347 113.217 86.009 113.174 85.8753 113.107C85.634 112.986 85.6146 112.723 85.7984 112.094C85.8208 112.018 85.847 111.933 85.8722 111.852C86.0027 111.43 86.2814 110.661 85.8605 110.354C85.7126 110.246 85.5153 110.221 85.3376 110.221C85.1049 110.221 84.8303 110.265 84.5595 110.319C84.4207 110.346 84.2805 110.376 84.1418 110.406C84.0053 110.435 83.871 110.464 83.7434 110.489C83.029 110.63 82.4744 110.661 81.832 110.692C81.6811 110.699 81.5316 110.706 81.3854 110.706C80.8855 110.706 80.5393 110.624 80.3773 110.346C80.3338 110.271 80.2985 110.175 80.2702 110.059C80.194 109.744 80.1909 109.351 80.1885 109.039C80.1874 108.875 80.1885 108.701 80.1648 108.603C80.1639 108.599 80.1628 108.595 80.1624 108.593C80.1544 108.563 80.1034 108.385 79.9072 108.385C79.8857 108.385 79.8669 108.387 79.85 108.391C79.7792 108.407 79.7304 108.448 79.71 108.466C79.6575 108.512 79.6033 108.585 79.5652 108.636C79.4558 108.779 79.3888 108.855 79.3498 108.868C79.3516 108.868 79.3546 108.868 79.3568 108.868C79.3587 108.868 79.36 108.868 79.36 108.868C79.2779 108.852 79.0565 108.572 78.947 108.152C78.849 107.775 78.8893 107.436 79.2755 106.962C79.4737 106.719 79.7592 106.446 80.0159 106.201C80.2364 105.99 80.4779 105.764 80.5502 105.627C80.5591 105.61 80.5693 105.59 80.5763 105.565C80.5822 105.544 80.5874 105.519 80.5874 105.491C80.5874 105.262 80.3444 105.243 80.3078 105.242C80.3022 105.242 80.2972 105.242 80.293 105.242C80.2874 105.242 80.2837 105.242 80.2782 105.242C80.1715 105.245 80.0139 105.283 79.8761 105.315C79.6472 105.368 79.3947 105.426 79.1765 105.432C79.165 105.432 79.1512 105.432 79.1395 105.432C78.6944 105.432 78.4298 105.216 78.3691 104.985C78.3012 104.73 78.4416 104.352 78.9071 103.686C79.3596 103.039 80.0411 102.227 80.9907 101.817C81.5376 101.581 82.1856 101.473 82.7801 101.473C83.2179 101.473 83.6147 101.532 83.9108 101.631C84.0891 101.692 84.2339 101.768 84.3559 101.85C84.5529 101.984 84.6949 102.138 84.8351 102.29C84.9414 102.406 85.0587 102.536 85.1953 102.628C85.3507 102.734 85.529 102.792 85.7309 102.792C86.0865 102.792 86.4869 102.613 86.9618 102.287C87.5972 101.851 88.8411 100.818 88.5988 100.234C88.511 100.021 88.2745 99.9311 88.0655 99.8774C87.8399 99.8192 87.5349 99.7773 87.1771 99.7276C86.562 99.6421 85.7427 99.5284 84.7378 99.2691C82.5373 98.7013 79.4428 97.4354 76.9984 95.6503C74.5562 93.8665 72.7555 91.5588 71.7581 89.6913C71.6764 89.538 71.5989 89.3856 71.527 89.2381C71.0872 88.3329 70.8255 87.5335 70.5864 86.8041C70.3924 86.2109 70.2104 85.6546 69.9593 85.1379C69.3509 83.8853 68.345 82.8806 67.8562 82.4675C67.6515 82.2944 67.5217 82.2129 67.2585 82.1102C67.1393 82.064 66.9884 82.0116 66.7916 81.9433C66.3614 81.7935 65.6796 81.5567 64.5038 81.099C63.4902 80.7047 62.1109 80.1468 60.5692 79.5231C57.7928 78.4 54.4932 77.0654 51.8851 76.1017C50.158 75.463 48.7357 74.988 47.5484 74.5917C45.9414 74.0547 44.7842 73.6675 43.8838 73.2191C43.1731 72.865 42.6198 72.4712 42.1706 72.1514C41.7273 71.8357 41.3042 71.5199 40.9415 71.5199C40.8933 71.5199 40.8446 71.5253 40.7962 71.5367C40.3734 71.6376 40.1583 72.1784 39.9815 72.7092C39.9048 72.9405 39.8275 73.2007 39.7448 73.4782C39.6468 73.8077 39.5414 74.1623 39.4181 74.534C39.1895 75.2194 38.8993 75.9623 38.5885 76.7199C38.407 77.163 38.2158 77.6166 38.0292 78.0598C37.8459 78.4953 37.6643 78.9257 37.4927 79.3445C37.4119 79.5415 37.332 79.7392 37.2551 79.9299C36.7143 81.2655 36.2385 82.4383 35.4402 83.5363C35.0468 84.0781 34.5726 84.604 34.0979 85.1304C33.4747 85.8216 32.8446 86.5187 32.44 87.2252C31.9732 88.041 31.8112 88.8577 31.7215 89.5888C31.6964 89.7913 31.6773 89.9864 31.6588 90.1745C31.6413 90.3513 31.625 90.5172 31.605 90.6784C31.4861 91.648 31.2577 92.2813 30.7824 92.5874C30.5555 92.7335 30.2584 92.815 29.9678 92.815C29.641 92.815 29.357 92.7133 29.1904 92.5296C29.155 92.4912 29.123 92.4469 29.0933 92.3965C28.9684 92.184 28.9048 91.8984 28.8334 91.5682C28.7656 91.2548 28.6899 90.8965 28.5233 90.6128C28.235 90.1225 27.6989 89.8785 27.1679 89.8785C26.9819 89.8785 26.794 89.9081 26.6157 89.9684M8.19886 68.3L7.97805 68.267L7.75576 68.2329M8.19886 68.3C8.17574 68.4418 8.05775 68.6185 7.97435 68.7497C7.78683 69.0453 7.6448 69.2924 7.67901 69.4655C7.74263 69.7843 8.49419 70.0808 9.3116 70.2191C9.56366 70.2617 9.7878 70.2834 9.99529 70.2834C10.3846 70.2834 10.7245 70.2071 11.0808 70.0375C11.2364 69.9636 11.3962 69.872 11.557 69.7791C11.6987 69.6976 11.8439 69.6136 11.9757 69.5505C12.0983 69.492 12.2448 69.4343 12.3846 69.4343C12.3981 69.4343 12.4133 69.4352 12.4277 69.4365C12.5577 69.4475 12.6718 69.5132 12.7391 69.6335C12.7434 69.6404 12.7475 69.6488 12.7508 69.6559C12.851 69.8629 12.807 70.2539 12.7778 70.5765C12.7364 71.0261 12.6975 71.49 12.7935 71.8124C12.9352 72.2854 13.411 72.4899 13.9429 72.4899C14.0006 72.4899 14.0575 72.4872 14.1141 72.4824C14.6798 72.4344 15.1608 72.1539 15.4477 71.7971C15.5549 71.6645 15.6376 71.5182 15.7175 71.376C15.7759 71.2721 15.8395 71.1575 15.9091 71.0712C15.9462 71.0253 15.993 70.9765 16.0529 70.9391C16.1108 70.9024 16.1829 70.8765 16.266 70.8765C16.3008 70.8765 16.3346 70.8814 16.3671 70.8897C16.3782 70.8929 16.3879 70.8954 16.3982 70.8984C16.5737 70.9575 16.7548 71.1499 16.8888 71.2856C17.0958 71.4948 17.2924 71.6886 17.4904 71.7693M17.4904 71.7693L17.4018 71.7521M17.4904 71.7693C17.5685 71.8009 17.65 71.8159 17.7345 71.8159C18.0151 71.8159 18.3311 71.6525 18.5765 71.4213C18.8003 71.2107 18.947 70.9623 19.2055 70.5183C19.3066 70.3443 19.4241 70.1427 19.5676 69.9088C20.0699 69.089 20.895 67.8672 21.3884 67.1692C21.8892 66.4614 22.0731 66.2587 22.6315 65.9292C23.1593 65.6179 24.0574 65.1676 24.8052 64.9655M24.8052 64.9655L24.8224 64.9615M24.8052 64.9655C25.0982 64.8866 25.3743 64.844 25.623 64.844C26.0121 64.844 26.3657 64.95 26.5819 65.2219C26.8238 65.5244 26.8465 66.0006 26.9083 66.9028C26.932 67.2427 26.9597 67.6507 27.0026 68.1514C27.0954 69.2494 27.2569 70.7783 27.4198 72.3277C27.5382 73.4509 27.6589 74.5921 27.7527 75.5664C27.9755 77.877 28.0613 79.3407 27.852 80.4448C27.6478 81.5213 27.1404 82.3528 26.5394 82.5184C26.4628 82.5391 26.3866 82.5488 26.311 82.5488C25.9944 82.5488 25.689 82.3739 25.4109 82.2215C25.2095 82.111 24.9983 81.9951 24.7546 81.9C24.3076 81.7255 23.7417 81.6158 23.2442 81.6158C22.9731 81.6158 22.7346 81.6483 22.5513 81.7126C22.0967 81.8718 21.997 82.1966 22.0527 82.3395C22.0629 82.3656 22.0779 82.3892 22.0991 82.4104C22.1757 82.4867 22.3288 82.5425 22.5191 82.6059C22.6049 82.6346 22.7285 82.6737 22.8078 82.7253M22.8078 82.7253L22.6818 82.9005L22.5552 83.0745M22.8078 82.7253C22.8268 82.7371 22.8481 82.7531 22.8684 82.7738C23.0022 82.9067 22.9511 83.071 22.8477 83.164C22.8193 83.1895 22.7878 83.2111 22.7558 83.23C22.5576 83.3472 22.0762 83.5062 21.5956 83.6666C21.0905 83.8348 20.552 84.0149 20.1891 84.1788C19.5337 84.4751 19.6168 84.6315 19.6423 84.6835C19.6534 84.7055 19.67 84.7311 19.6933 84.7603C19.7416 84.8206 19.8087 84.8839 19.8962 84.965C19.9866 85.0495 20.0961 85.1514 20.1886 85.2662C20.3254 85.4376 20.4397 85.6564 20.4155 85.9334C20.3924 86.2003 20.2354 86.5025 20.1026 86.765C19.9406 87.0848 19.7967 87.375 19.774 87.635C19.7727 87.6482 19.7723 87.6604 19.7718 87.6729C19.7536 88.1314 20.1719 88.5555 20.7582 88.5845C20.7804 88.5858 20.8022 88.5862 20.8253 88.5862C21.1567 88.5862 21.529 88.4757 21.8271 88.3858C21.9639 88.3444 22.1213 88.295 22.2249 88.289C22.2323 88.2885 22.2417 88.2885 22.2504 88.2885C22.2861 88.2885 22.4899 88.2991 22.5197 88.4951C22.5304 88.5677 22.5038 88.6284 22.4921 88.6527C22.4509 88.7421 22.3469 88.8664 22.26 88.972C22.0057 89.2826 21.7426 89.6227 21.7472 89.8595C21.7537 90.1872 22.3521 90.4673 23.173 90.7444C23.6882 90.9184 24.1264 91.044 24.5121 91.044C24.6799 91.044 24.8334 91.0197 24.9769 90.9674C25.2127 90.8815 25.4377 90.7142 25.6999 90.5169C25.9548 90.3247 26.2451 90.1033 26.5758 89.9825C26.5891 89.9778 26.6017 89.9733 26.6157 89.9684M26.6157 89.9684L26.6198 89.967M80.2935 105.666C80.3372 105.667 80.1395 105.67 80.1395 105.49C80.1395 105.472 80.1426 105.458 80.145 105.449C80.1476 105.44 80.1509 105.434 80.15 105.435C80.1193 105.494 79.9573 105.653 79.6978 105.901C79.4467 106.141 79.1399 106.434 78.9208 106.702C78.4584 107.269 78.3787 107.741 78.5124 108.254C78.6104 108.629 78.8773 109.207 79.2695 109.283C79.2978 109.289 79.3265 109.292 79.3563 109.292C79.3875 109.292 79.419 109.288 79.4497 109.281C79.4665 109.278 79.4822 109.273 79.4979 109.268C79.6995 109.2 79.8558 108.978 79.9279 108.883C79.9789 108.816 80.003 108.786 80.0152 108.775C80.0222 108.769 79.9991 108.793 79.9503 108.804C79.9383 108.806 79.9238 108.809 79.9072 108.809C79.7433 108.809 79.7182 108.659 79.728 108.696C79.7378 108.735 79.7402 108.844 79.7409 109.041C79.7433 109.342 79.7452 109.784 79.8343 110.154C79.8678 110.293 79.9155 110.43 79.9856 110.551C80.2828 111.061 80.8871 111.13 81.3855 111.13C81.5442 111.13 81.7044 111.122 81.8543 111.115C82.5003 111.085 83.0843 111.052 83.8344 110.904C83.9672 110.878 84.105 110.849 84.2411 110.819C84.3794 110.789 84.5172 110.76 84.6505 110.733C84.9183 110.681 85.1545 110.645 85.3374 110.645C85.489 110.645 85.5606 110.67 85.5876 110.69C85.6985 110.771 85.6358 111.108 85.4428 111.732C85.4176 111.813 85.3906 111.9 85.3675 111.98C85.2092 112.519 85.0622 113.179 85.6665 113.481C85.8925 113.595 86.2021 113.641 86.5215 113.641C86.9587 113.641 87.4619 113.554 87.8987 113.378C88.6704 113.067 89.2195 112.485 89.5069 111.677C89.6065 111.398 89.6744 111.091 89.7408 110.793C89.8116 110.474 89.8813 110.161 89.9871 109.864C90.0655 109.644 90.1626 109.437 90.2908 109.25C90.5933 108.806 91.0858 108.448 91.7316 107.981C92.0783 107.73 92.4632 107.452 92.866 107.12C94.0037 106.185 95.2875 104.824 96.0274 103.587C96.7762 102.337 96.9622 101.222 97.0686 99.7463C97.1743 98.2765 97.2032 96.4054 96.876 94.7515C96.6528 93.6225 96.2637 92.6003 95.9059 91.6586C95.7383 91.2186 95.5782 90.7963 95.4417 90.3844C95.0138 89.0908 94.8224 87.8972 94.881 86.7847C94.9361 85.7407 95.1906 85.1267 95.5874 85.1267C95.6714 85.1267 95.78 85.1496 95.9188 85.2148C96.8304 85.6425 98.4095 87.5317 99.748 89.1414L99.795 89.1979C101.119 90.7892 102.126 91.9913 104.813 95.1638C107.498 98.333 111.883 103.496 114.006 105.978L114.108 106.097L114.204 106.21C116.002 108.312 115.981 108.307 116.172 110.214C116.184 110.34 116.194 110.433 116.208 110.573C116.452 112.94 117.066 118.008 119.199 120.072C120.01 120.855 121.032 121.205 122.113 121.205C123.944 121.205 125.939 120.204 127.437 118.625C129.81 116.123 130.992 112.104 129.583 108.931C128.668 106.871 126.666 105.195 124.754 103.587C123.722 102.721 122.713 101.873 121.882 100.984C120.765 99.7903 119.964 98.5182 119.104 97.152C118.14 95.6196 117.107 93.9762 115.485 92.2422L115.444 92.1995C113.814 90.4664 111.596 88.6456 109.339 86.7939C107.313 85.1312 105.253 83.4402 103.537 81.7505C99.9106 78.1798 97.8068 74.6019 95.953 71.2641C95.6964 70.8016 95.4289 70.3162 95.1806 69.8652C94.9307 69.4116 94.695 68.9839 94.4508 68.5438C93.1889 66.2724 91.9811 64.2055 90.6447 62.5845C88.7845 60.3285 86.6846 58.9468 84.011 57.5602C81.3421 56.1759 78.0841 54.777 74.8369 53.3834L74.8313 53.3813C70.2495 51.5464 65.6502 49.7043 61.3385 48.5467C57.8146 47.6004 54.486 47.112 51.7641 46.713C51.1526 46.6231 50.5774 46.539 50.0306 46.454C48.0317 46.1429 46.4928 45.8351 45.2401 45.5845C44.6287 45.462 44.0848 45.3532 43.5881 45.2642C43.4614 45.2414 43.3399 45.2202 43.2206 45.1995C43.1088 45.1806 42.9965 45.1608 42.8915 45.1422C41.7584 44.9392 41.0516 44.734 40.6271 43.8359C40.2347 43.0048 40.0805 41.59 39.9274 40.1532C39.8702 39.6186 39.8131 39.0824 39.743 38.5874C39.6914 38.2241 39.6326 37.8787 39.5769 37.5537C39.5253 37.2508 39.4761 36.9644 39.4362 36.6825C39.3058 35.7593 39.2771 34.9146 39.595 33.9195C39.9375 32.8469 40.6845 31.593 41.4521 30.3064C41.8601 29.6228 42.2738 28.9296 42.6237 28.2641C43.6304 26.3485 44.1216 24.6453 44.387 23.1032C44.6524 21.563 44.6953 20.1725 44.4362 18.8379C44.1949 17.5949 43.693 16.4105 43.3268 15.5446C43.3002 15.482 43.2776 15.4278 43.2524 15.3683C43.2417 15.3428 43.2288 15.3127 43.2186 15.2882C43.2303 15.315 43.175 15.1841 43.1864 15.2114C42.8554 14.427 42.6035 13.8579 41.7271 13.5862C41.2901 13.4505 40.7069 13.3905 40.1034 13.3905C39.4861 13.3905 38.8307 13.4536 38.2617 13.573C37.7716 13.675 37.3492 13.8191 36.9941 13.9397C36.7175 14.0338 36.4915 14.1102 36.2951 14.1514C36.1971 14.1721 36.1122 14.1822 36.0384 14.1822C36.0101 14.1822 35.9837 14.1808 35.9591 14.1778C35.8217 14.1615 35.7002 14.0998 35.4629 13.9729C35.0396 13.7461 34.3953 13.4025 32.982 13.1215C31.2378 12.7739 28.3121 12.5194 26.0358 12.5194C25.4732 12.5194 24.9482 12.5349 24.4883 12.5686C22.9343 12.6831 22.14 13.0055 21.6272 13.2148C21.3746 13.3179 21.2344 13.3721 21.1105 13.3813C21.1049 13.3818 21.099 13.3818 21.0938 13.3822C21.0883 13.3822 21.0816 13.3827 21.0761 13.3827C20.8849 13.3827 20.6877 13.271 20.3395 13.0586C20.0419 12.8772 19.6691 12.6495 19.1702 12.4738C18.4935 12.2359 17.5971 12.0977 16.7413 12.0977C16.2534 12.0977 15.7711 12.1425 15.345 12.2434C14.1557 12.5249 13.4521 13.2302 12.839 14.0225C12.225 14.8163 11.6667 15.743 11.4015 16.974C11.1389 18.1955 11.1681 19.7035 11.2856 20.9404C11.4034 22.1825 11.6123 23.1695 11.8722 24.0755C12.1326 24.9829 12.444 25.8096 12.9466 26.8887C12.9962 26.9944 13.0552 27.1195 13.1077 27.2306C13.1671 27.3565 13.2242 27.4767 13.286 27.6097C13.7219 28.5449 14.2036 29.6756 14.4904 31.1876C14.8562 33.1119 14.9082 35.6643 14.5211 38.5964C14.4009 39.5043 14.2389 40.4474 14.076 41.3978C13.9122 42.3509 13.7472 43.3107 13.6248 44.2392C13.475 45.3735 13.3868 46.4698 13.4415 47.4599C13.5608 49.6212 14.3601 51.2495 15.0096 52.5753C15.1455 52.8523 15.274 53.1149 15.3896 53.3676C16.0529 54.8199 16.2873 55.9551 16.3834 57.4786C16.4809 59.0209 16.4321 60.9091 15.9945 62.0614C15.5701 63.1775 14.7926 63.5726 14.2134 63.5726C14.2079 63.5726 14.1986 63.5721 14.1927 63.5721C13.7725 63.5655 13.416 63.3559 13.0393 63.1291C12.8887 63.0383 12.7316 62.9431 12.5755 62.8719C12.264 62.7295 11.9698 62.6864 11.6249 62.6864C11.3965 62.6864 11.1382 62.7059 10.8391 62.7274C10.809 62.7297 10.7398 62.7349 10.7073 62.737L10.62 62.7432C10.6037 62.7444 10.544 62.7489 10.5272 62.7498C9.73065 62.8073 8.55041 62.8982 7.89631 63.3624C7.47115 63.6645 7.2827 64.1112 7.1133 64.501C6.9857 64.7947 6.8679 65.0639 6.68038 65.2956C6.46548 65.5611 6.15165 65.7884 5.82451 66.0231C5.54267 66.2252 5.23957 66.4407 5.04557 66.6812C5.001 66.7363 4.9605 66.794 4.92666 66.8552C4.623 67.4032 4.91501 68.0193 5.48553 68.3038C5.61461 68.3681 5.75793 68.416 5.91402 68.4451C6.05567 68.4717 6.20454 68.4814 6.35175 68.4814C6.66965 68.4814 7.0053 68.4355 7.27678 68.3985C7.4926 68.3693 7.657 68.3474 7.76833 68.3474C7.8129 68.3474 7.83232 68.3514 7.83657 68.3528C7.83898 68.3532 7.81882 68.3483 7.79607 68.3267C7.74781 68.28 7.75668 68.2294 7.75576 68.2329M80.2935 105.666C80.2931 105.666 80.2946 105.666 80.2935 105.666ZM80.2935 105.666H80.2905C80.2441 105.667 80.1467 105.688 79.9819 105.727C79.7637 105.777 79.4633 105.848 79.1891 105.856C79.1734 105.856 79.1553 105.856 79.1388 105.856C78.5466 105.856 78.0577 105.556 77.9343 105.088C77.8123 104.626 78.0838 104.095 78.5335 103.451C78.9968 102.789 79.7356 101.891 80.8047 101.43C81.4207 101.164 82.1342 101.048 82.7794 101.048C83.2537 101.048 83.7035 101.111 84.0598 101.231C84.2795 101.305 84.4613 101.4 84.6156 101.505C84.8601 101.671 85.0328 101.86 85.1715 102.011C85.2871 102.137 85.3694 102.225 85.4546 102.283C85.5376 102.339 85.6249 102.367 85.73 102.367C85.9369 102.367 86.2387 102.258 86.6986 101.942C87.5083 101.387 88.2652 100.59 88.1816 100.388C88.1816 100.388 88.1589 100.341 87.9473 100.287C87.7542 100.237 87.4813 100.199 87.112 100.147C86.4941 100.062 85.653 99.9447 84.6198 99.6782C82.3733 99.0986 79.2235 97.8112 76.7249 95.9859C74.224 94.1593 72.3827 91.8002 71.3581 89.8825C71.2738 89.7235 71.1945 89.5685 71.1201 89.4152C70.6665 88.4822 70.3974 87.6592 70.1588 86.9297C69.9624 86.3306 69.7893 85.8016 69.5526 85.315C68.979 84.1342 68.0205 83.1748 67.5581 82.7841C67.3878 82.6397 67.3005 82.585 67.0878 82.5026C66.9774 82.4595 66.838 82.411 66.6372 82.3415C66.2041 82.1908 65.5157 81.9516 64.3331 81.4913C63.3174 81.0963 61.9319 80.5356 60.3929 79.9132C57.6145 78.7893 54.3227 77.4578 51.7224 76.4967C50.0023 75.861 48.5866 75.3881 47.3992 74.9916C45.8038 74.4586 44.611 74.0604 43.6752 73.5944C42.9292 73.223 42.3509 72.8103 41.9011 72.4905C41.3841 72.1219 41.1135 71.9439 40.9408 71.9439C40.9264 71.9439 40.9147 71.9452 40.9045 71.9479C40.7755 71.9783 40.6155 72.2125 40.408 72.8363C40.3333 73.06 40.258 73.3141 40.175 73.593C40.077 73.9223 39.9703 74.2818 39.844 74.661C39.6115 75.36 39.3171 76.1123 39.0047 76.8734C38.8224 77.3183 38.6306 77.7742 38.444 78.2167C38.2607 78.6519 38.0797 79.0822 37.9094 79.4976C37.8282 79.6955 37.7498 79.8888 37.6717 80.0812C37.1349 81.4091 36.6413 82.6306 35.8082 83.7771C35.3987 84.34 34.909 84.8827 34.4371 85.4059C33.8054 86.1067 33.2102 86.7682 32.8324 87.4276C32.4054 88.1733 32.2523 88.9278 32.165 89.6374C32.1408 89.835 32.1223 90.024 32.1032 90.2135C32.086 90.3889 32.0694 90.5601 32.0489 90.7266C31.93 91.6934 31.691 92.5139 31.0332 92.9376C30.7249 93.1363 30.3384 93.2389 29.9671 93.2389C29.5549 93.2389 29.1282 93.1115 28.8506 92.8063C28.7926 92.7429 28.7439 92.6741 28.7016 92.6023C28.5363 92.3209 28.4617 91.9646 28.3939 91.6527C28.3225 91.321 28.2579 91.0339 28.1316 90.8189C27.933 90.4802 27.5583 90.3017 27.1672 90.3017C27.0307 90.3017 26.8942 90.3237 26.7648 90.3674M26.7648 90.3674L26.7605 90.3688M26.7648 90.3674C26.755 90.3709 26.7457 90.374 26.7356 90.378C26.4813 90.4708 26.2444 90.6467 25.9772 90.8483C25.729 91.0355 25.449 91.2487 25.137 91.3627C24.9341 91.4367 24.7242 91.4671 24.5112 91.4671C24.0387 91.4671 23.5327 91.3154 23.0221 91.1433C22.3645 90.9212 21.3126 90.5587 21.2987 89.8668C21.2904 89.4436 21.6971 88.9656 21.9059 88.7107C22.0141 88.5781 22.0692 88.5081 22.0821 88.4794C22.0867 88.4697 22.0677 88.5023 22.0756 88.5538C22.0999 88.7161 22.2707 88.7119 22.2493 88.7119C22.2167 88.7137 22.1322 88.738 21.9614 88.7896C21.6769 88.8755 21.2373 89.0098 20.8242 89.0098C20.7935 89.0098 20.7639 89.0088 20.7334 89.0075C19.9428 88.9683 19.295 88.3826 19.3231 87.6557C19.324 87.6368 19.3255 87.6173 19.327 87.5984C19.3581 87.2449 19.5465 86.8789 19.6983 86.5796C19.8454 86.2895 19.9535 86.0679 19.9689 85.8971C19.9805 85.7613 19.9295 85.6446 19.8311 85.5222C19.7616 85.435 19.676 85.3549 19.5813 85.2668C19.5005 85.191 19.4076 85.1055 19.3362 85.0158C19.2985 84.9691 19.2647 84.9189 19.2373 84.8646C19.0196 84.4316 19.3538 84.0846 19.9953 83.7944C20.3846 83.6182 20.9501 83.4303 21.4458 83.265C21.961 83.0931 22.3739 82.9535 22.5184 82.8685C22.5341 82.8592 22.5393 82.8543 22.5383 82.8553C22.5128 82.8781 22.4621 82.9843 22.5435 83.0649C22.5509 83.0719 22.5554 83.075 22.5552 83.0745M22.5552 83.0745C22.5365 83.0627 22.4847 83.0434 22.3701 83.0055C22.2132 82.953 21.9403 82.8675 21.7735 82.7017C21.7098 82.6377 21.6627 82.5646 21.632 82.4854C21.458 82.0384 21.8093 81.5187 22.395 81.3133C22.6443 81.2262 22.94 81.19 23.2431 81.19C23.8001 81.19 24.4239 81.3107 24.9238 81.5062C25.1992 81.6136 25.4344 81.7433 25.6336 81.8524C25.9496 82.0261 26.1395 82.123 26.3097 82.123C26.345 82.123 26.3788 82.1185 26.4132 82.1093C26.7409 82.0189 27.2084 81.4341 27.4104 80.3685C27.6072 79.3308 27.5302 77.9276 27.3059 75.6037C27.2121 74.6311 27.0923 73.4926 26.9736 72.3685C26.8107 70.8208 26.6488 69.2867 26.5554 68.1843C26.5122 67.6777 26.4844 67.2707 26.4611 66.929C26.3933 65.9455 26.3626 65.6499 26.2242 65.4768C26.1249 65.3522 25.9356 65.2672 25.6217 65.2672C25.425 65.2672 25.191 65.301 24.9266 65.3725M24.9266 65.3725L24.9094 65.3765M24.9266 65.3725C24.2362 65.5589 23.379 65.9862 22.8666 66.2886C22.3848 66.5728 22.2428 66.7203 21.759 67.4044C21.2684 68.098 20.4488 69.312 19.953 70.121C19.8124 70.3501 19.6972 70.5484 19.5961 70.7224C19.3455 71.1522 19.1687 71.4598 18.8905 71.7213C18.6009 71.994 18.1786 72.2393 17.7332 72.2393C17.5927 72.2393 17.4505 72.2142 17.3123 72.1583M17.3123 72.1583L17.4007 72.1755M17.3123 72.1583C17.0107 72.0354 16.7485 71.7645 16.5613 71.5747C16.3836 71.395 16.293 71.3126 16.248 71.2977C16.2512 71.2986 16.2577 71.3 16.2647 71.3C16.2841 71.3 16.2963 71.2934 16.2971 71.2925C16.2958 71.2939 16.2841 71.3017 16.2632 71.3278C16.2205 71.3806 16.1756 71.4599 16.111 71.5749C16.033 71.7133 15.9342 71.8898 15.802 72.0536C15.4417 72.5016 14.8481 72.8452 14.1528 72.9041C14.0836 72.9099 14.012 72.9133 13.9416 72.9133C13.3165 72.9133 12.5825 72.6649 12.3621 71.9272C12.2385 71.5136 12.292 70.9609 12.3306 70.5389C12.3672 70.1399 12.3798 69.9082 12.343 69.8319C12.35 69.8443 12.3728 69.8571 12.3854 69.858M12.3854 69.858C12.3859 69.8583 12.3863 69.858 12.3854 69.858ZM12.3854 69.858C12.3589 69.858 12.2925 69.8733 12.1751 69.9292C12.0628 69.9826 11.9347 70.0566 11.788 70.1411C11.6307 70.2318 11.4548 70.3336 11.2802 70.4164C10.8619 70.615 10.4541 70.7071 9.994 70.7071C9.75395 70.7071 9.503 70.6819 9.23133 70.6362C8.53229 70.5177 7.36999 70.2054 7.23813 69.5434C7.16434 69.1747 7.43952 68.7665 7.59006 68.5294C7.70009 68.3572 7.74984 68.2703 7.75576 68.2329" stroke="#00A81B" stroke-miterlimit="10"/>
<path d="M32.6001 24.0492L33.8539 25.3853" stroke="#00A81B" stroke-width="1.5" stroke-linecap="round"/>
<path d="M28.8384 32.1028L27.585 32.0659" stroke="#00A81B" stroke-linecap="round"/>
<path d="M22.5693 24.0492L23.8232 25.3853" stroke="#00A81B" stroke-width="1.5" stroke-linecap="round"/>
<line x1="60.1846" y1="18.2049" x2="125.385" y2="18.2049" stroke="black"/>
<line x1="5.01562" y1="117.074" x2="67.7079" y2="117.074" stroke="black"/>
<line x1="60.1846" y1="26.2213" x2="95.2923" y2="26.2213" stroke="black"/>
<line x1="5.01562" y1="109.057" x2="40.1233" y2="109.057" stroke="black"/>
<path d="M105.323 25.3853H125.385M105.323 41.418H125.385" stroke="black"/>
<line x1="47.646" y1="109.057" x2="67.7075" y2="109.057" stroke="black"/>
<line x1="60.1846" y1="34.2377" x2="90.2769" y2="34.2377" stroke="black"/>
<line x1="37.6152" y1="125.09" x2="67.7076" y2="125.09" stroke="black"/>
<line x1="95.292" y1="34.2377" x2="125.384" y2="34.2377" stroke="black"/>
<line x1="60.1846" y1="42.2541" x2="100.308" y2="42.2541" stroke="black"/>
</svg>
