<svg width="109" height="88" viewBox="0 0 109 88" fill="none" xmlns="http://www.w3.org/2000/svg">
<mask id="path-1-inside-1_377_1107" fill="white">
<path fill-rule="evenodd" clip-rule="evenodd" d="M40.2444 63.4548C35.4056 60.9669 16.0972 49.5514 11.1791 56.7645C5.00505 56.7645 0 53.1023 0 48.5847C0 44.0671 5.00505 40.4049 11.1791 40.4049C15.8212 45.4998 26.011 41.6149 33.2367 37.8869L41.4445 33V64.1693L40.2444 63.4548Z"/>
</mask>
<path d="M40.2444 63.4548L41.2675 61.7363C41.232 61.7151 41.1957 61.6951 41.1589 61.6761L40.2444 63.4548ZM11.1791 56.7645V58.7645C11.8404 58.7645 12.459 58.4376 12.8316 57.8912L11.1791 56.7645ZM11.1791 40.4049L12.6575 39.0579C12.2785 38.6419 11.7418 38.4049 11.1791 38.4049V40.4049ZM33.2367 37.8869L34.1537 39.6643C34.1897 39.6457 34.2251 39.6261 34.2598 39.6054L33.2367 37.8869ZM41.4445 33H43.4445C43.4445 32.2807 43.0582 31.6168 42.4329 31.2613C41.8075 30.9058 41.0394 30.9135 40.4213 31.2815L41.4445 33ZM41.4445 64.1693L40.4213 65.8878C41.0394 66.2558 41.8075 66.2635 42.4329 65.9081C43.0582 65.5526 43.4445 64.8887 43.4445 64.1693H41.4445ZM41.1589 61.6761C38.8598 60.4941 32.6349 56.9164 26.4426 54.5987C23.3481 53.4405 20.0852 52.5248 17.1884 52.4183C14.3031 52.3123 11.3173 53.0116 9.52665 55.6379L12.8316 57.8912C13.4999 56.9109 14.772 56.3322 17.0414 56.4156C19.2994 56.4986 22.0881 57.2399 25.0404 58.3449C30.9415 60.5536 36.7902 63.9277 39.3299 65.2335L41.1589 61.6761ZM11.1791 54.7645C8.47162 54.7645 6.1009 53.9587 4.4553 52.7547C2.80832 51.5495 2 50.0513 2 48.5847H-2C-2 51.6357 -0.305796 54.2274 2.09326 55.9828C4.49371 57.7392 7.71254 58.7645 11.1791 58.7645V54.7645ZM2 48.5847C2 47.1181 2.80832 45.6199 4.4553 44.4147C6.1009 43.2107 8.47161 42.4049 11.1791 42.4049V38.4049C7.71254 38.4049 4.49371 39.4302 2.09326 41.1866C-0.305796 42.942 -2 45.5337 -2 48.5847H2ZM9.70072 41.7519C12.759 45.1085 17.4141 45.253 21.6285 44.4162C25.935 43.5611 30.4858 41.5567 34.1537 39.6643L32.3196 36.1095C28.7619 37.9451 24.605 39.7471 20.8495 40.4928C17.0021 41.2567 14.2413 40.7962 12.6575 39.0579L9.70072 41.7519ZM34.2598 39.6054L42.4677 34.7185L40.4213 31.2815L32.2135 36.1684L34.2598 39.6054ZM39.4445 33V64.1693H43.4445V33H39.4445ZM42.4677 62.4509L41.2675 61.7363L39.2212 65.1733L40.4213 65.8878L42.4677 62.4509Z" fill="black" mask="url(#path-1-inside-1_377_1107)"/>
<rect x="11" y="40" width="3" height="33" fill="black"/>
<rect x="43.626" y="42.8053" width="14.2404" height="1.63597" transform="rotate(-24.8658 43.626 42.8053)" fill="#00A81B"/>
<rect x="45" y="48" width="15" height="1" fill="#00A81B"/>
<rect x="45.4043" y="52.6316" width="14.2404" height="1.63597" transform="rotate(24.87 45.4043 52.6316)" fill="#00A81B"/>
</svg>
