<svg width="91" height="79" viewBox="0 0 91 79" fill="none" xmlns="http://www.w3.org/2000/svg">
<mask id="path-1-inside-1_379_2953" fill="white">
<path fill-rule="evenodd" clip-rule="evenodd" d="M77.8628 27.0501C79.2393 24.7279 80 22.177 80 19.5C80 8.73045 67.6878 0 52.5 0C39.6114 0 28.7937 6.28718 25.8138 14.7723C23.974 14.2701 22.022 14 20 14C8.9543 14 0 22.0589 0 32C0 41.7512 3.3236 48.7293 13.8753 48.9923C13.9162 48.9974 13.9578 49 14 49H14.5H80H81.5C81.6447 49 81.7822 48.9693 81.9064 48.914C88.488 48.2902 91 44.3197 91 38.5C91 32.5132 85.2319 27.5949 77.8628 27.0501Z"/>
</mask>
<path d="M77.8628 27.0501L75.2821 25.5204L72.8135 29.685L77.6416 30.042L77.8628 27.0501ZM25.8138 14.7723L25.0237 17.6664L27.7186 18.4021L28.6443 15.7664L25.8138 14.7723ZM13.8753 48.9923L14.2456 46.0152L14.0984 45.9969L13.9501 45.9932L13.8753 48.9923ZM81.9064 48.914L81.6233 45.9274L81.1345 45.9737L80.686 46.1734L81.9064 48.914ZM77 19.5C77 21.5906 76.4097 23.6181 75.2821 25.5204L80.4435 28.5798C82.0689 25.8378 83 22.7633 83 19.5H77ZM52.5 3C59.5455 3 65.7975 5.02966 70.2102 8.15862C74.6298 11.2926 77 15.3454 77 19.5H83C83 12.8851 79.2141 7.18788 73.6807 3.26422C68.1403 -0.664434 60.6423 -3 52.5 -3V3ZM28.6443 15.7664C31.0447 8.93133 40.3338 3 52.5 3V-3C38.889 -3 26.5427 3.64304 22.9833 13.7782L28.6443 15.7664ZM20 17C21.7544 17 23.4407 17.2343 25.0237 17.6664L26.6038 11.8782C24.5073 11.3059 22.2897 11 20 11V17ZM3 32C3 24.0052 10.306 17 20 17V11C7.60259 11 -3 20.1125 -3 32H3ZM13.9501 45.9932C9.39223 45.8796 6.90232 44.3737 5.41824 42.3053C3.80667 40.0593 3 36.6289 3 32H-3C-3 37.1223 -2.14487 42.0566 0.543285 45.8031C3.35894 49.7274 7.80668 51.842 13.8006 51.9914L13.9501 45.9932ZM14 46C14.0818 46 14.1639 46.0051 14.2456 46.0152L13.505 51.9694C13.6684 51.9897 13.8337 52 14 52V46ZM14.5 46H14V52H14.5V46ZM80 46H14.5V52H80V46ZM81.5 46H80V52H81.5V46ZM80.686 46.1734C80.9385 46.061 81.2161 46 81.5 46V52C82.0733 52 82.626 51.8775 83.1268 51.6545L80.686 46.1734ZM88 38.5C88 41.0238 87.4503 42.701 86.5865 43.7717C85.7718 44.7814 84.3392 45.6699 81.6233 45.9274L82.1895 51.9006C86.0551 51.5342 89.1694 50.1256 91.2561 47.5392C93.2937 45.0138 94 41.7959 94 38.5H88ZM77.6416 30.042C84.0692 30.5171 88 34.6418 88 38.5H94C94 30.3846 86.3946 24.6727 78.084 24.0583L77.6416 30.042Z" fill="black" mask="url(#path-1-inside-1_379_2953)"/>
<g filter="url(#filter0_d_379_2953)">
<path d="M66.9545 65.9549C66.9796 68.7338 64.7338 71 61.9547 71L26 71C23.2386 71 21 68.7614 21 66L21 31.2837H29.5294C32.2908 31.2837 34.5294 29.0451 34.5294 26.2837V21L61.5939 21C64.3377 21 66.569 23.2112 66.5937 25.9549L66.9545 65.9549Z" fill="#F8F8F8"/>
<path d="M65.4546 65.9684C65.4721 67.9137 63.9 69.5 61.9547 69.5H26C24.067 69.5 22.5 67.933 22.5 66L22.5 32.7837H29.5294C33.1193 32.7837 36.0294 29.8735 36.0294 26.2837V22.5L61.5939 22.5C63.5146 22.5 65.0764 24.0478 65.0938 25.9684L65.4546 65.9684Z" stroke="black" stroke-width="3"/>
</g>
<path d="M22 31.5L35 22" stroke="black" stroke-width="2" stroke-linecap="round"/>
<path d="M53.7071 35.2929C53.3166 34.9024 52.6834 34.9024 52.2929 35.2929L45.9289 41.6569C45.5384 42.0474 45.5384 42.6805 45.9289 43.0711C46.3195 43.4616 46.9526 43.4616 47.3431 43.0711L53 37.4142L58.6569 43.0711C59.0474 43.4616 59.6805 43.4616 60.0711 43.0711C60.4616 42.6805 60.4616 42.0474 60.0711 41.6569L53.7071 35.2929ZM54 62L54 36L52 36L52 62L54 62Z" fill="#FFB800"/>
<path d="M33.2929 62.7071C33.6834 63.0976 34.3166 63.0976 34.7071 62.7071L41.0711 56.3431C41.4616 55.9526 41.4616 55.3195 41.0711 54.9289C40.6805 54.5384 40.0474 54.5384 39.6569 54.9289L34 60.5858L28.3431 54.9289C27.9526 54.5384 27.3195 54.5384 26.9289 54.9289C26.5384 55.3195 26.5384 55.9526 26.9289 56.3431L33.2929 62.7071ZM33 36L33 62L35 62L35 36L33 36Z" fill="#00A81B"/>
<defs>
<filter id="filter0_d_379_2953" x="17" y="21" width="53.9551" height="58" filterUnits="userSpaceOnUse" color-interpolation-filters="sRGB">
<feFlood flood-opacity="0" result="BackgroundImageFix"/>
<feColorMatrix in="SourceAlpha" type="matrix" values="0 0 0 0 0 0 0 0 0 0 0 0 0 0 0 0 0 0 127 0" result="hardAlpha"/>
<feOffset dy="4"/>
<feGaussianBlur stdDeviation="2"/>
<feComposite in2="hardAlpha" operator="out"/>
<feColorMatrix type="matrix" values="0 0 0 0 0 0 0 0 0 0 0 0 0 0 0 0 0 0 0.25 0"/>
<feBlend mode="normal" in2="BackgroundImageFix" result="effect1_dropShadow_379_2953"/>
<feBlend mode="normal" in="SourceGraphic" in2="effect1_dropShadow_379_2953" result="shape"/>
</filter>
</defs>
</svg>
