<svg width="72" height="68" viewBox="0 0 72 68" fill="none" xmlns="http://www.w3.org/2000/svg">
<path d="M27.1403 36L18.089 27.0792C16.6299 25.6396 14.4785 25.2771 12.6852 26.0146C9.69506 27.2708 6.10423 26.7021 3.66446 24.2979C0.46023 21.1417 0.462409 16.0208 3.66664 12.8625C5.67393 10.8854 8.46099 10.1458 11.0493 10.6458C10.5425 8.09375 11.2917 5.34583 13.299 3.36875C16.5032 0.210417 21.6973 0.210417 24.9015 3.36875C27.3413 5.77292 27.9179 9.3125 26.6423 12.2604C25.8932 14.0292 26.2623 16.1479 27.7235 17.5875L36.7727 26.5062" stroke="#372D21" stroke-width="2" stroke-miterlimit="10" stroke-linecap="round" stroke-linejoin="round"/>
<path d="M34.7436 41.3608L44.1669 50.6476C45.6076 52.0671 45.9693 54.1582 45.2329 55.9001C43.9774 58.8047 44.5438 62.2947 46.9491 64.6652C50.1082 67.7793 55.229 67.7772 58.3881 64.6652C60.367 62.7158 61.1057 60.0064 60.6061 57.49C63.16 57.983 65.9078 57.2538 67.8846 55.3044C71.0437 52.1903 71.0437 47.1432 67.8846 44.0291C65.4793 41.6586 61.939 41.0999 58.991 42.3365C57.2231 43.0637 55.102 42.7063 53.6613 41.2868L44.2401 32" stroke="#372D21" stroke-width="2" stroke-miterlimit="10" stroke-linecap="round" stroke-linejoin="round"/>
<path d="M36.7727 26.5L21.554 41L48.4403 26.5L32.7143 41" stroke="#372D21" stroke-width="2"/>
</svg>
