<svg width="119" height="92" viewBox="0 0 119 92" fill="none" xmlns="http://www.w3.org/2000/svg">
<path fill-rule="evenodd" clip-rule="evenodd" d="M18.4746 10.548C17.6462 10.548 16.9746 11.2196 16.9746 12.048V25.8114V27.2985C16.9746 27.3056 16.9804 27.3114 16.9874 27.3114C16.9945 27.3114 17.0003 27.3171 17.0003 27.3242V70C17.0003 71.6568 18.3434 73 20.0003 73H73.0003C74.6571 73 76.0003 71.6568 76.0003 70V26.6681C76.0003 26.6614 76.0057 26.656 76.0124 26.656C76.0192 26.656 76.0246 26.6505 76.0246 26.6438V25.156V12.048C76.0246 11.2196 75.353 10.548 74.5246 10.548H18.4746ZM73.0003 21.879C73.0137 21.879 73.0246 21.8681 73.0246 21.8546V16.548C73.0246 14.8912 71.6815 13.548 70.0246 13.548H22.9746C21.3178 13.548 19.9746 14.8912 19.9746 16.548V21.8533C19.9746 21.8675 19.9861 21.879 20.0003 21.879H73.0003ZM20.0003 27.879C20.0003 26.2221 21.3434 24.879 23.0003 24.879H70.0003C71.6571 24.879 73.0003 26.2221 73.0003 27.879V67C73.0003 68.6568 71.6571 70 70.0003 70H23.0003C21.3434 70 20.0003 68.6568 20.0003 67V27.879Z" fill="black"/>
<g filter="url(#filter0_d_379_2951)">
<path d="M34 4V16" stroke="black" stroke-width="3" stroke-linecap="round"/>
</g>
<g filter="url(#filter1_d_379_2951)">
<path d="M61 4V16" stroke="black" stroke-width="3" stroke-linecap="round"/>
</g>
<circle cx="38.8674" cy="30.8088" r="1.80882" fill="#627D83"/>
<circle cx="38.8674" cy="38.0441" r="1.80882" fill="#627D83"/>
<circle cx="26.8088" cy="38.0441" r="1.80882" fill="#627D83"/>
<circle cx="38.8674" cy="45.2794" r="1.80882" fill="#627D83"/>
<circle cx="26.8088" cy="45.2794" r="1.80882" fill="#627D83"/>
<circle cx="38.8674" cy="52.5147" r="1.80882" fill="#627D83"/>
<circle cx="26.8088" cy="52.5147" r="1.80882" fill="#627D83"/>
<circle cx="44.8967" cy="30.8088" r="1.80882" fill="#627D83"/>
<circle cx="44.8975" cy="38.0441" r="3.01471" fill="#00A81B"/>
<circle cx="32.8381" cy="38.0441" r="1.80882" fill="#627D83"/>
<circle cx="44.8967" cy="45.2794" r="1.80882" fill="#627D83"/>
<circle cx="32.8381" cy="45.2794" r="1.80882" fill="#627D83"/>
<circle cx="44.8967" cy="52.5147" r="1.80882" fill="#627D83"/>
<circle cx="32.8381" cy="52.5147" r="1.80882" fill="#627D83"/>
<circle cx="50.926" cy="30.8088" r="1.80882" fill="#627D83"/>
<circle cx="50.926" cy="38.0441" r="1.80882" fill="#627D83"/>
<circle cx="50.926" cy="45.2794" r="1.80882" fill="#627D83"/>
<circle cx="50.926" cy="52.5147" r="1.80882" fill="#627D83"/>
<circle cx="56.9563" cy="30.8088" r="1.80882" fill="#627D83"/>
<circle cx="56.9563" cy="38.0441" r="1.80882" fill="#627D83"/>
<circle cx="56.9563" cy="45.2794" r="1.80882" fill="#627D83"/>
<circle cx="56.9563" cy="52.5147" r="1.80882" fill="#627D83"/>
<circle cx="62.9856" cy="30.8088" r="1.80882" fill="#627D83"/>
<circle cx="62.9856" cy="38.0441" r="1.80882" fill="#627D83"/>
<circle cx="62.9856" cy="45.2794" r="1.80882" fill="#627D83"/>
<circle cx="62.9856" cy="52.5147" r="1.80882" fill="#627D83"/>
<g filter="url(#filter2_d_379_2951)">
<circle cx="75.8529" cy="60.8529" r="10.8529" fill="#F8F8F8"/>
<circle cx="75.8529" cy="60.8529" r="10.3529" stroke="#FFB800"/>
</g>
<g filter="url(#filter3_d_379_2951)">
<path d="M76 54V59.8333L79 61" stroke="#335860" stroke-width="2" stroke-linecap="round"/>
</g>
<defs>
<filter id="filter0_d_379_2951" x="28.5" y="2.5" width="11" height="23" filterUnits="userSpaceOnUse" color-interpolation-filters="sRGB">
<feFlood flood-opacity="0" result="BackgroundImageFix"/>
<feColorMatrix in="SourceAlpha" type="matrix" values="0 0 0 0 0 0 0 0 0 0 0 0 0 0 0 0 0 0 127 0" result="hardAlpha"/>
<feOffset dy="4"/>
<feGaussianBlur stdDeviation="2"/>
<feComposite in2="hardAlpha" operator="out"/>
<feColorMatrix type="matrix" values="0 0 0 0 0 0 0 0 0 0 0 0 0 0 0 0 0 0 0.25 0"/>
<feBlend mode="normal" in2="BackgroundImageFix" result="effect1_dropShadow_379_2951"/>
<feBlend mode="normal" in="SourceGraphic" in2="effect1_dropShadow_379_2951" result="shape"/>
</filter>
<filter id="filter1_d_379_2951" x="55.5" y="2.5" width="11" height="23" filterUnits="userSpaceOnUse" color-interpolation-filters="sRGB">
<feFlood flood-opacity="0" result="BackgroundImageFix"/>
<feColorMatrix in="SourceAlpha" type="matrix" values="0 0 0 0 0 0 0 0 0 0 0 0 0 0 0 0 0 0 127 0" result="hardAlpha"/>
<feOffset dy="4"/>
<feGaussianBlur stdDeviation="2"/>
<feComposite in2="hardAlpha" operator="out"/>
<feColorMatrix type="matrix" values="0 0 0 0 0 0 0 0 0 0 0 0 0 0 0 0 0 0 0.25 0"/>
<feBlend mode="normal" in2="BackgroundImageFix" result="effect1_dropShadow_379_2951"/>
<feBlend mode="normal" in="SourceGraphic" in2="effect1_dropShadow_379_2951" result="shape"/>
</filter>
<filter id="filter2_d_379_2951" x="61" y="50" width="29.7061" height="29.7059" filterUnits="userSpaceOnUse" color-interpolation-filters="sRGB">
<feFlood flood-opacity="0" result="BackgroundImageFix"/>
<feColorMatrix in="SourceAlpha" type="matrix" values="0 0 0 0 0 0 0 0 0 0 0 0 0 0 0 0 0 0 127 0" result="hardAlpha"/>
<feOffset dy="4"/>
<feGaussianBlur stdDeviation="2"/>
<feComposite in2="hardAlpha" operator="out"/>
<feColorMatrix type="matrix" values="0 0 0 0 0 0 0 0 0 0 0 0 0 0 0 0 0 0 0.25 0"/>
<feBlend mode="normal" in2="BackgroundImageFix" result="effect1_dropShadow_379_2951"/>
<feBlend mode="normal" in="SourceGraphic" in2="effect1_dropShadow_379_2951" result="shape"/>
</filter>
<filter id="filter3_d_379_2951" x="71" y="53" width="13" height="17.0003" filterUnits="userSpaceOnUse" color-interpolation-filters="sRGB">
<feFlood flood-opacity="0" result="BackgroundImageFix"/>
<feColorMatrix in="SourceAlpha" type="matrix" values="0 0 0 0 0 0 0 0 0 0 0 0 0 0 0 0 0 0 127 0" result="hardAlpha"/>
<feOffset dy="4"/>
<feGaussianBlur stdDeviation="2"/>
<feComposite in2="hardAlpha" operator="out"/>
<feColorMatrix type="matrix" values="0 0 0 0 0 0 0 0 0 0 0 0 0 0 0 0 0 0 0.25 0"/>
<feBlend mode="normal" in2="BackgroundImageFix" result="effect1_dropShadow_379_2951"/>
<feBlend mode="normal" in="SourceGraphic" in2="effect1_dropShadow_379_2951" result="shape"/>
</filter>
</defs>
</svg>
