<svg width="87" height="69" viewBox="0 0 87 69" fill="none" xmlns="http://www.w3.org/2000/svg">
<g clip-path="url(#clip0_420_2573)">
<g filter="url(#filter0_d_420_2573)">
<path d="M4.37606 32.6834C4.38258 32.6493 4.3811 32.5962 4.33175 32.5538C4.30549 32.5315 4.27479 32.5203 4.25081 32.5142C4.21665 32.5056 4.17974 32.5037 4.14697 32.5037C4.06652 32.5037 3.95844 32.5169 3.85095 32.53C3.70249 32.5482 3.54081 32.5675 3.39088 32.5675C3.32267 32.5675 3.2593 32.5635 3.20304 32.554C3.14204 32.5438 3.08736 32.5272 3.03978 32.5059C2.8242 32.4094 2.75462 32.2277 2.84158 32.0871C2.85253 32.0696 2.86615 32.0515 2.88293 32.033C2.96299 31.9444 3.09456 31.8586 3.25338 31.7564C3.42227 31.6477 3.61751 31.5229 3.7555 31.3699C3.87819 31.2341 3.95202 31.08 4.01816 30.9434C4.11321 30.7474 4.19277 30.5893 4.3585 30.4837C4.63951 30.3047 5.18625 30.2594 5.63763 30.2303C5.6552 30.2293 5.66981 30.2284 5.68689 30.2272L5.73367 30.2242C5.74601 30.2233 5.79309 30.2205 5.80425 30.2196C5.96701 30.2091 6.09434 30.2007 6.20539 30.2007C6.36549 30.2007 6.48404 30.2181 6.6089 30.2691C6.6774 30.2971 6.74916 30.3358 6.83217 30.3806C7.02386 30.4843 7.26994 30.62 7.57168 30.6244C7.57593 30.6244 7.58284 30.6247 7.58708 30.6247C8.01714 30.6247 8.5091 30.3646 8.76238 29.7673C9.01398 29.1733 9.0356 28.2327 8.98358 27.4933C8.93097 26.745 8.80097 26.1776 8.43378 25.4572C8.37081 25.3337 8.30063 25.2053 8.22838 25.0732C7.88201 24.4392 7.47446 23.6916 7.41326 22.7004C7.38532 22.2441 7.43043 21.7333 7.50969 21.1952C7.57464 20.7553 7.6618 20.2997 7.74925 19.8429C7.83621 19.3889 7.92347 18.9336 7.98812 18.495C8.19718 17.0772 8.17043 15.834 7.96996 14.8883C7.81193 14.1418 7.54612 13.5838 7.31051 13.1301C7.27685 13.0653 7.24684 13.0083 7.21466 12.9475C7.18564 12.8925 7.15642 12.8371 7.12938 12.785C6.86504 12.2764 6.70307 11.8905 6.56774 11.4677C6.43222 11.0447 6.32374 10.5842 6.26205 10.0024C6.20006 9.41775 6.18673 8.71918 6.31999 8.16344C6.45225 7.61225 6.7307 7.1956 7.04558 6.83071C7.36124 6.46523 7.69467 6.17378 8.24861 6.05614C8.45254 6.01296 8.68983 5.99247 8.9361 5.99247C9.36991 5.99247 9.81952 6.0557 10.1496 6.15983C10.3891 6.23553 10.569 6.33357 10.7275 6.42014C10.8924 6.51017 11.0625 6.60755 11.2498 6.60755C11.2563 6.60755 11.2624 6.60733 11.2689 6.60711C11.2749 6.60688 11.2808 6.60666 11.2865 6.60622C11.401 6.59866 11.5162 6.55519 11.6381 6.51054C11.8978 6.41567 12.2952 6.26983 13.0894 6.21732C13.3271 6.20176 13.601 6.19434 13.897 6.19434C15.0998 6.19434 16.6443 6.31536 17.5554 6.47801C18.279 6.60725 18.5999 6.76212 18.8115 6.86375C18.9272 6.91934 19.0348 6.97265 19.164 6.98639C19.1877 6.98888 19.2117 6.98998 19.2358 6.98998C19.2977 6.98998 19.3609 6.98235 19.4243 6.97052C19.5469 6.94739 19.6832 6.90561 19.8265 6.86199C20.0167 6.80405 20.229 6.73958 20.4738 6.69361C20.7591 6.64008 21.0916 6.61122 21.4055 6.61122C21.7154 6.61122 21.9989 6.63927 22.198 6.69471C22.5498 6.79245 22.6508 6.97566 22.8292 7.3548C22.823 7.3418 22.8522 7.40437 22.8463 7.39152C22.8502 7.39996 22.8602 7.42104 22.8644 7.42992C22.877 7.45672 22.8908 7.48624 22.9042 7.51444C23.1008 7.93088 23.3591 8.47957 23.4829 9.05139C23.6147 9.66074 23.5944 10.3017 23.4559 11.0231C23.3175 11.7435 23.0621 12.5387 22.5365 13.4347C22.3531 13.7478 22.1357 14.0743 21.9172 14.4026C21.5122 15.0115 21.0977 15.633 20.9051 16.1728C20.7216 16.6875 20.7404 17.1245 20.8124 17.5808C20.8343 17.7192 20.8608 17.8586 20.8885 18.0032C20.9183 18.1595 20.9491 18.3211 20.9763 18.4923C21.0129 18.7254 21.0431 18.9783 21.0736 19.2351C21.1536 19.907 21.2374 20.6249 21.4668 21.0599C21.7467 21.591 22.2397 21.7037 22.849 21.8015C22.9056 21.8106 22.9665 21.8201 23.026 21.8294C23.0894 21.8391 23.1542 21.8492 23.2207 21.8599C23.4831 21.9021 23.7708 21.9538 24.0975 22.0124C24.7666 22.1323 25.5924 22.2805 26.6651 22.4301C26.9577 22.471 27.2667 22.5115 27.5927 22.5545C29.0461 22.7457 30.8093 22.9775 32.6744 23.4265C34.9582 23.9763 37.3988 24.8522 39.848 25.7316L39.8451 25.7312C41.581 26.3991 43.3105 27.0649 44.7258 27.7232C46.1388 28.3801 47.228 29.0253 48.1928 30.0743C48.8914 30.8339 49.5271 31.8077 50.2013 32.8956C50.3323 33.1068 50.4562 33.3087 50.5903 33.5271C50.723 33.7431 50.8655 33.9752 51.003 34.1973C51.995 35.7979 53.1301 37.5312 55.0902 39.2615C56.0153 40.078 57.1232 40.8931 58.2031 41.6876C59.4108 42.5762 60.5819 43.4381 61.4394 44.2556C61.443 44.2593 61.4572 44.2725 61.4607 44.2759C62.3097 45.0897 62.8513 45.8611 63.366 46.5946C63.8233 47.2466 64.2614 47.8715 64.8748 48.4591C65.3299 48.8951 65.8799 49.3094 66.4282 49.7223C67.4608 50.5 68.481 51.2713 68.944 52.2058C69.6518 53.635 69.0611 55.4763 67.8408 56.63C67.0728 57.3561 66.0679 57.7975 65.1768 57.7975C64.6573 57.7975 64.1751 57.6477 63.7921 57.3158C62.7259 56.3914 62.3963 54.0554 62.2631 52.8928C62.2554 52.8271 62.2504 52.7813 62.2437 52.7219C62.1357 51.7581 62.1204 51.7237 61.141 50.6968L61.0895 50.6428L61.035 50.5857C59.8998 49.3956 57.5646 46.9307 56.1292 45.4117C54.6943 43.8928 54.159 43.32 53.4524 42.5582L53.4273 42.5312C52.7366 41.7866 51.8507 40.8268 51.3017 40.596C51.2041 40.5548 51.1097 40.5327 51.019 40.5327C50.5384 40.5327 50.4279 41.1033 50.4034 41.5192C50.3704 42.0808 50.4784 42.6765 50.7135 43.3128C50.7882 43.5149 50.8751 43.7202 50.9644 43.9306C51.1562 44.383 51.357 44.8573 51.4722 45.3792C51.6411 46.1454 51.6273 47.0204 51.5713 47.7181C51.5155 48.4128 51.4194 48.9105 51.0463 49.4696C50.6684 50.0357 50.0033 50.6697 49.4102 51.1068C49.2016 51.2607 49.0016 51.3903 48.8163 51.5107C48.4816 51.7276 48.1806 51.9211 47.9915 52.1687C47.9095 52.2763 47.8501 52.3917 47.8038 52.5085C47.7421 52.6636 47.7019 52.8255 47.6648 52.9759C47.6289 53.1212 47.5952 53.2561 47.5474 53.3762C47.4139 53.7125 47.1658 53.9436 46.8218 54.068C46.6204 54.1407 46.3838 54.1776 46.1802 54.1776C46.0271 54.1776 45.9067 54.1567 45.8353 54.1246C45.7065 54.0669 45.6961 53.9409 45.7942 53.6401C45.8062 53.6039 45.8202 53.563 45.8336 53.5244C45.9033 53.3223 46.052 52.9545 45.8274 52.8073C45.7484 52.7557 45.6431 52.7437 45.5483 52.7437C45.4241 52.7437 45.2775 52.765 45.133 52.7905C45.0589 52.8036 44.984 52.8179 44.91 52.8322C44.8372 52.8463 44.7655 52.8601 44.6974 52.872C44.3161 52.9394 44.0201 52.9544 43.6772 52.969C43.5966 52.9724 43.5169 52.9757 43.4388 52.9757C43.172 52.9757 42.9872 52.9367 42.9007 52.8037C42.8775 52.7679 42.8587 52.7219 42.8436 52.6665C42.8029 52.5154 42.8012 52.3276 42.8 52.1779C42.7994 52.0996 42.8 52.0165 42.7873 51.9695C42.7868 51.9679 42.7862 51.9658 42.786 51.9649C42.7818 51.9505 42.7546 51.8652 42.6498 51.8652C42.6384 51.8652 42.6283 51.8662 42.6193 51.8681C42.5815 51.8755 42.5555 51.8952 42.5446 51.9037C42.5166 51.9258 42.4877 51.9611 42.4673 51.9851C42.4089 52.054 42.3732 52.0901 42.3523 52.0964C42.3533 52.0962 42.3549 52.0962 42.3561 52.0962C42.3571 52.0962 42.3578 52.0962 42.3578 52.0962C42.3139 52.0887 42.1958 51.9546 42.1374 51.7539C42.085 51.5735 42.1066 51.4109 42.3127 51.1844C42.4185 51.0681 42.5709 50.9371 42.7079 50.8199C42.8255 50.719 42.9544 50.6109 42.993 50.5455C42.9978 50.5375 43.0032 50.5276 43.007 50.5156C43.0101 50.506 43.0129 50.4939 43.0129 50.4804C43.0129 50.3708 42.8832 50.3617 42.8636 50.3611C42.8607 50.3611 42.858 50.3611 42.8557 50.3611C42.8528 50.3611 42.8508 50.3611 42.8478 50.3611C42.7909 50.3626 42.7068 50.3807 42.6332 50.3961C42.5111 50.4215 42.3763 50.4492 42.2598 50.4519C42.2537 50.4521 42.2463 50.4523 42.2401 50.4523C42.0025 50.4523 41.8613 50.3486 41.8289 50.2384C41.7927 50.1161 41.8676 49.9355 42.116 49.6168C42.3576 49.3069 42.7213 48.9183 43.2282 48.722C43.52 48.6091 43.8659 48.5576 44.1832 48.5576C44.4169 48.5576 44.6287 48.5857 44.7867 48.6333C44.8819 48.6622 44.9592 48.6987 45.0243 48.7383C45.1294 48.8024 45.2052 48.8759 45.2801 48.9488C45.3368 49.0042 45.3994 49.0662 45.4723 49.1105C45.5553 49.1611 45.6504 49.1889 45.7582 49.1889C45.948 49.1889 46.1617 49.1029 46.4152 48.947C46.7543 48.7386 47.4182 48.2443 47.2889 47.9646C47.242 47.8626 47.1158 47.8198 47.0043 47.7941C46.8838 47.7662 46.7211 47.7462 46.5301 47.7224C46.2018 47.6815 45.7645 47.6271 45.2281 47.503C44.0536 47.2313 42.402 46.6255 41.0973 45.7713C39.7938 44.9177 38.8327 43.8134 38.3003 42.9197C38.2567 42.8464 38.2154 42.7735 38.177 42.7029C37.9422 42.2697 37.8026 41.8872 37.6749 41.5382C37.5714 41.2543 37.4743 40.9881 37.3402 40.7408C37.0155 40.1414 36.4786 39.6606 36.2177 39.463C36.1085 39.3801 36.0392 39.3411 35.8987 39.292C35.8351 39.2699 35.7545 39.2448 35.6495 39.2121C35.4199 39.1404 35.056 39.0271 34.4284 38.8081C33.8874 38.6194 33.1512 38.3524 32.3283 38.054C30.8464 37.5166 29.0853 36.8779 27.6933 36.4167C26.7714 36.1111 26.0123 35.8838 25.3786 35.6942C24.5208 35.4372 23.9032 35.252 23.4226 35.0374C23.0433 34.8679 22.748 34.6795 22.5082 34.5264C22.2716 34.3754 22.0458 34.2243 21.8522 34.2243C21.8265 34.2243 21.8005 34.2268 21.7746 34.2323C21.549 34.2806 21.4342 34.5394 21.3398 34.7934C21.2989 34.904 21.2576 35.0286 21.2135 35.1613C21.1612 35.319 21.1049 35.4887 21.0391 35.6666C20.9171 35.9946 20.7622 36.3501 20.5963 36.7126C20.4994 36.9246 20.3974 37.1417 20.2978 37.3538C20.2 37.5622 20.103 37.7681 20.0114 37.9685C19.9683 38.0628 19.9257 38.1574 19.8846 38.2487C19.596 38.8878 19.342 39.449 18.9159 39.9744C18.706 40.2337 18.4529 40.4854 18.1995 40.7372C17.8668 41.068 17.5306 41.4016 17.3146 41.7397C17.0655 42.13 16.979 42.5209 16.9311 42.8707C16.9177 42.9676 16.9075 43.061 16.8977 43.151C16.8883 43.2356 16.8796 43.315 16.8689 43.3921C16.8055 43.8561 16.6836 44.1591 16.4299 44.3056C16.3088 44.3756 16.1501 44.4145 15.9951 44.4145C15.8207 44.4145 15.6691 44.3659 15.5801 44.278C15.5613 44.2596 15.5442 44.2384 15.5283 44.2143C15.4617 44.1126 15.4277 43.9759 15.3896 43.8179C15.3534 43.668 15.313 43.4965 15.2241 43.3607C15.0702 43.1261 14.7841 43.0093 14.5007 43.0093C14.4014 43.0093 14.3011 43.0235 14.2059 43.0524M4.37606 32.6834L4.25821 32.6676L4.13956 32.6513M4.37606 32.6834C4.36373 32.7513 4.30075 32.8359 4.25624 32.8987C4.15615 33.0401 4.08034 33.1583 4.0986 33.2411C4.13256 33.3937 4.5337 33.5356 4.96998 33.6018C5.10452 33.6222 5.22415 33.6325 5.3349 33.6325C5.54267 33.6325 5.7241 33.596 5.9143 33.5149C5.99732 33.4795 6.0826 33.4357 6.16847 33.3912C6.24408 33.3522 6.32157 33.312 6.39194 33.2818C6.45739 33.2538 6.53556 33.2262 6.61018 33.2262C6.61739 33.2262 6.62548 33.2267 6.63318 33.2273C6.70257 33.2326 6.76347 33.264 6.7994 33.3215C6.80167 33.3249 6.80385 33.3289 6.80562 33.3323C6.85912 33.4313 6.83563 33.6184 6.82003 33.7728C6.79792 33.988 6.77719 34.2099 6.82842 34.3642C6.90403 34.5905 7.158 34.6884 7.44188 34.6884C7.47268 34.6884 7.50308 34.6871 7.53329 34.6848C7.83523 34.6619 8.09196 34.5276 8.24506 34.3569C8.30231 34.2934 8.34643 34.2235 8.38907 34.1554C8.42026 34.1057 8.45422 34.0508 8.49133 34.0095C8.51117 33.9876 8.53614 33.9642 8.56812 33.9463C8.59902 33.9288 8.63751 33.9164 8.68183 33.9164C8.70039 33.9164 8.71845 33.9187 8.73582 33.9227C8.74175 33.9242 8.74688 33.9254 8.75241 33.9269C8.84608 33.9551 8.94271 34.0472 9.01427 34.1121C9.12473 34.2122 9.22965 34.305 9.33537 34.3436M9.33537 34.3436L9.28809 34.3354M9.33537 34.3436C9.37702 34.3587 9.42055 34.3659 9.46566 34.3659C9.6154 34.3659 9.78409 34.2877 9.91507 34.177C10.0345 34.0763 10.1128 33.9574 10.2508 33.745C10.3048 33.6617 10.3674 33.5652 10.444 33.4533C10.7121 33.061 11.1525 32.4763 11.4159 32.1423C11.6832 31.8036 11.7813 31.7066 12.0794 31.549C12.3611 31.4 12.8404 31.1845 13.2396 31.0878M13.2396 31.0878L13.2488 31.0859M13.2396 31.0878C13.3959 31.0501 13.5433 31.0296 13.6761 31.0296C13.8838 31.0296 14.0725 31.0804 14.1879 31.2105C14.317 31.3552 14.3291 31.5831 14.3621 32.0148C14.3747 32.1775 14.3895 32.3727 14.4124 32.6123C14.462 33.1378 14.5481 33.8694 14.6351 34.6108C14.6983 35.1483 14.7627 35.6944 14.8128 36.1606C14.9317 37.2663 14.9775 37.9667 14.8658 38.495C14.7568 39.0102 14.486 39.4081 14.1652 39.4873C14.1243 39.4973 14.0836 39.5019 14.0433 39.5019C13.8743 39.5019 13.7113 39.4182 13.5629 39.3453C13.4554 39.2924 13.3426 39.2369 13.2126 39.1914C12.974 39.1079 12.6719 39.0554 12.4064 39.0554C12.2617 39.0554 12.1344 39.071 12.0366 39.1017C11.7939 39.1779 11.7407 39.3334 11.7705 39.4017C11.7759 39.4142 11.7839 39.4255 11.7952 39.4356C11.8361 39.4721 11.9178 39.4989 12.0194 39.5292C12.0652 39.5429 12.1311 39.5617 12.1735 39.5863M12.1735 39.5863L12.1063 39.6702L12.0386 39.7535M12.1735 39.5863C12.1836 39.592 12.195 39.5996 12.2058 39.6095C12.2772 39.6731 12.25 39.7518 12.1948 39.7963C12.1796 39.8085 12.1628 39.8188 12.1457 39.8279C12.0399 39.884 11.783 39.96 11.5264 40.0368C11.2569 40.1173 10.9694 40.2035 10.7758 40.2819C10.426 40.4237 10.4703 40.4985 10.4839 40.5234C10.4898 40.5339 10.4987 40.5462 10.5112 40.5601C10.5369 40.589 10.5727 40.6193 10.6194 40.6581C10.6677 40.6985 10.7261 40.7473 10.7755 40.8022C10.8485 40.8843 10.9095 40.989 10.8966 41.1215C10.8843 41.2492 10.8005 41.3938 10.7296 41.5195C10.6431 41.6725 10.5663 41.8114 10.5542 41.9357C10.5535 41.9421 10.5533 41.9479 10.553 41.9539C10.5433 42.1733 10.7666 42.3763 11.0795 42.3901C11.0914 42.3907 11.103 42.391 11.1153 42.391C11.2922 42.391 11.4909 42.3381 11.65 42.295C11.7231 42.2752 11.8071 42.2516 11.8623 42.2487C11.8663 42.2485 11.8713 42.2485 11.876 42.2485C11.895 42.2485 12.0038 42.2536 12.0197 42.3473C12.0254 42.3821 12.0112 42.4112 12.005 42.4228C11.983 42.4656 11.9275 42.525 11.8811 42.5756C11.7454 42.7242 11.6049 42.8869 11.6074 43.0002C11.6108 43.1571 11.9303 43.2911 12.3684 43.4237C12.6434 43.507 12.8772 43.5671 13.0831 43.5671C13.1727 43.5671 13.2546 43.5555 13.3312 43.5304C13.457 43.4893 13.5772 43.4092 13.7171 43.3148C13.8532 43.2229 14.0081 43.1169 14.1846 43.0591C14.1917 43.0568 14.1984 43.0547 14.2059 43.0524M14.2059 43.0524L14.2081 43.0517M42.856 50.564C42.8793 50.5646 42.7738 50.5659 42.7738 50.4801C42.7738 50.4712 42.7755 50.4645 42.7768 50.4605C42.7782 50.4559 42.7799 50.4531 42.7794 50.4537C42.763 50.4818 42.6766 50.5576 42.5381 50.6765C42.4041 50.7912 42.2403 50.9314 42.1233 51.0599C41.8766 51.3312 41.834 51.5569 41.9054 51.8025C41.9577 51.982 42.1001 52.2584 42.3095 52.2948C42.3246 52.2976 42.3399 52.299 42.3558 52.299C42.3725 52.299 42.3892 52.2973 42.4056 52.2942C42.4146 52.2925 42.423 52.2902 42.4314 52.2877C42.539 52.255 42.6224 52.1489 42.6609 52.1034C42.6881 52.0714 42.701 52.0571 42.7075 52.0518C42.7112 52.0489 42.6989 52.0607 42.6728 52.0657C42.6664 52.0669 42.6587 52.068 42.6498 52.068C42.5624 52.068 42.549 51.9961 42.5542 52.0138C42.5594 52.0328 42.5607 52.0851 42.5611 52.1789C42.5624 52.3232 42.5634 52.5346 42.6109 52.7115C42.6288 52.7781 42.6543 52.8439 42.6917 52.9016C42.8503 53.1456 43.1729 53.1786 43.4389 53.1786C43.5236 53.1786 43.6091 53.175 43.6891 53.1716C44.0339 53.1571 44.3456 53.1413 44.746 53.0707C44.8168 53.0583 44.8904 53.0441 44.963 53.03C45.0369 53.0156 45.1104 53.0016 45.1816 52.9889C45.3245 52.9638 45.4505 52.9465 45.5482 52.9465C45.6291 52.9465 45.6673 52.9588 45.6817 52.968C45.7409 53.0068 45.7075 53.1683 45.6044 53.4667C45.591 53.5055 45.5766 53.5472 45.5642 53.5854C45.4797 53.8433 45.4013 54.1591 45.7238 54.3038C45.8445 54.3582 46.0097 54.3803 46.1802 54.3803C46.4135 54.3803 46.6821 54.3386 46.9152 54.2545C47.3271 54.1057 47.6202 53.8272 47.7736 53.4407C47.8268 53.3071 47.863 53.16 47.8984 53.0175C47.9362 52.8649 47.9735 52.715 48.0299 52.5732C48.0718 52.4676 48.1236 52.3685 48.192 52.2789C48.3535 52.0668 48.6163 51.8952 48.961 51.6717C49.1461 51.5518 49.3515 51.4186 49.5665 51.26C50.1737 50.8124 50.8589 50.1611 51.2539 49.5695C51.6535 48.9709 51.7528 48.4374 51.8096 47.7314C51.866 47.028 51.8814 46.1327 51.7068 45.3412C51.5877 44.8009 51.38 44.3118 51.189 43.8612C51.0996 43.6506 51.0141 43.4485 50.9413 43.2514C50.7129 42.6324 50.6107 42.0612 50.642 41.5289C50.6714 41.0293 50.8072 40.7355 51.019 40.7355C51.0639 40.7355 51.1218 40.7464 51.1959 40.7776C51.6825 40.9823 52.5253 41.8863 53.2397 42.6566L53.2648 42.6837C53.9714 43.4452 54.5087 44.0204 55.9431 45.5385C57.3761 47.055 59.7168 49.5255 60.8497 50.7133L60.9042 50.7702L60.9557 50.8244C61.9152 51.8305 61.9038 51.8281 62.0059 52.7405C62.0126 52.8008 62.0175 52.845 62.0252 52.9121C62.1553 54.045 62.4831 56.4703 63.6217 57.4575C64.0542 57.8325 64.5998 58 65.1767 58C66.154 58 67.2191 57.5209 68.0183 56.7654C69.2849 55.568 69.916 53.6447 69.1637 52.1263C68.6757 51.1407 67.6072 50.3386 66.5863 49.5695C66.0356 49.1547 65.497 48.7489 65.0533 48.3236C64.4573 47.7524 64.0296 47.1437 63.5708 46.4899C63.0563 45.7566 62.5048 44.9702 61.639 44.1404L61.6173 44.12C60.7475 43.2907 59.5633 42.4194 58.359 41.5333C57.2774 40.7376 56.178 39.9285 55.262 39.1199C53.3265 37.4112 52.2036 35.6991 51.2142 34.1019C51.0772 33.8805 50.9345 33.6483 50.8019 33.4324C50.6685 33.2154 50.5427 33.0107 50.4124 32.8001C49.7388 31.7132 49.0942 30.7241 48.3809 29.9484C47.388 28.8689 46.2672 28.2077 44.8402 27.5441C43.4157 26.8817 41.6768 26.2123 39.9436 25.5454L39.9406 25.5444C37.4951 24.6664 35.0403 23.7849 32.7389 23.2309C30.8581 22.7781 29.0815 22.5444 27.6287 22.3535C27.3023 22.3104 26.9953 22.2702 26.7034 22.2295C25.6365 22.0807 24.8152 21.9334 24.1465 21.8134C23.8202 21.7548 23.5299 21.7028 23.2648 21.6602C23.1972 21.6492 23.1323 21.6391 23.0687 21.6292C23.009 21.6202 22.949 21.6107 22.893 21.6018C22.2882 21.5047 21.9109 21.4065 21.6844 20.9767C21.475 20.579 21.3926 19.902 21.3109 19.2144C21.2804 18.9586 21.2499 18.702 21.2125 18.4651C21.185 18.2913 21.1536 18.126 21.1239 17.9705C21.0963 17.8255 21.0701 17.6885 21.0487 17.5536C20.9792 17.1118 20.9639 16.7076 21.1335 16.2314C21.3163 15.7181 21.715 15.1181 22.1247 14.5025C22.3425 14.1753 22.5633 13.8436 22.75 13.5251C23.2874 12.6085 23.5496 11.7935 23.6912 11.0555C23.8329 10.3185 23.8558 9.6531 23.7175 9.01446C23.5887 8.41965 23.3208 7.85289 23.1253 7.43851C23.1111 7.40855 23.0991 7.38263 23.0856 7.35414C23.0799 7.34195 23.073 7.32756 23.0676 7.31581C23.0738 7.32866 23.0443 7.26602 23.0504 7.27909C22.8737 6.9037 22.7393 6.63141 22.2715 6.50136C22.0383 6.43645 21.727 6.40773 21.4049 6.40773C21.0754 6.40773 20.7256 6.43792 20.4219 6.49505C20.1603 6.54388 19.9348 6.61283 19.7453 6.67055C19.5977 6.71557 19.477 6.75214 19.3722 6.77182C19.3199 6.78173 19.2746 6.78658 19.2352 6.78658C19.2201 6.78658 19.206 6.78591 19.1929 6.78445C19.1195 6.77666 19.0547 6.74714 18.928 6.68641C18.7021 6.57788 18.3582 6.41346 17.6039 6.27901C16.6729 6.11268 15.1114 5.99086 13.8964 5.99086C13.5961 5.99086 13.3159 5.99827 13.0704 6.01443C12.241 6.06921 11.817 6.22349 11.5433 6.32365C11.4085 6.373 11.3337 6.39892 11.2675 6.40333C11.2646 6.40355 11.2614 6.40355 11.2587 6.40377C11.2557 6.40377 11.2521 6.40399 11.2492 6.40399C11.1471 6.40399 11.0419 6.35053 10.856 6.2489C10.6972 6.1621 10.4982 6.05313 10.2319 5.96905C9.87075 5.85523 9.39232 5.78906 8.93551 5.78906C8.67512 5.78906 8.41769 5.8105 8.19028 5.85882C7.55549 5.9935 7.17992 6.331 6.85271 6.71013C6.525 7.09 6.22701 7.53346 6.08546 8.12254C5.9453 8.70707 5.96089 9.42869 6.02357 10.0206C6.08645 10.6149 6.19799 11.0872 6.33667 11.5208C6.47565 11.955 6.64187 12.3506 6.91015 12.867C6.93661 12.9176 6.96809 12.9774 6.99613 13.0306C7.02781 13.0909 7.05831 13.1484 7.09128 13.212C7.32393 13.6595 7.58106 14.2006 7.73415 14.9241C7.92939 15.845 7.95713 17.0664 7.75054 18.4695C7.68638 18.9039 7.59991 19.3552 7.51295 19.81C7.4255 20.2661 7.33745 20.7254 7.27211 21.1697C7.19216 21.7125 7.14507 22.2371 7.17429 22.7109C7.23796 23.7451 7.66456 24.5243 8.01122 25.1588C8.08377 25.2913 8.15237 25.4169 8.21406 25.5379C8.56812 26.2329 8.69318 26.776 8.74451 27.5051C8.79653 28.2432 8.77047 29.1467 8.53693 29.6981C8.3104 30.2322 7.89544 30.4212 7.58629 30.4212C7.58333 30.4212 7.57839 30.421 7.57524 30.421C7.35098 30.4179 7.16067 30.3176 6.9596 30.209C6.87926 30.1656 6.79536 30.12 6.71205 30.086C6.54583 30.0178 6.38879 29.9972 6.2047 29.9972C6.0828 29.9972 5.9449 30.0065 5.7853 30.0168C5.76921 30.0179 5.73229 30.0204 5.71492 30.0214L5.66833 30.0243C5.65964 30.0249 5.62776 30.0271 5.61878 30.0275C5.19365 30.055 4.56371 30.0985 4.21458 30.3206C3.98766 30.4652 3.88707 30.679 3.79666 30.8655C3.72855 31.0061 3.66568 31.1349 3.56559 31.2457C3.45089 31.3728 3.28339 31.4815 3.10877 31.5939C2.95835 31.6906 2.79657 31.7937 2.69302 31.9088C2.66924 31.9351 2.64762 31.9627 2.62956 31.992C2.46748 32.2543 2.62334 32.5491 2.92785 32.6853C2.99674 32.716 3.07324 32.7389 3.15655 32.7529C3.23216 32.7656 3.31162 32.7702 3.39019 32.7702C3.55986 32.7702 3.73901 32.7483 3.88392 32.7306C3.99911 32.7166 4.08686 32.7061 4.14628 32.7061C4.17006 32.7061 4.18043 32.708 4.1827 32.7087C4.18398 32.7089 4.17322 32.7066 4.16108 32.6962C4.13532 32.6739 4.14006 32.6496 4.13956 32.6513M42.856 50.564C42.8558 50.564 42.8566 50.564 42.856 50.564ZM42.856 50.564H42.8545C42.8297 50.5647 42.7777 50.5748 42.6897 50.5931C42.5732 50.6173 42.4129 50.6513 42.2666 50.6549C42.2582 50.655 42.2485 50.6552 42.2397 50.6552C41.9237 50.6552 41.6627 50.5113 41.5968 50.2875C41.5317 50.0664 41.6766 49.8122 41.9166 49.5043C42.1639 49.1872 42.5582 48.7577 43.1289 48.5371C43.4576 48.4097 43.8385 48.3543 44.1828 48.3543C44.436 48.3543 44.6761 48.3843 44.8663 48.4418C44.9835 48.4771 45.0806 48.5229 45.1629 48.5729C45.2934 48.6525 45.3856 48.743 45.4596 48.8153C45.5213 48.8756 45.5652 48.9173 45.6107 48.9451C45.6551 48.9721 45.7016 48.9856 45.7577 48.9856C45.8682 48.9856 46.0292 48.9331 46.2747 48.7823C46.7069 48.5167 47.1109 48.1349 47.0663 48.0386C47.0663 48.0386 47.0541 48.0161 46.9412 47.9899C46.8381 47.9661 46.6925 47.9478 46.4953 47.9233C46.1656 47.8822 45.7166 47.8263 45.1652 47.6988C43.9661 47.4214 42.2849 46.8054 40.9513 45.9319C39.6165 45.0578 38.6337 43.9289 38.0868 43.0112C38.0418 42.9352 37.9995 42.861 37.9598 42.7876C37.7177 42.3412 37.5741 41.9473 37.4467 41.5982C37.3419 41.3116 37.2495 41.0584 37.1232 40.8256C36.817 40.2605 36.3054 39.8014 36.0586 39.6145C35.9677 39.5454 35.9211 39.5192 35.8076 39.4798C35.7487 39.4591 35.6743 39.4359 35.5671 39.4027C35.3359 39.3306 34.9685 39.2161 34.3373 38.9959C33.7952 38.8068 33.0557 38.5385 32.2342 38.2407C30.7513 37.7029 28.9943 37.0657 27.6064 36.6058C26.6883 36.3016 25.9327 36.0753 25.2989 35.8855C24.4474 35.6305 23.8107 35.4399 23.3113 35.2169C22.9131 35.0392 22.6045 34.8418 22.3644 34.6887C22.0884 34.5123 21.944 34.4272 21.8518 34.4272C21.8441 34.4272 21.8379 34.4277 21.8325 34.4291C21.7636 34.4436 21.6782 34.5557 21.5674 34.8542C21.5276 34.9612 21.4874 35.0828 21.4431 35.2163C21.3908 35.3739 21.3338 35.5459 21.2664 35.7274C21.1423 36.0618 20.9852 36.4218 20.8185 36.786C20.7211 36.9989 20.6188 37.2171 20.5192 37.4289C20.4214 37.6371 20.3247 37.843 20.2338 38.0418C20.1905 38.1365 20.1486 38.229 20.107 38.3211C19.8204 38.9565 19.557 39.541 19.1123 40.0896C18.8938 40.359 18.6324 40.6187 18.3805 40.8691C18.0433 41.2044 17.7257 41.521 17.524 41.8365C17.2961 42.1933 17.2144 42.5544 17.1678 42.894C17.1549 42.9885 17.145 43.0789 17.1348 43.1696C17.1257 43.2536 17.1168 43.3355 17.1058 43.4152C17.0424 43.8778 16.9148 44.2705 16.5637 44.4732C16.3992 44.5683 16.1929 44.6174 15.9947 44.6174C15.7747 44.6174 15.547 44.5564 15.3988 44.4104C15.3678 44.38 15.3418 44.3471 15.3192 44.3128C15.231 44.1781 15.1912 44.0076 15.155 43.8584C15.1169 43.6996 15.0824 43.5622 15.015 43.4593C14.909 43.2973 14.709 43.2119 14.5003 43.2119C14.4274 43.2119 14.3546 43.2224 14.2855 43.2433M14.2855 43.2433L14.2832 43.244M14.2855 43.2433C14.2803 43.245 14.2753 43.2464 14.2699 43.2484C14.1342 43.2928 14.0077 43.3769 13.8651 43.4734C13.7326 43.563 13.5832 43.665 13.4167 43.7196C13.3084 43.755 13.1964 43.7695 13.0827 43.7695C12.8305 43.7695 12.5604 43.697 12.2879 43.6146C11.9369 43.5083 11.3754 43.3349 11.368 43.0038C11.3636 42.8012 11.5806 42.5725 11.6921 42.4505C11.7498 42.3871 11.7792 42.3536 11.7861 42.3398C11.7886 42.3352 11.7784 42.3508 11.7827 42.3755C11.7956 42.4531 11.8868 42.4511 11.8754 42.4511C11.858 42.452 11.8129 42.4636 11.7217 42.4883C11.5699 42.5294 11.3353 42.5936 11.1147 42.5936C11.0984 42.5936 11.0826 42.5932 11.0663 42.5925C10.6443 42.5738 10.2985 42.2935 10.3135 41.9457C10.314 41.9366 10.3148 41.9273 10.3156 41.9183C10.3322 41.7491 10.4328 41.5739 10.5138 41.4307C10.5923 41.2919 10.65 41.1858 10.6582 41.1041C10.6644 41.0391 10.6372 40.9833 10.5847 40.9247C10.5476 40.883 10.5019 40.8447 10.4513 40.8025C10.4082 40.7663 10.3587 40.7253 10.3206 40.6824C10.3004 40.6601 10.2824 40.6361 10.2677 40.6101C10.1516 40.4028 10.3299 40.2368 10.6723 40.0979C10.8801 40.0136 11.182 39.9237 11.4465 39.8446C11.7215 39.7624 11.9419 39.6955 12.019 39.6548C12.0274 39.6504 12.0301 39.6481 12.0297 39.6485C12.016 39.6595 11.989 39.7103 12.0324 39.7488C12.0364 39.7522 12.0387 39.7537 12.0386 39.7535M12.0386 39.7535C12.0287 39.7478 12.001 39.7386 11.9398 39.7204C11.8561 39.6953 11.7104 39.6544 11.6214 39.575C11.5875 39.5444 11.5623 39.5094 11.5459 39.4716C11.453 39.2576 11.6406 39.0089 11.9532 38.9107C12.0862 38.869 12.244 38.8516 12.4058 38.8516C12.7031 38.8516 13.0361 38.9094 13.3029 39.003C13.4498 39.0544 13.5754 39.1164 13.6817 39.1686C13.8504 39.2518 13.9518 39.2981 14.0426 39.2981C14.0614 39.2981 14.0795 39.296 14.0978 39.2916C14.2728 39.2483 14.5223 38.9685 14.6301 38.4586C14.7351 37.962 14.694 37.2905 14.5743 36.1785C14.5243 35.713 14.4603 35.1682 14.3969 34.6303C14.31 33.8897 14.2236 33.1556 14.1738 32.628C14.1507 32.3856 14.1358 32.1909 14.1234 32.0274C14.0872 31.5567 14.0708 31.4153 13.997 31.3325C13.944 31.2728 13.8429 31.2322 13.6754 31.2322C13.5704 31.2322 13.4455 31.2483 13.3043 31.2825M13.3043 31.2825L13.2952 31.2844M13.3043 31.2825C12.9359 31.3718 12.4784 31.5762 12.2049 31.7209C11.9477 31.8569 11.8719 31.9275 11.6137 32.2549C11.3518 32.5868 10.9144 33.1677 10.6497 33.5548C10.5747 33.6645 10.5132 33.7594 10.4592 33.8426C10.3255 34.0483 10.2311 34.1955 10.0827 34.3206C9.9281 34.4511 9.70265 34.5685 9.46497 34.5685C9.38995 34.5685 9.31405 34.5565 9.24031 34.5297M9.24031 34.5297L9.28749 34.538M9.24031 34.5297C9.07932 34.4709 8.93936 34.3413 8.83947 34.2505C8.74461 34.1645 8.69624 34.1251 8.67226 34.1179C8.67394 34.1184 8.67739 34.119 8.68114 34.119C8.69151 34.119 8.69802 34.1159 8.69841 34.1154C8.69772 34.1161 8.69151 34.1198 8.68035 34.1323C8.65755 34.1576 8.63356 34.1956 8.59912 34.2506C8.55746 34.3168 8.50475 34.4012 8.43418 34.4797C8.2419 34.694 7.92505 34.8584 7.55391 34.8866C7.517 34.8894 7.4788 34.891 7.44119 34.891C7.10757 34.891 6.7158 34.7721 6.59814 34.4192C6.53221 34.2213 6.56073 33.9567 6.58136 33.7548C6.60091 33.5639 6.60762 33.453 6.58797 33.4165C6.59173 33.4224 6.60387 33.4285 6.61058 33.429M6.61058 33.429C6.61087 33.4291 6.61107 33.429 6.61058 33.429ZM6.61058 33.429C6.59646 33.429 6.56103 33.4363 6.49835 33.4631C6.43843 33.4886 6.37003 33.524 6.29176 33.5645C6.20776 33.6079 6.11389 33.6566 6.02071 33.6962C5.79744 33.7912 5.57979 33.8353 5.33421 33.8353C5.20609 33.8353 5.07214 33.8232 4.92714 33.8014C4.55403 33.7447 3.93366 33.5952 3.86329 33.2784C3.8239 33.102 3.97078 32.9067 4.05112 32.7932C4.10985 32.7108 4.13641 32.6692 4.13956 32.6513" stroke="#00A81B" stroke-width="2" stroke-miterlimit="10" shape-rendering="crispEdges"/>
</g>
<path d="M17.4004 11.5082L18.0696 12.1476" stroke="#00A81B" stroke-width="1.5" stroke-linecap="round"/>
<path d="M15.3926 15.3621L14.7236 15.3444" stroke="#00A81B" stroke-linecap="round"/>
<path d="M12.0459 11.5082L12.7151 12.1476" stroke="#00A81B" stroke-width="1.5" stroke-linecap="round"/>
<line x1="32.123" y1="7.95081" x2="66.923" y2="7.95081" stroke="black" stroke-width="2"/>
<line x1="2.67676" y1="55.2623" x2="36.1383" y2="55.2623" stroke="black" stroke-width="2"/>
<line x1="32.123" y1="11.7869" x2="50.8615" y2="11.7869" stroke="black" stroke-width="2"/>
<line x1="2.67676" y1="51.4262" x2="21.4152" y2="51.4262" stroke="black" stroke-width="2"/>
<path d="M56.2158 12.1476H66.9235M56.2158 19.8197H66.9235" stroke="black"/>
<line x1="20.0771" y1="59.0984" x2="36.1387" y2="59.0984" stroke="black" stroke-width="2"/>
<line x1="50.8613" y1="15.623" x2="66.9229" y2="15.623" stroke="black" stroke-width="2"/>
</g>
<defs>
<filter id="filter0_d_420_2573" x="-2.43555" y="4.78906" width="76.9258" height="62.2109" filterUnits="userSpaceOnUse" color-interpolation-filters="sRGB">
<feFlood flood-opacity="0" result="BackgroundImageFix"/>
<feColorMatrix in="SourceAlpha" type="matrix" values="0 0 0 0 0 0 0 0 0 0 0 0 0 0 0 0 0 0 127 0" result="hardAlpha"/>
<feOffset dy="4"/>
<feGaussianBlur stdDeviation="2"/>
<feComposite in2="hardAlpha" operator="out"/>
<feColorMatrix type="matrix" values="0 0 0 0 0 0 0 0 0 0 0 0 0 0 0 0 0 0 0.25 0"/>
<feBlend mode="normal" in2="BackgroundImageFix" result="effect1_dropShadow_420_2573"/>
<feBlend mode="normal" in="SourceGraphic" in2="effect1_dropShadow_420_2573" result="shape"/>
</filter>
<clipPath id="clip0_420_2573">
<rect width="87" height="78" fill="white"/>
</clipPath>
</defs>
</svg>
