<svg width="109" height="88" viewBox="0 0 109 88" fill="none" xmlns="http://www.w3.org/2000/svg">
<g clip-path="url(#clip0_379_2949)">
<g filter="url(#filter0_d_379_2949)">
<mask id="path-1-inside-1_379_2949" fill="white">
<path fill-rule="evenodd" clip-rule="evenodd" d="M21.4985 49.9179L22.7577 46H18.6424H16V19L51 19V38.6984H47.2988C45.642 38.6984 44.2988 40.0415 44.2988 41.6984V46H31.6329H30.4985L29.648 46.7505L19.6934 55.5343L21.4985 49.9179ZM44.2988 49H31.6329L17.8985 61.119L13.4999 65.0002L15.2949 59.4155L17.6782 52L18.6424 49H16C15.8312 49 15.6656 48.986 15.5043 48.9592C14.0833 48.723 13 47.488 13 46V19C13 17.3431 14.3431 16 16 16H51C52.6569 16 54 17.3431 54 19V38.6984H82.2988C83.9557 38.6984 85.2988 40.0415 85.2988 41.6984V68.6984C85.2988 70.3552 83.9557 71.6984 82.2988 71.6984H79.6565L84.7989 87.6986L66.666 71.6984H47.2988C45.642 71.6984 44.2988 70.3552 44.2988 68.6984V49Z"/>
</mask>
<path fill-rule="evenodd" clip-rule="evenodd" d="M21.4985 49.9179L22.7577 46H18.6424H16V19L51 19V38.6984H47.2988C45.642 38.6984 44.2988 40.0415 44.2988 41.6984V46H31.6329H30.4985L29.648 46.7505L19.6934 55.5343L21.4985 49.9179ZM44.2988 49H31.6329L17.8985 61.119L13.4999 65.0002L15.2949 59.4155L17.6782 52L18.6424 49H16C15.8312 49 15.6656 48.986 15.5043 48.9592C14.0833 48.723 13 47.488 13 46V19C13 17.3431 14.3431 16 16 16H51C52.6569 16 54 17.3431 54 19V38.6984H82.2988C83.9557 38.6984 85.2988 40.0415 85.2988 41.6984V68.6984C85.2988 70.3552 83.9557 71.6984 82.2988 71.6984H79.6565L84.7989 87.6986L66.666 71.6984H47.2988C45.642 71.6984 44.2988 70.3552 44.2988 68.6984V49Z" fill="white"/>
<path d="M22.7577 46L25.6138 46.9179L26.873 43H22.7577V46ZM21.4985 49.9179L18.6424 49H18.6424L21.4985 49.9179ZM16 46H13V49H16V46ZM16 19V16L13 16V19H16ZM51 19H54V16L51 16V19ZM51 38.6984V41.6984H54V38.6984H51ZM44.2988 46V49H47.2988V46H44.2988ZM30.4985 46V43H29.3642L28.5136 43.7505L30.4985 46ZM29.648 46.7505L27.6631 44.501L29.648 46.7505ZM19.6934 55.5343L16.8373 54.6163L13.4999 65.0002L21.6783 57.7837L19.6934 55.5343ZM44.2988 49H47.2988V46H44.2988V49ZM31.6329 49V46H30.4985L29.648 46.7505L31.6329 49ZM17.8985 61.119L19.8834 63.3685H19.8834L17.8985 61.119ZM13.4999 65.0002L10.6438 64.0823L7.30647 74.4662L15.4848 67.2497L13.4999 65.0002ZM15.2949 59.4155L18.151 60.3334L15.2949 59.4155ZM17.6782 52L14.8221 51.0821H14.8221L17.6782 52ZM18.6424 49L21.4985 49.9179L22.7577 46H18.6424V49ZM15.5043 48.9592L15.0123 51.9186L15.0123 51.9186L15.5043 48.9592ZM54 38.6984H51V41.6984H54V38.6984ZM79.6565 71.6984V68.6984H75.5411L76.8003 72.6163L79.6565 71.6984ZM84.7989 87.6986L82.814 89.9481L90.9924 97.1646L87.655 86.7807L84.7989 87.6986ZM66.666 71.6984L68.6509 69.4489L67.8003 68.6984H66.666V71.6984ZM19.9016 45.0821L18.6424 49L24.3546 50.8359L25.6138 46.9179L19.9016 45.0821ZM18.6424 49H22.7577V43H18.6424V49ZM16 49H18.6424V43H16V49ZM13 19V46H19V19H13ZM51 16L16 16V22L51 22V16ZM54 38.6984V19H48V38.6984H54ZM47.2988 41.6984H51V35.6984H47.2988V41.6984ZM47.2988 41.6984V35.6984C43.9851 35.6984 41.2988 38.3847 41.2988 41.6984H47.2988ZM47.2988 46V41.6984H41.2988V46H47.2988ZM31.6329 49H44.2988V43H31.6329V49ZM30.4985 49H31.6329V43H30.4985V49ZM31.6329 49L32.4834 48.2495L28.5136 43.7505L27.6631 44.501L31.6329 49ZM21.6783 57.7837L31.6329 49L27.6631 44.501L17.7085 53.2848L21.6783 57.7837ZM18.6424 49L16.8373 54.6163L22.5495 56.4522L24.3546 50.8359L18.6424 49ZM44.2988 46H31.6329V52H44.2988V46ZM29.648 46.7505L15.9136 58.8695L19.8834 63.3685L33.6178 51.2495L29.648 46.7505ZM15.9136 58.8695L11.515 62.7508L15.4848 67.2497L19.8834 63.3685L15.9136 58.8695ZM16.3561 65.9182L18.151 60.3334L12.4388 58.4975L10.6438 64.0823L16.3561 65.9182ZM18.151 60.3334L20.5343 52.9179L14.8221 51.0821L12.4388 58.4975L18.151 60.3334ZM20.5343 52.9179L21.4985 49.9179L15.7863 48.0821L14.8221 51.0821L20.5343 52.9179ZM18.6424 46H16V52H18.6424V46ZM16 46C15.9967 46 15.9956 45.9997 15.9963 45.9999L15.0123 51.9186C15.3355 51.9724 15.6656 52 16 52V46ZM15.9964 45.9999C15.9971 46 15.9984 46.0003 15.9998 46.0008C16.0012 46.0013 16.0019 46.0017 16.0022 46.0018C16.0022 46.0018 16.0007 46.0009 15.999 45.999C15.9976 45.9973 15.9981 45.9972 15.9991 45.9998C15.9996 46.0012 15.9999 46.0025 16.0001 46.0035C16.0003 46.0045 16 46.0036 16 46H10C10 48.979 12.168 51.4457 15.0123 51.9186L15.9964 45.9999ZM16 46V19H10V46H16ZM16 19V19V13C12.6863 13 10 15.6863 10 19H16ZM16 19H51V13H16V19ZM51 19H57C57 15.6863 54.3137 13 51 13V19ZM51 19V38.6984H57V19H51ZM54 41.6984H82.2988V35.6984H54V41.6984ZM82.2988 41.6984H88.2988C88.2988 38.3847 85.6125 35.6984 82.2988 35.6984V41.6984ZM82.2988 41.6984V68.6984H88.2988V41.6984H82.2988ZM82.2988 68.6984V74.6984C85.6125 74.6984 88.2988 72.0121 88.2988 68.6984H82.2988ZM82.2988 68.6984H79.6565V74.6984H82.2988V68.6984ZM76.8003 72.6163L81.9428 88.6166L87.655 86.7807L82.5126 70.7804L76.8003 72.6163ZM86.7838 85.4491L68.6509 69.4489L64.6811 73.9478L82.814 89.9481L86.7838 85.4491ZM66.666 68.6984H47.2988V74.6984H66.666V68.6984ZM47.2988 68.6984H41.2988C41.2988 72.0121 43.9851 74.6984 47.2988 74.6984V68.6984ZM47.2988 68.6984V49H41.2988V68.6984H47.2988Z" fill="black" mask="url(#path-1-inside-1_379_2949)"/>
</g>
<circle cx="27" cy="32" r="2" fill="black"/>
<circle cx="33" cy="32" r="2" fill="black"/>
<circle cx="39" cy="32" r="2" fill="black"/>
<line x1="55" y1="49" x2="79" y2="49" stroke="#00A81B" stroke-width="2"/>
<line x1="55" y1="55" x2="79" y2="55" stroke="#00A81B" stroke-width="2"/>
<line x1="55" y1="61" x2="79" y2="61" stroke="#00A81B" stroke-width="2"/>
</g>
<defs>
<filter id="filter0_d_379_2949" x="9" y="16" width="80.2988" height="79.6986" filterUnits="userSpaceOnUse" color-interpolation-filters="sRGB">
<feFlood flood-opacity="0" result="BackgroundImageFix"/>
<feColorMatrix in="SourceAlpha" type="matrix" values="0 0 0 0 0 0 0 0 0 0 0 0 0 0 0 0 0 0 127 0" result="hardAlpha"/>
<feOffset dy="4"/>
<feGaussianBlur stdDeviation="2"/>
<feComposite in2="hardAlpha" operator="out"/>
<feColorMatrix type="matrix" values="0 0 0 0 0 0 0 0 0 0 0 0 0 0 0 0 0 0 0.25 0"/>
<feBlend mode="normal" in2="BackgroundImageFix" result="effect1_dropShadow_379_2949"/>
<feBlend mode="normal" in="SourceGraphic" in2="effect1_dropShadow_379_2949" result="shape"/>
</filter>
<clipPath id="clip0_379_2949">
<rect width="109" height="88" fill="white"/>
</clipPath>
</defs>
</svg>
