<svg width="220" height="104" viewBox="0 0 220 104" fill="none" xmlns="http://www.w3.org/2000/svg">
<path d="M5.99156 0C5.74568 0 5.46326 0.0664324 5.11771 0.22924C4.27377 0.631274 3.16071 1.58156 2.47625 3.19966C1.87819 4.61509 1.61238 6.53222 1.39641 8.09051C1.36318 8.32642 1.33328 8.55565 1.30005 8.77162C1.25021 9.11385 1.20038 9.42287 1.15718 9.70862C1.11731 9.95449 1.08076 10.1804 1.05086 10.3964C0.944534 11.1141 0.894691 11.6856 0.964466 12.3235C1.00766 12.7222 1.09737 13.1541 1.18708 13.6027V13.6093C1.28012 14.0546 1.37315 14.5164 1.42299 14.9583C1.45289 15.2374 1.46286 15.5132 1.4396 15.7757C1.36319 16.6396 0.9246 17.3107 0.575728 17.8456L0.565761 17.859C0.472728 18.0018 0.383011 18.138 0.309914 18.2643C-0.042281 18.8624 -0.115374 19.2943 0.200273 19.7827C0.329854 19.9821 0.52257 20.1914 0.745184 20.434L0.751825 20.4439L0.758467 20.4539C0.987726 20.7031 1.24025 20.9788 1.42964 21.2712C1.54261 21.4473 1.63896 21.6334 1.6888 21.8328C1.84496 22.4275 1.59576 23.0422 1.39308 23.5306L1.37979 23.5638C1.29673 23.7665 1.22031 23.9526 1.17048 24.1254C1.00435 24.6935 1.1007 25.1288 1.6456 25.6537C2.22706 26.2119 3.28697 26.8432 4.13755 27.3383L4.18406 27.3649L4.23058 27.3915L4.25716 27.4081L4.28375 27.4214C5.02801 27.8533 5.67591 28.2387 5.83872 28.9697C5.90849 29.2787 5.88524 29.6409 5.86198 30.0429V30.0695C5.82875 30.6277 5.78224 31.3321 5.90185 32.2657C6.05801 33.4785 6.48663 35.0866 7.07805 37.3027C7.2907 38.1068 7.52992 38.9906 7.77911 39.9575C7.87215 40.313 7.96518 40.6819 8.06154 41.0606L8.06486 41.0706C8.16786 41.4726 8.27418 41.888 8.38383 42.3099C9.2178 45.5328 10.2511 49.2674 11.7696 52.5967C12.9856 55.2614 14.514 57.6703 15.9427 59.9197V59.923V59.9263C16.7468 61.1956 17.5243 62.4149 18.1855 63.5978C19.468 65.887 20.3252 68.0168 21.1526 70.0835L21.1559 70.0868C21.5114 70.9773 21.8636 71.8511 22.2424 72.7217C22.7507 73.8912 23.3089 75.0574 23.8405 76.1705C24.3223 77.1806 24.7875 78.1508 25.1729 79.0379C25.4155 79.5994 25.6281 80.1311 25.7942 80.6161C26.5119 82.7194 26.3491 83.9985 26.2162 85.0418L26.2129 85.0617L26.1996 85.1781L26.1863 85.291C26.0733 86.1914 25.9703 86.9889 25.7411 87.4142C25.5151 87.8328 25.1596 87.9325 24.7044 87.9325C24.5449 87.9325 24.3589 87.9225 24.1628 87.9059L24.1163 87.9026L24.0698 87.8993H24.0665C23.7774 87.8793 23.4452 87.8594 23.0963 87.8594C22.5547 87.8594 21.9932 87.9092 21.5114 88.0754C20.7173 88.3511 20.086 88.9625 19.458 89.5772L19.4248 89.6104L19.3584 89.6768C18.7105 90.3081 18.119 90.853 17.4146 91.4345C17.3349 91.501 17.2651 91.5575 17.1887 91.6206L17.1688 91.6372C17.089 91.7003 16.996 91.78 16.9196 91.8398C16.3581 92.3017 16.0424 92.6173 16.0191 92.7569C16.0191 92.7602 16.0191 92.7635 16.0225 92.7669C16.1321 92.8732 16.6471 92.9563 17.5143 92.9928C17.5143 92.9928 17.5143 92.9928 17.5176 92.9928C17.9031 93.0094 18.3084 93.0161 18.7138 93.0161C19.2853 93.0161 19.8468 92.9994 20.3485 92.9762C20.4581 92.9695 20.5645 92.9662 20.6708 92.9596H20.6974H20.7073C20.7073 92.9596 20.7206 92.9596 20.7239 92.9596C20.817 92.9529 20.9167 92.9496 21.003 92.943C21.1625 92.933 21.3121 92.9297 21.4483 92.9297C21.7041 92.9297 21.9965 92.9463 22.1959 93.0726C22.2457 93.1025 22.2889 93.139 22.3288 93.1855C22.3786 93.2453 22.4085 93.3118 22.4218 93.3782C22.5115 93.7802 22.0796 94.3119 21.6908 94.6408C21.5945 94.7206 21.4948 94.797 21.4051 94.8634L21.4018 94.8667C21.3154 94.9299 21.2423 94.9863 21.1791 95.0395C20.9698 95.2156 20.9931 95.2522 21.0728 95.3419V95.3452C21.4018 95.704 22.6677 96.2789 23.9602 96.6809C25.2128 97.0696 26.3956 97.2657 27.4422 97.3853C28.2829 97.4816 29.0304 97.5281 29.9774 97.5281C30.2066 97.5281 30.4492 97.5248 30.705 97.5182C32.0474 97.4916 33.7386 97.3886 34.6955 97.0331C35.5793 96.7041 35.8351 96.1592 35.9813 95.3917C36.0079 95.2621 36.0278 95.1325 36.0511 94.9897V94.9864C36.0777 94.8335 36.1009 94.674 36.1341 94.5046C36.2571 93.87 36.4731 93.1324 37.0711 92.2386C37.3502 91.8233 37.7091 91.378 38.0945 90.8996C38.0945 90.8996 38.1011 90.8929 38.1044 90.8863C38.5829 90.2948 39.1012 89.6503 39.583 88.9292C39.9784 88.3378 40.3505 87.6966 40.6496 86.9988C41.344 85.3741 41.6696 83.4204 41.9553 81.6993V81.696V81.6927C42.065 81.0215 42.1713 80.3836 42.2909 79.8254C42.7129 77.8484 43.3143 76.8051 43.8027 76.3831C43.9655 76.2402 44.1482 76.1472 44.4174 76.1472C44.7131 76.1472 45.1218 76.2669 45.773 76.4563L45.8561 76.4828C46.3246 76.619 46.9359 76.7951 47.7566 77.0111C48.986 77.34 50.6871 77.7587 52.5345 78.2172H52.5411L52.6375 78.2438C54.8038 78.7787 57.1529 79.3602 59.1863 79.9018C59.6083 80.0147 60.0203 80.1244 60.409 80.234C63.3961 81.0614 65.2999 81.7358 67.7254 82.5931L67.7354 82.5964L67.742 82.5997C68.4896 82.8622 69.2771 83.1446 70.1708 83.4536C72.4302 84.2377 75.3142 85.198 78.0487 86.1084L78.0653 86.115C79.926 86.7363 81.7202 87.3344 83.1954 87.8328C86.6575 89.009 88.3786 89.6569 89.8838 90.2251L90.123 90.3148L90.2028 90.3447L90.2825 90.3746C91.761 90.9295 93.1831 91.4677 93.9739 92.1921C94.6683 92.8267 95.0039 93.7603 94.3826 94.2952C94.2995 94.365 94.2032 94.4248 94.0935 94.4714C93.8111 94.591 93.4522 94.6209 93.0834 94.6209C92.7811 94.6209 92.4422 94.6009 92.0867 94.581H92.08C91.6547 94.5544 91.2062 94.5311 90.741 94.5311C90.5981 94.5311 90.4553 94.5312 90.3124 94.5411C88.8006 94.6009 87.1759 95.0196 85.9033 95.3585C84.5311 95.7207 83.8931 95.93 83.7968 96.1592C83.727 96.3253 83.9463 96.6277 84.5377 97.2922C84.6075 97.372 84.6872 97.4617 84.7637 97.5481C84.8235 97.6179 84.8766 97.6777 84.9398 97.7508C84.9398 97.7508 84.9431 97.7541 84.9431 97.7574L84.9564 97.774C85.0129 97.8404 85.0693 97.9069 85.1291 97.9734C85.6641 98.5881 86.2289 99.1629 86.9267 99.4154C87.4849 99.6181 88.1494 99.6247 89.1927 99.6347H89.196C89.7675 99.638 90.4386 99.6446 91.2327 99.6911C91.8541 99.7244 92.5518 99.7875 93.2762 99.8506H93.2828L93.326 99.8539C94.1135 99.9204 94.9308 99.9935 95.7316 100.037C96.2765 100.067 96.8114 100.087 97.3197 100.087C97.8115 100.087 98.2767 100.067 98.702 100.023C99.8815 99.9005 100.765 99.5815 101.503 99.3124L101.533 99.3024L101.563 99.2924C102.025 99.123 102.466 98.9668 102.875 98.9236C102.945 98.917 103.015 98.9137 103.084 98.9137H103.091C103.626 98.9137 104.081 99.1429 104.52 99.3589L104.553 99.3755H104.556C105.065 99.628 105.606 99.8972 106.367 99.9935C106.616 100.027 106.895 100.04 107.198 100.04C108.131 100.04 109.231 99.9038 110.275 99.7709H110.278C110.866 99.6978 111.441 99.6247 111.946 99.5848C112.561 99.535 113.069 99.5317 113.531 99.5283H113.534C113.943 99.525 114.312 99.5217 114.704 99.4918C115.089 99.4619 115.494 99.4021 115.966 99.2825C117.481 98.907 119.684 97.9402 122.043 96.8038C122.239 96.7108 122.449 96.6078 122.648 96.5114C122.857 96.4118 123.05 96.3154 123.263 96.2124C125.249 95.2555 127.373 94.2953 129.625 93.9829C130.267 93.8932 130.908 93.8567 131.579 93.8567C132.891 93.8567 134.307 93.9962 135.942 94.159H135.955C137.038 94.2653 138.224 94.3817 139.553 94.478C143.228 94.7405 148.019 94.8368 152.285 94.9232H152.299L152.488 94.9266C153.262 94.9432 153.94 94.9565 154.678 94.9731C159.449 95.0761 162.997 95.209 168.158 95.4083H168.174C173.327 95.6043 180.106 95.8702 186.183 96.8969C191.044 97.7209 195.453 99.03 199.157 100.13H199.164L199.174 100.133C200.108 100.409 200.985 100.671 201.825 100.911C206.005 102.103 209.012 102.705 212.288 102.927C213.152 102.987 214.029 103.02 214.87 103.02C217.355 103.02 219.07 102.718 219.266 102.263V102.259C219.475 101.748 217.98 100.661 215.767 99.1662C215.338 98.8771 214.91 98.5847 214.484 98.2857C211.999 96.5546 209.843 94.7471 207.421 92.6606V92.6572L207.198 92.4645L206.969 92.2685C204.656 90.2782 202.111 88.1352 198.911 86.8427C196.223 85.7562 193.057 85.2644 189.469 84.7096H189.465C188.502 84.5601 187.512 84.4072 186.495 84.2377C185.518 84.0749 184.521 83.8955 183.495 83.7095C182.411 83.5134 181.295 83.3141 180.145 83.1214C177.035 82.5997 173.66 82.1312 169.892 81.9618C168.729 81.9086 167.526 81.8854 166.31 81.8854C160.751 81.8854 154.907 82.3771 151.083 82.8755C147.647 83.3207 145.846 83.7726 144.421 84.1281H144.414C143.913 84.2544 143.451 84.3707 142.979 84.467C142.075 84.6564 141.135 84.7893 140.188 84.7893C139.238 84.7893 138.277 84.6564 137.334 84.3241C135.453 83.653 133.686 82.191 132.383 80.0014C131.453 78.4431 130.755 76.5127 130.007 74.4427L130.001 74.4261L129.984 74.3763C129.688 73.5623 129.389 72.7349 129.061 71.8877C127.884 68.8508 126.386 65.6944 122.402 63.0895C119.239 61.0195 114.504 59.2917 109.789 57.5739L109.733 57.554C108.494 57.1021 107.261 56.6535 106.061 56.1984C101.825 54.5935 98.0341 52.9356 94.9607 51.5899H94.9574L94.9507 51.5866C93.841 51.1015 92.8276 50.6596 91.9172 50.2709C88.4916 48.8156 86.5479 48.1743 84.6009 47.533C84.6009 47.533 84.6009 47.533 84.5975 47.533C80.3878 46.194 76.208 44.8683 72.2342 44.2304C69.1707 43.742 66.2269 43.6622 63.5921 43.5924H63.5854C62.8046 43.5725 62.0504 43.5493 61.3294 43.5227C58.1762 43.3898 55.6976 43.0708 53.0395 42.496C50.3881 41.9245 47.5373 41.1005 45.0952 39.7814C42.6498 38.4624 40.613 36.6449 39.3704 34.3756C38.131 32.1129 37.6924 29.4149 37.3801 26.182C37.0678 22.9458 36.8784 19.1315 36.8153 16.9652C36.792 16.1578 36.7887 15.5796 36.7821 15.1211C36.7787 14.8154 36.7754 14.5662 36.7688 14.3336C36.7588 13.9781 36.7389 13.6692 36.689 13.2871C36.5628 12.2737 36.2438 10.7486 35.7454 9.42288C35.2503 8.10048 34.5792 6.99073 33.7851 6.21989C33.0009 5.46234 32.0906 5.03705 30.7715 5.01711C30.7383 5.01711 30.7083 5.01711 30.6718 5.01711C30.0538 5.01711 29.3494 5.10018 28.6417 5.18324H28.6284H28.6151C27.9606 5.25966 27.2994 5.33607 26.7312 5.33607C26.5983 5.33607 26.4654 5.33273 26.3391 5.32276C25.5583 5.25964 25.04 4.98389 24.4851 4.68818L24.4685 4.6782H24.4652C24.1097 4.48549 23.7276 4.28281 23.2225 4.09342C22.0131 3.63822 20.0827 3.25612 18.1955 3.25612C18.0326 3.25612 17.8698 3.25945 17.7104 3.2661C15.6803 3.33919 13.783 3.89407 12.6833 4.38914C12.3178 4.55527 12.042 4.71143 11.8061 4.84433L11.7862 4.85431C11.64 4.93737 11.5037 5.01376 11.3775 5.07357C11.2446 5.13338 11.0951 5.18324 10.9323 5.18324C10.7661 5.18324 10.6166 5.13006 10.4804 5.04035C10.095 4.78451 9.67632 4.08676 9.27761 3.4156L9.23109 3.33918C9.10151 3.11989 8.96861 2.90061 8.83238 2.68464C8.24096 1.73106 7.60966 0.88713 6.9983 0.411999C6.65607 0.129578 6.33378 0 5.99156 0Z" fill="#627D83"/>
</svg>
