<svg xmlns="http://www.w3.org/2000/svg" viewBox="0 0 90 88" id="vector">
    <path id="path"
        d="M 44 1 L 46 1 C 53.548 1 60.964 2.987 67.5 6.761 C 74.036 10.535 79.465 15.964 83.239 22.5 C 87.013 29.036 89 36.452 89 44 C 89 51.548 87.013 58.964 83.239 65.5 C 79.465 72.036 74.036 77.465 67.5 81.239 C 60.964 85.013 53.548 87 46 87 L 44 87 C 32.6 87 21.655 82.467 13.594 74.406 C 5.533 66.345 1 55.4 1 44 C 1 32.6 5.533 21.655 13.594 13.594 C 21.655 5.533 32.6 1 44 1"
        fill="none" stroke="#335860" stroke-width="2" />
    <path id="path_1"
        d="M 23.566 36.82 L 21.966 36.54 L 21.966 35.14 L 33.206 35.14 L 33.426 38.88 L 31.626 38.88 L 30.826 36.7 L 26.986 36.46 L 26.986 42 L 29.606 41.94 L 30.006 40.14 L 31.406 40.14 L 31.406 45.48 L 30.026 45.48 L 29.606 43.62 L 26.986 43.54 L 26.986 48.46 L 30.046 48.68 L 30.046 50 L 22.066 50 L 22.066 48.68 L 23.566 48.46 L 23.566 36.82 Z M 34.726 44.5 C 34.726 43.22 34.98 42.14 35.486 41.26 C 35.993 40.367 36.673 39.7 37.526 39.26 C 38.393 38.82 39.34 38.6 40.366 38.6 C 42.046 38.6 43.359 39.107 44.306 40.12 C 45.266 41.12 45.746 42.52 45.746 44.32 C 45.746 45.64 45.493 46.74 44.986 47.62 C 44.48 48.5 43.8 49.153 42.946 49.58 C 42.093 50.007 41.139 50.22 40.086 50.22 C 38.419 50.22 37.106 49.72 36.146 48.72 C 35.2 47.707 34.726 46.3 34.726 44.5 Z M 40.286 48.82 C 40.926 48.82 41.4 48.48 41.706 47.8 C 42.026 47.107 42.186 46.027 42.186 44.56 C 42.186 43 42.033 41.853 41.726 41.12 C 41.433 40.373 40.933 40 40.226 40 C 38.919 40 38.266 41.42 38.266 44.26 C 38.266 45.807 38.426 46.953 38.746 47.7 C 39.066 48.447 39.58 48.82 40.286 48.82 Z M 50.878 50.18 C 49.998 50.18 49.345 49.98 48.918 49.58 C 48.505 49.167 48.298 48.533 48.298 47.68 L 48.298 40.56 L 47.078 40.56 L 47.078 39.4 L 47.478 39.24 C 47.798 39.133 48.078 39.02 48.318 38.9 C 48.585 38.647 48.798 38.313 48.958 37.9 C 49.158 37.42 49.378 36.747 49.618 35.88 L 51.478 35.88 L 51.598 38.88 L 54.458 38.88 L 54.458 40.56 L 51.638 40.56 L 51.638 45.86 C 51.638 46.593 51.658 47.107 51.698 47.4 C 51.738 47.693 51.812 47.887 51.918 47.98 C 52.038 48.06 52.252 48.1 52.558 48.1 C 53.185 48.1 53.778 47.993 54.338 47.78 L 54.758 49.04 C 54.385 49.347 53.831 49.613 53.098 49.84 C 52.365 50.067 51.625 50.18 50.878 50.18 Z M 55.722 44.5 C 55.722 43.22 55.976 42.14 56.482 41.26 C 56.989 40.367 57.669 39.7 58.522 39.26 C 59.389 38.82 60.336 38.6 61.362 38.6 C 63.042 38.6 64.356 39.107 65.302 40.12 C 66.262 41.12 66.742 42.52 66.742 44.32 C 66.742 45.64 66.489 46.74 65.982 47.62 C 65.476 48.5 64.796 49.153 63.942 49.58 C 63.089 50.007 62.136 50.22 61.082 50.22 C 59.416 50.22 58.102 49.72 57.142 48.72 C 56.196 47.707 55.722 46.3 55.722 44.5 Z M 61.282 48.82 C 61.922 48.82 62.396 48.48 62.702 47.8 C 63.022 47.107 63.182 46.027 63.182 44.56 C 63.182 43 63.029 41.853 62.722 41.12 C 62.429 40.373 61.929 40 61.222 40 C 59.916 40 59.262 41.42 59.262 44.26 C 59.262 45.807 59.422 46.953 59.742 47.7 C 60.062 48.447 60.576 48.82 61.282 48.82 Z"
        fill="#000000" stroke-width="1" />
</svg>