<svg width="67" height="61" viewBox="0 0 67 61" fill="none" xmlns="http://www.w3.org/2000/svg">
<path d="M3.63789 25.5601C3.64282 25.5335 3.6417 25.4919 3.60429 25.4587C3.58439 25.4413 3.56112 25.4326 3.54294 25.4278C3.51705 25.421 3.48907 25.4195 3.46423 25.4195C3.40325 25.4195 3.32132 25.4299 3.23984 25.4401C3.12731 25.4543 3.00475 25.4695 2.89109 25.4695C2.83939 25.4695 2.79136 25.4663 2.74871 25.4589C2.70247 25.4509 2.66102 25.438 2.62495 25.4213C2.46154 25.3458 2.4088 25.2037 2.47471 25.0938C2.48302 25.0801 2.49334 25.0659 2.50606 25.0514C2.56674 24.9822 2.66648 24.9151 2.78687 24.8351C2.91489 24.7501 3.06288 24.6525 3.16748 24.5328C3.26049 24.4266 3.31645 24.3062 3.36658 24.1993C3.43864 24.046 3.49894 23.9224 3.62457 23.8398C3.83758 23.6998 4.25202 23.6644 4.59418 23.6417C4.6075 23.6409 4.61857 23.6402 4.63151 23.6392L4.66698 23.6369C4.67633 23.6362 4.71202 23.634 4.72048 23.6333C4.84386 23.6251 4.94038 23.6185 5.02455 23.6185C5.14591 23.6185 5.23577 23.6321 5.33042 23.672C5.38235 23.6939 5.43674 23.7241 5.49967 23.7592C5.64497 23.8402 5.8315 23.9464 6.06023 23.9499C6.06345 23.9499 6.06868 23.9501 6.0719 23.9501C6.3979 23.9501 6.77081 23.7467 6.9628 23.2795C7.15352 22.815 7.1699 22.0794 7.13047 21.5011C7.09059 20.916 6.99205 20.4723 6.71372 19.9088C6.66598 19.8123 6.61278 19.7118 6.55802 19.6085C6.29547 19.1127 5.98653 18.5281 5.94014 17.7528C5.91897 17.396 5.95316 16.9966 6.01324 16.5757C6.06247 16.2317 6.12854 15.8754 6.19483 15.5182C6.26075 15.1631 6.32689 14.8071 6.3759 14.464C6.53437 13.3552 6.5141 12.383 6.36213 11.6434C6.24234 11.0596 6.04085 10.6232 5.86225 10.2684C5.83674 10.2177 5.81399 10.1731 5.7896 10.1256C5.7676 10.0826 5.74546 10.0393 5.72495 9.99854C5.52458 9.60079 5.4018 9.299 5.29922 8.96833C5.19649 8.63749 5.11426 8.27735 5.0675 7.82241C5.02051 7.36516 5.01041 6.81885 5.11142 6.38423C5.21168 5.95317 5.42275 5.62733 5.66143 5.34196C5.90071 5.05614 6.15346 4.82821 6.57335 4.73621C6.72793 4.70244 6.90781 4.68642 7.09449 4.68642C7.42332 4.68642 7.76414 4.73587 8.01434 4.8173C8.19586 4.87651 8.33225 4.95317 8.45242 5.02088C8.57737 5.09129 8.70636 5.16744 8.8483 5.16744C8.85324 5.16744 8.85788 5.16727 8.86281 5.1671C8.86738 5.16692 8.87179 5.16675 8.87613 5.16641C8.96292 5.16049 9.05024 5.12649 9.14264 5.09158C9.3395 5.01738 9.64073 4.90333 10.2427 4.86227C10.423 4.85009 10.6305 4.84429 10.8549 4.84429C11.7667 4.84429 12.9374 4.93893 13.6281 5.06614C14.1766 5.16721 14.4199 5.28833 14.5802 5.36781C14.6679 5.41128 14.7495 5.45297 14.8474 5.46371C14.8654 5.46566 14.8836 5.46653 14.9019 5.46653C14.9488 5.46653 14.9967 5.46055 15.0448 5.45131C15.1377 5.43322 15.241 5.40054 15.3496 5.36643C15.4938 5.32112 15.6547 5.2707 15.8403 5.23475C16.0566 5.19288 16.3086 5.17031 16.5465 5.17031C16.7815 5.17031 16.9963 5.19225 17.1473 5.23561C17.4139 5.31204 17.4905 5.45533 17.6257 5.75183C17.621 5.74167 17.6432 5.79059 17.6387 5.78054C17.6417 5.78715 17.6492 5.80363 17.6524 5.81058C17.662 5.83154 17.6724 5.85463 17.6826 5.87668C17.8316 6.20235 18.0274 6.63146 18.1213 7.07865C18.2212 7.55519 18.2058 8.05643 18.1008 8.62066C17.9959 9.18403 17.8022 9.80592 17.4039 10.5067C17.2648 10.7515 17.1 11.0068 16.9344 11.2636C16.6274 11.7398 16.3132 12.2258 16.1673 12.648C16.0282 13.0505 16.0424 13.3922 16.097 13.7491C16.1135 13.8573 16.1337 13.9663 16.1547 14.0794C16.1772 14.2017 16.2005 14.3281 16.2212 14.4619C16.249 14.6443 16.2719 14.842 16.295 15.0428C16.3556 15.5683 16.4191 16.1297 16.593 16.4699C16.8052 16.8853 17.1789 16.9734 17.6407 17.0499C17.6837 17.057 17.7298 17.0645 17.7749 17.0717C17.823 17.0793 17.8721 17.0872 17.9225 17.0956C18.1214 17.1286 18.3395 17.169 18.5871 17.2148C19.0943 17.3086 19.7203 17.4245 20.5335 17.5415C20.7552 17.5735 20.9894 17.6051 21.2365 17.6388C22.3383 17.7883 23.6748 17.9696 25.0886 18.3207C26.8198 18.7507 28.6698 19.4357 30.5263 20.1234L30.5241 20.1231C31.84 20.6455 33.151 21.1662 34.2238 21.6809C35.2949 22.1947 36.1205 22.6993 36.8518 23.5196C37.3814 24.1137 37.8633 24.8752 38.3743 25.7261C38.4737 25.8912 38.5676 26.0491 38.6692 26.2199C38.7698 26.3888 38.8778 26.5703 38.982 26.7441C39.734 27.9958 40.5944 29.3514 42.0802 30.7045C42.7814 31.343 43.6213 31.9805 44.4399 32.6019C45.3553 33.2968 46.2431 33.9708 46.893 34.6102C46.8958 34.613 46.9066 34.6234 46.9092 34.626C47.5527 35.2624 47.9633 35.8657 48.3535 36.4394C48.7001 36.9492 49.0322 37.4379 49.4972 37.8975C49.8421 38.2385 50.259 38.5625 50.6746 38.8854C51.4574 39.4936 52.2307 40.0968 52.5817 40.8276C53.1182 41.9453 52.6704 43.3853 51.7454 44.2876C51.1633 44.8554 50.4016 45.2006 49.7261 45.2006C49.3323 45.2006 48.9668 45.0835 48.6765 44.8239C47.8682 44.101 47.6184 42.2741 47.5174 41.3649C47.5116 41.3135 47.5078 41.2777 47.5027 41.2312C47.4209 40.4775 47.4092 40.4506 46.6668 39.6475L46.6278 39.6053L46.5865 39.5606C45.726 38.6299 43.9558 36.7022 42.8678 35.5143C41.7801 34.3264 41.3744 33.8784 40.8387 33.2827L40.8197 33.2616C40.2962 32.6793 39.6246 31.9286 39.2085 31.7481C39.1345 31.716 39.0629 31.6987 38.9942 31.6987C38.6299 31.6987 38.5461 32.1449 38.5275 32.4701C38.5026 32.9094 38.5844 33.3752 38.7626 33.8728C38.8192 34.0309 38.8851 34.1914 38.9528 34.3559C39.0981 34.7098 39.2504 35.0807 39.3377 35.4888C39.4657 36.088 39.4553 36.7724 39.4128 37.318C39.3706 37.8613 39.2977 38.2505 39.0149 38.6878C38.7284 39.1305 38.2242 39.6263 37.7747 39.9682C37.6165 40.0885 37.4649 40.1899 37.3245 40.284C37.0708 40.4536 36.8426 40.6049 36.6993 40.7986C36.6371 40.8827 36.5921 40.973 36.557 41.0643C36.5102 41.1856 36.4798 41.3122 36.4516 41.4299C36.4244 41.5435 36.3989 41.649 36.3627 41.7429C36.2614 42.0059 36.0734 42.1867 35.8126 42.284C35.6599 42.3408 35.4806 42.3697 35.3262 42.3697C35.2102 42.3697 35.1189 42.3533 35.0648 42.3283C34.9672 42.2831 34.9593 42.1846 35.0337 41.9493C35.0427 41.921 35.0534 41.889 35.0635 41.8588C35.1164 41.7007 35.2291 41.4131 35.0588 41.298C34.999 41.2577 34.9191 41.2483 34.8472 41.2483C34.7531 41.2483 34.642 41.2649 34.5325 41.2849C34.4763 41.2951 34.4196 41.3063 34.3634 41.3175C34.3082 41.3285 34.2539 41.3393 34.2023 41.3486C33.9132 41.4014 33.6888 41.4131 33.4289 41.4244C33.3679 41.4271 33.3074 41.4297 33.2482 41.4297C33.046 41.4297 32.9059 41.3992 32.8404 41.2952C32.8228 41.2672 32.8085 41.2313 32.797 41.1879C32.7662 41.0697 32.7649 40.9229 32.764 40.8058C32.7635 40.7446 32.764 40.6796 32.7544 40.6428C32.754 40.6415 32.7536 40.6399 32.7534 40.6392C32.7502 40.628 32.7296 40.5612 32.6502 40.5612C32.6415 40.5612 32.6339 40.562 32.6271 40.5635C32.5984 40.5693 32.5786 40.5847 32.5704 40.5914C32.5492 40.6087 32.5272 40.6362 32.5118 40.655C32.4675 40.7089 32.4404 40.7371 32.4247 40.7421C32.4254 40.7419 32.4266 40.7419 32.4275 40.7419C32.4283 40.7419 32.4288 40.7419 32.4288 40.7419C32.3956 40.736 32.306 40.6312 32.2617 40.4742C32.222 40.3331 32.2384 40.206 32.3946 40.0288C32.4748 39.9379 32.5903 39.8355 32.6942 39.7438C32.7834 39.6648 32.8811 39.5803 32.9103 39.5292C32.9139 39.5229 32.918 39.5152 32.9209 39.5058C32.9233 39.4982 32.9254 39.4888 32.9254 39.4783C32.9254 39.3925 32.8271 39.3855 32.8122 39.3849C32.81 39.3849 32.808 39.3849 32.8063 39.3849C32.804 39.3849 32.8025 39.3849 32.8003 39.3849C32.7571 39.3861 32.6933 39.4003 32.6376 39.4123C32.545 39.4322 32.4428 39.4539 32.3546 39.456C32.3499 39.4561 32.3443 39.4563 32.3396 39.4563C32.1595 39.4563 32.0524 39.3752 32.0279 39.289C32.0004 39.1934 32.0572 39.0521 32.2455 38.8028C32.4286 38.5606 32.7043 38.2566 33.0886 38.1031C33.3098 38.0148 33.572 37.9746 33.8125 37.9746C33.9896 37.9746 34.1502 37.9965 34.27 38.0338C34.3421 38.0563 34.4007 38.0849 34.4501 38.1158C34.5298 38.166 34.5872 38.2234 34.6439 38.2805C34.687 38.3238 34.7344 38.3723 34.7897 38.4069C34.8525 38.4465 34.9247 38.4683 35.0064 38.4683C35.1503 38.4683 35.3122 38.401 35.5044 38.279C35.7615 38.1161 36.2647 37.7295 36.1667 37.5108C36.1312 37.431 36.0355 37.3975 35.9509 37.3774C35.8596 37.3557 35.7363 37.34 35.5915 37.3214C35.3426 37.2894 35.0112 37.2468 34.6046 37.1498C33.7143 36.9373 32.4623 36.4636 31.4733 35.7955C30.4852 35.128 29.7567 34.2643 29.3532 33.5654C29.3201 33.5081 29.2888 33.451 29.2596 33.3959C29.0817 33.0571 28.9758 32.7579 28.8791 32.485C28.8006 32.263 28.727 32.0548 28.6254 31.8614C28.3792 31.3926 27.9723 31.0167 27.7745 30.8621C27.6917 30.7973 27.6392 30.7668 27.5327 30.7284C27.4844 30.7111 27.4234 30.6914 27.3438 30.6659C27.1697 30.6098 26.8939 30.5212 26.4182 30.3499C26.0081 30.2024 25.45 29.9936 24.8263 29.7602C23.703 29.3399 22.368 28.8404 21.3128 28.4798C20.614 28.2407 20.0386 28.063 19.5582 27.9147C18.908 27.7137 18.4399 27.5688 18.0756 27.401C17.788 27.2685 17.5642 27.1211 17.3824 27.0014C17.2031 26.8833 17.0319 26.7651 16.8852 26.7651C16.8656 26.7651 16.846 26.7671 16.8264 26.7714C16.6553 26.8092 16.5683 27.0116 16.4968 27.2102C16.4657 27.2967 16.4344 27.3941 16.401 27.498C16.3613 27.6213 16.3187 27.754 16.2688 27.8931C16.1763 28.1496 16.0589 28.4276 15.9331 28.7111C15.8597 28.8769 15.7824 29.0467 15.7069 29.2125C15.6327 29.3755 15.5593 29.5366 15.4898 29.6933C15.4571 29.7671 15.4248 29.841 15.3937 29.9124C15.1749 30.4122 14.9824 30.8511 14.6594 31.262C14.5002 31.4648 14.3084 31.6616 14.1163 31.8586C13.8642 32.1173 13.6093 32.3782 13.4455 32.6426C13.2567 32.9479 13.1912 33.2535 13.1549 33.5271C13.1447 33.6029 13.137 33.6759 13.1295 33.7463C13.1224 33.8124 13.1158 33.8745 13.1077 33.9349C13.0596 34.2977 12.9672 34.5347 12.7749 34.6493C12.6831 34.704 12.5629 34.7345 12.4453 34.7345C12.3131 34.7345 12.1982 34.6964 12.1308 34.6276C12.1165 34.6133 12.1036 34.5967 12.0915 34.5778C12.041 34.4983 12.0153 34.3914 11.9864 34.2678C11.9589 34.1506 11.9283 34.0165 11.8609 33.9103C11.7443 33.7268 11.5274 33.6355 11.3125 33.6355C11.2373 33.6355 11.1613 33.6466 11.0891 33.6692M3.63789 25.5601L3.54855 25.5478L3.45861 25.535M3.63789 25.5601C3.62853 25.6132 3.5808 25.6793 3.54705 25.7284C3.47118 25.839 3.41372 25.9315 3.42756 25.9963C3.4533 26.1156 3.75738 26.2266 4.08809 26.2783C4.19007 26.2943 4.28075 26.3024 4.3647 26.3024C4.5222 26.3024 4.65972 26.2738 4.8039 26.2104C4.86683 26.1827 4.93147 26.1484 4.99657 26.1137C5.05388 26.0832 5.11262 26.0517 5.16596 26.0281C5.21557 26.0062 5.27483 25.9846 5.33139 25.9846C5.33686 25.9846 5.34299 25.985 5.34883 25.9854C5.40143 25.9896 5.44759 26.0141 5.47483 26.0592C5.47655 26.0617 5.47819 26.0649 5.47954 26.0675C5.52009 26.145 5.50229 26.2913 5.49046 26.4121C5.4737 26.5803 5.45799 26.7539 5.49682 26.8746C5.55414 27.0516 5.74665 27.1281 5.96184 27.1281C5.98518 27.1281 6.00823 27.1271 6.03112 27.1253C6.26 27.1073 6.45461 27.0024 6.57066 26.8688C6.61406 26.8192 6.6475 26.7645 6.67982 26.7113C6.70347 26.6724 6.72921 26.6295 6.75734 26.5972C6.77238 26.58 6.79131 26.5618 6.81555 26.5478C6.83897 26.534 6.86815 26.5243 6.90174 26.5243C6.91581 26.5243 6.9295 26.5262 6.94267 26.5293C6.94716 26.5305 6.95105 26.5314 6.95524 26.5325C7.02625 26.5547 7.0995 26.6267 7.15374 26.6774C7.23747 26.7557 7.317 26.8282 7.39714 26.8584M7.39714 26.8584L7.3613 26.852M7.39714 26.8584C7.42871 26.8703 7.46171 26.8759 7.4959 26.8759C7.60941 26.8759 7.73728 26.8147 7.83656 26.7282C7.9271 26.6494 7.98643 26.5564 8.09103 26.3903C8.13196 26.3252 8.17947 26.2497 8.23753 26.1622C8.44075 25.8554 8.7746 25.3982 8.97422 25.1369C9.17684 24.8721 9.25121 24.7962 9.47717 24.6729C9.69071 24.5564 10.054 24.3879 10.3566 24.3123M10.3566 24.3123L10.3636 24.3108M10.3566 24.3123C10.4751 24.2827 10.5868 24.2668 10.6875 24.2668C10.8449 24.2668 10.988 24.3065 11.0754 24.4082C11.1733 24.5214 11.1825 24.6996 11.2075 25.0372C11.2171 25.1644 11.2283 25.3171 11.2456 25.5045C11.2832 25.9154 11.3485 26.4876 11.4144 27.0674C11.4623 27.4877 11.5112 27.9148 11.5491 28.2795C11.6393 29.1442 11.674 29.6919 11.5893 30.1051C11.5067 30.508 11.3014 30.8192 11.0582 30.8811C11.0272 30.8889 10.9964 30.8925 10.9658 30.8925C10.8377 30.8925 10.7142 30.827 10.6017 30.77C10.5202 30.7287 10.4347 30.6853 10.3361 30.6497C10.1553 30.5844 9.92632 30.5433 9.72505 30.5433C9.61537 30.5433 9.51885 30.5555 9.4447 30.5796C9.26079 30.6391 9.22046 30.7607 9.24298 30.8142C9.2471 30.8239 9.25316 30.8328 9.26176 30.8407C9.29274 30.8692 9.35469 30.8901 9.43168 30.9139C9.4664 30.9246 9.51638 30.9392 9.54848 30.9585M9.54848 30.9585L9.49752 31.0241L9.44627 31.0892M9.54848 30.9585C9.55618 30.963 9.56479 30.9689 9.57302 30.9767C9.62711 31.0264 9.60646 31.0879 9.56464 31.1227C9.55312 31.1323 9.5404 31.1404 9.52745 31.1474C9.44724 31.1913 9.25248 31.2508 9.05802 31.3108C8.85368 31.3737 8.6358 31.4412 8.48901 31.5025C8.22384 31.6134 8.25743 31.6719 8.26776 31.6914C8.27225 31.6996 8.27898 31.7092 8.28841 31.7201C8.30794 31.7427 8.3351 31.7664 8.37049 31.7967C8.40708 31.8284 8.45137 31.8665 8.48878 31.9094C8.54415 31.9736 8.59039 32.0555 8.58059 32.1591C8.57123 32.259 8.50771 32.3721 8.45399 32.4703C8.38845 32.59 8.33023 32.6986 8.32103 32.7959C8.32051 32.8008 8.32036 32.8054 8.32013 32.8101C8.3128 32.9817 8.48205 33.1404 8.71923 33.1513C8.72821 33.1517 8.73704 33.1519 8.74639 33.1519C8.88047 33.1519 9.03109 33.1106 9.1517 33.0769C9.20707 33.0614 9.27074 33.0429 9.31264 33.0407C9.31563 33.0405 9.31945 33.0405 9.32297 33.0405C9.33741 33.0405 9.41986 33.0445 9.4319 33.1178C9.43624 33.145 9.42547 33.1677 9.42076 33.1768C9.40407 33.2102 9.36202 33.2568 9.32685 33.2963C9.22398 33.4125 9.1175 33.5398 9.11938 33.6284C9.12199 33.7511 9.36412 33.8559 9.69625 33.9596C9.9047 34.0247 10.082 34.0717 10.238 34.0717C10.3059 34.0717 10.368 34.0626 10.4261 34.043C10.5215 34.0109 10.6125 33.9483 10.7186 33.8744C10.8217 33.8025 10.9392 33.7196 11.073 33.6744C11.0783 33.6727 11.0834 33.671 11.0891 33.6692M11.0891 33.6692L11.0908 33.6686M32.8065 39.5437C32.8241 39.5441 32.7441 39.5451 32.7441 39.478C32.7441 39.4711 32.7454 39.4658 32.7464 39.4627C32.7474 39.4591 32.7488 39.4569 32.7484 39.4574C32.736 39.4793 32.6705 39.5387 32.5655 39.6316C32.4639 39.7214 32.3397 39.831 32.2511 39.9315C32.064 40.1436 32.0318 40.3202 32.0859 40.5122C32.1255 40.6526 32.2335 40.8687 32.3922 40.8973C32.4036 40.8994 32.4152 40.9005 32.4273 40.9005C32.4399 40.9005 32.4526 40.8992 32.4651 40.8967C32.4719 40.8954 32.4782 40.8936 32.4846 40.8916C32.5662 40.8661 32.6294 40.7831 32.6586 40.7475C32.6792 40.7225 32.6889 40.7113 32.6939 40.7072C32.6967 40.7049 32.6874 40.7141 32.6676 40.7181C32.6627 40.719 32.6569 40.7199 32.6502 40.7199C32.5839 40.7199 32.5737 40.6636 32.5777 40.6775C32.5816 40.6923 32.5826 40.7332 32.5829 40.8066C32.5839 40.9194 32.5846 41.0848 32.6207 41.2231C32.6342 41.2752 32.6535 41.3266 32.6819 41.3718C32.8021 41.5626 33.0467 41.5884 33.2483 41.5884C33.3125 41.5884 33.3773 41.5856 33.438 41.5829C33.6993 41.5716 33.9356 41.5592 34.2391 41.504C34.2928 41.4943 34.3485 41.4832 34.4036 41.4722C34.4596 41.4609 34.5153 41.4499 34.5693 41.44C34.6776 41.4204 34.7732 41.4069 34.8472 41.4069C34.9085 41.4069 34.9375 41.4165 34.9484 41.4237C34.9933 41.454 34.9679 41.5803 34.8898 41.8137C34.8796 41.8441 34.8687 41.8767 34.8594 41.9065C34.7953 42.1082 34.7358 42.3552 34.9803 42.4684C35.0718 42.5109 35.197 42.5282 35.3262 42.5282C35.5031 42.5282 35.7067 42.4956 35.8834 42.4298C36.1957 42.3134 36.4178 42.0957 36.5341 41.7934C36.5744 41.6889 36.6019 41.5738 36.6287 41.4624C36.6574 41.3431 36.6856 41.2259 36.7284 41.1149C36.7601 41.0323 36.7994 40.9549 36.8512 40.8848C36.9737 40.7189 37.1729 40.5847 37.4342 40.4099C37.5745 40.3161 37.7302 40.212 37.8931 40.088C38.3534 39.7379 38.8728 39.2286 39.1722 38.7659C39.4752 38.2978 39.5504 37.8805 39.5935 37.3284C39.6362 36.7783 39.6479 36.0781 39.5156 35.4591C39.4253 35.0366 39.2678 34.6541 39.123 34.3017C39.0553 34.137 38.9905 33.979 38.9352 33.8248C38.7621 33.3407 38.6847 32.894 38.7084 32.4777C38.7307 32.087 38.8336 31.8572 38.9942 31.8572C39.0282 31.8572 39.0721 31.8658 39.1283 31.8902C39.4971 32.0503 40.136 32.7573 40.6775 33.3597L40.6965 33.3808C41.2321 33.9763 41.6394 34.4262 42.7267 35.6134C43.813 36.7995 45.5872 38.7315 46.446 39.6604L46.4873 39.7049L46.5264 39.7473C47.2537 40.5341 47.2451 40.5322 47.3224 41.2458C47.3275 41.2929 47.3313 41.3275 47.3371 41.3799C47.4357 42.2659 47.6842 44.1627 48.5473 44.9347C48.8751 45.228 49.2887 45.359 49.726 45.359C50.4668 45.359 51.2742 44.9843 51.8799 44.3934C52.8401 43.457 53.3185 41.9529 52.7482 40.7655C52.3783 39.9947 51.5684 39.3674 50.7945 38.7659C50.3771 38.4415 49.9688 38.1242 49.6325 37.7915C49.1807 37.3449 48.8565 36.8688 48.5087 36.3575C48.1187 35.784 47.7006 35.169 47.0443 34.5201L47.0279 34.5041C46.3686 33.8555 45.4709 33.1741 44.5581 32.4811C43.7382 31.8589 42.9048 31.2261 42.2105 30.5938C40.7433 29.2575 39.8921 27.9185 39.1421 26.6694C39.0383 26.4963 38.9301 26.3147 38.8296 26.1459C38.7285 25.9761 38.6331 25.8161 38.5344 25.6514C38.0238 24.8013 37.5351 24.0278 36.9945 23.4212C36.2418 22.5769 35.3922 22.0599 34.3105 21.5409C33.2307 21.0229 31.9126 20.4994 30.5988 19.9779L30.5966 19.977C28.7428 19.2904 26.882 18.601 25.1375 18.1678C23.7118 17.8137 22.3651 17.6309 21.2639 17.4816C21.0164 17.4479 20.7837 17.4164 20.5625 17.3846C19.7537 17.2682 19.1311 17.153 18.6243 17.0592C18.3769 17.0134 18.1569 16.9727 17.9559 16.9394C17.9047 16.9308 17.8555 16.9229 17.8073 16.9151C17.762 16.9081 17.7166 16.9007 17.6741 16.8937C17.2156 16.8177 16.9297 16.741 16.758 16.4048C16.5992 16.0938 16.5368 15.5644 16.4748 15.0267C16.4517 14.8266 16.4286 14.6259 16.4002 14.4407C16.3794 14.3047 16.3556 14.1755 16.3331 14.0538C16.3122 13.9405 16.2923 13.8333 16.2761 13.7278C16.2234 13.3823 16.2118 13.0662 16.3404 12.6938C16.479 12.2924 16.7812 11.8231 17.0917 11.3417C17.2568 11.0858 17.4242 10.8264 17.5657 10.5774C17.9731 9.86048 18.1718 9.22308 18.2792 8.64599C18.3865 8.06958 18.4039 7.54922 18.2991 7.04977C18.2014 6.5846 17.9984 6.14137 17.8502 5.8173C17.8394 5.79387 17.8303 5.7736 17.8201 5.75131C17.8158 5.74178 17.8106 5.73052 17.8064 5.72134C17.8111 5.73139 17.7888 5.6824 17.7934 5.69262C17.6595 5.39905 17.5576 5.1861 17.203 5.0844C17.0262 5.03363 16.7902 5.01118 16.5461 5.01118C16.2963 5.01118 16.0312 5.03478 15.8009 5.07946C15.6026 5.11765 15.4318 5.17157 15.2881 5.21671C15.1762 5.25192 15.0847 5.28052 15.0053 5.29591C14.9656 5.30366 14.9313 5.30745 14.9014 5.30745C14.89 5.30745 14.8793 5.30693 14.8693 5.30578C14.8137 5.2997 14.7646 5.27661 14.6686 5.22912C14.4973 5.14424 14.2366 5.01566 13.6648 4.91051C12.9591 4.78043 11.7755 4.68516 10.8545 4.68516C10.6269 4.68516 10.4145 4.69096 10.2284 4.70359C9.59965 4.74643 9.2783 4.86709 9.07082 4.94542C8.96861 4.98401 8.9119 5.00429 8.86177 5.00773C8.85952 5.0079 8.85713 5.0079 8.85503 5.00808C8.85279 5.00808 8.85009 5.00825 8.84785 5.00825C8.77048 5.00825 8.69072 4.96644 8.54983 4.88696C8.42945 4.81908 8.27861 4.73386 8.07674 4.6681C7.80297 4.57909 7.44031 4.52734 7.09404 4.52734C6.89666 4.52734 6.70152 4.54411 6.52913 4.5819C6.04796 4.68722 5.76326 4.95116 5.51523 5.24767C5.26682 5.54474 5.04094 5.89155 4.93364 6.35224C4.8274 6.80937 4.83922 7.37372 4.88673 7.83659C4.93439 8.30142 5.01894 8.6708 5.12406 9.00985C5.22941 9.34943 5.35541 9.65879 5.55878 10.0626C5.57883 10.1022 5.6027 10.149 5.62395 10.1906C5.64796 10.2377 5.67108 10.2827 5.69607 10.3325C5.87243 10.6825 6.06734 11.1056 6.18338 11.6714C6.33138 12.3916 6.35241 13.3468 6.19581 14.4441C6.14717 14.7838 6.08163 15.1368 6.01571 15.4924C5.94942 15.8491 5.88268 16.2083 5.83315 16.5558C5.77254 16.9803 5.73685 17.3905 5.759 17.7611C5.80726 18.5699 6.13064 19.1793 6.39341 19.6754C6.4484 19.7791 6.5004 19.8774 6.54717 19.9719C6.81555 20.5154 6.91035 20.9402 6.94926 21.5104C6.98869 22.0876 6.96893 22.7942 6.79191 23.2254C6.62019 23.6431 6.30564 23.791 6.0713 23.791C6.06906 23.791 6.06532 23.7908 6.06292 23.7908C5.89293 23.7883 5.74867 23.7099 5.59626 23.625C5.53536 23.591 5.47176 23.5554 5.40861 23.5288C5.28261 23.4755 5.16357 23.4593 5.02403 23.4593C4.93162 23.4593 4.8271 23.4666 4.70611 23.4747C4.69392 23.4755 4.66593 23.4775 4.65276 23.4783L4.61745 23.4806C4.61086 23.481 4.5867 23.4827 4.57989 23.483C4.25763 23.5046 3.78012 23.5386 3.51548 23.7123C3.34346 23.8254 3.26722 23.9925 3.19869 24.1384C3.14706 24.2483 3.0994 24.3491 3.02353 24.4358C2.93659 24.5351 2.80961 24.6202 2.67725 24.708C2.56323 24.7837 2.44059 24.8643 2.36211 24.9543C2.34408 24.9749 2.32769 24.9965 2.314 25.0194C2.19114 25.2245 2.30928 25.4551 2.54011 25.5615C2.59233 25.5856 2.65032 25.6035 2.71347 25.6144C2.77078 25.6244 2.83101 25.628 2.89057 25.628C3.01919 25.628 3.15499 25.6108 3.26483 25.597C3.35214 25.5861 3.41866 25.5779 3.4637 25.5779C3.48173 25.5779 3.48959 25.5793 3.49131 25.5799C3.49228 25.58 3.48413 25.5782 3.47493 25.5701C3.4554 25.5526 3.45899 25.5337 3.45861 25.535M32.8065 39.5437C32.8063 39.5437 32.8069 39.5437 32.8065 39.5437ZM32.8065 39.5437H32.8053C32.7865 39.5442 32.7471 39.5521 32.6804 39.5664C32.5921 39.5854 32.4706 39.6119 32.3596 39.6147C32.3533 39.6148 32.346 39.615 32.3393 39.615C32.0997 39.615 31.9019 39.5024 31.852 39.3274C31.8026 39.1545 31.9124 38.9557 32.0944 38.7149C32.2818 38.4669 32.5807 38.131 33.0133 37.9585C33.2625 37.8589 33.5512 37.8155 33.8122 37.8155C34.0041 37.8155 34.1861 37.839 34.3303 37.8839C34.4192 37.9116 34.4927 37.9474 34.5551 37.9865C34.654 38.0488 34.7239 38.1195 34.78 38.1761C34.8268 38.2232 34.8601 38.2558 34.8946 38.2776C34.9282 38.2987 34.9635 38.3092 35.006 38.3092C35.0897 38.3092 35.2118 38.2682 35.3979 38.1502C35.7255 37.9425 36.0317 37.644 35.9979 37.5687C35.9979 37.5687 35.9887 37.551 35.9031 37.5306C35.825 37.512 35.7146 37.4976 35.5651 37.4785C35.3152 37.4463 34.9749 37.4026 34.5568 37.3029C33.6479 37.086 32.3736 36.6042 31.3626 35.9211C30.3508 35.2375 29.6058 34.3547 29.1913 33.637C29.1572 33.5775 29.1251 33.5195 29.095 33.4621C28.9115 33.113 28.8026 32.805 28.7061 32.532C28.6267 32.3078 28.5566 32.1098 28.4609 31.9277C28.2288 31.4858 27.841 31.1267 27.6539 30.9805C27.585 30.9265 27.5497 30.9061 27.4636 30.8752C27.419 30.8591 27.3625 30.8409 27.2813 30.8149C27.1061 30.7585 26.8276 30.669 26.3491 30.4968C25.9382 30.3489 25.3776 30.1391 24.7549 29.9062C23.6308 29.4856 22.299 28.9873 21.2469 28.6276C20.551 28.3897 19.9783 28.2127 19.4978 28.0643C18.8524 27.8649 18.3698 27.7159 17.9912 27.5414C17.6893 27.4025 17.4554 27.248 17.2734 27.1284C17.0642 26.9904 16.9547 26.9238 16.8849 26.9238C16.879 26.9238 16.8743 26.9243 16.8702 26.9253C16.818 26.9367 16.7533 27.0243 16.6693 27.2577C16.6391 27.3415 16.6086 27.4366 16.575 27.5409C16.5354 27.6642 16.4922 27.7987 16.4411 27.9406C16.347 28.2022 16.2279 28.4837 16.1016 28.7686C16.0278 28.9351 15.9502 29.1057 15.8747 29.2713C15.8006 29.4342 15.7273 29.5952 15.6584 29.7507C15.6255 29.8247 15.5938 29.897 15.5622 29.9691C15.345 30.466 15.1453 30.9231 14.8083 31.3522C14.6426 31.5628 14.4445 31.7659 14.2535 31.9617C13.998 32.224 13.7572 32.4715 13.6043 32.7183C13.4316 32.9974 13.3696 33.2797 13.3343 33.5453C13.3245 33.6193 13.317 33.6899 13.3093 33.7609C13.3023 33.8265 13.2956 33.8906 13.2873 33.9529C13.2392 34.3147 13.1425 34.6218 12.8764 34.7803C12.7517 34.8547 12.5953 34.8931 12.445 34.8931C12.2783 34.8931 12.1056 34.8454 11.9933 34.7312C11.9698 34.7075 11.9502 34.6817 11.933 34.6549C11.8661 34.5495 11.836 34.4162 11.8085 34.2995C11.7797 34.1753 11.7535 34.0679 11.7024 33.9874C11.6221 33.8607 11.4705 33.7939 11.3122 33.7939C11.257 33.7939 11.2018 33.8021 11.1494 33.8185M11.1494 33.8185L11.1477 33.819M11.1494 33.8185C11.1455 33.8198 11.1417 33.8209 11.1376 33.8224C11.0347 33.8572 10.9389 33.923 10.8308 33.9985C10.7304 34.0685 10.6171 34.1483 10.4909 34.191C10.4088 34.2186 10.3239 34.23 10.2377 34.23C10.0465 34.23 9.84178 34.1733 9.63519 34.1088C9.36913 34.0257 8.94354 33.8901 8.93793 33.6311C8.93457 33.4728 9.0991 33.2939 9.18357 33.1985C9.22734 33.1489 9.24964 33.1227 9.25488 33.1119C9.25675 33.1083 9.24904 33.1205 9.25226 33.1398C9.26206 33.2005 9.3312 33.1989 9.32252 33.1989C9.30935 33.1996 9.27515 33.2087 9.20602 33.228C9.09094 33.2602 8.91309 33.3104 8.74594 33.3104C8.73352 33.3104 8.72155 33.3101 8.70921 33.3095C8.38934 33.2949 8.12724 33.0757 8.13862 32.8037C8.13899 32.7966 8.13959 32.7893 8.14019 32.7822C8.15276 32.6499 8.229 32.513 8.29043 32.401C8.34991 32.2924 8.39368 32.2094 8.39989 32.1455C8.40461 32.0947 8.38396 32.0511 8.34415 32.0052C8.31602 31.9726 8.28138 31.9426 8.24307 31.9097C8.21037 31.8813 8.17281 31.8493 8.14393 31.8157C8.12867 31.7983 8.11497 31.7795 8.1039 31.7591C8.01583 31.5971 8.15104 31.4672 8.41059 31.3586C8.56809 31.2927 8.7969 31.2224 8.99742 31.1605C9.20587 31.0962 9.37295 31.0439 9.43138 31.0121C9.43774 31.0087 9.43984 31.0068 9.43946 31.0072C9.42914 31.0157 9.40864 31.0555 9.44156 31.0856C9.44455 31.0883 9.44635 31.0894 9.44627 31.0892M9.44627 31.0892C9.43871 31.0848 9.41776 31.0776 9.37137 31.0634C9.30793 31.0438 9.19749 31.0118 9.13 30.9497C9.10426 30.9258 9.08518 30.8984 9.07276 30.8688C9.00235 30.7015 9.14452 30.507 9.38147 30.4301C9.48233 30.3975 9.60197 30.384 9.72461 30.384C9.94997 30.384 10.2023 30.4292 10.4046 30.5023C10.516 30.5425 10.6112 30.5911 10.6917 30.6319C10.8196 30.6969 10.8965 30.7331 10.9653 30.7331C10.9796 30.7331 10.9933 30.7315 11.0072 30.728C11.1398 30.6942 11.3289 30.4753 11.4106 30.0766C11.4902 29.6882 11.4591 29.1631 11.3684 28.2934C11.3304 27.9294 11.2819 27.5034 11.2339 27.0827C11.168 26.5035 11.1025 25.9294 11.0647 25.5168C11.0472 25.3272 11.036 25.1749 11.0266 25.047C10.9991 24.679 10.9867 24.5684 10.9307 24.5036C10.8905 24.457 10.8139 24.4252 10.687 24.4252C10.6073 24.4252 10.5127 24.4378 10.4057 24.4646M10.4057 24.4646L10.3987 24.466M10.4057 24.4646C10.1264 24.5343 9.7796 24.6942 9.57227 24.8074C9.37736 24.9138 9.3199 24.9689 9.12416 25.225C8.92566 25.4845 8.59405 25.9388 8.39346 26.2416C8.33659 26.3274 8.28998 26.4015 8.24905 26.4667C8.14767 26.6275 8.07614 26.7426 7.96361 26.8405C7.84644 26.9425 7.67555 27.0344 7.49538 27.0344C7.43851 27.0344 7.38098 27.0249 7.32508 27.004M7.32508 27.004L7.36085 27.0105M7.32508 27.004C7.20305 26.958 7.09695 26.8567 7.02123 26.7856C6.94933 26.7184 6.91267 26.6875 6.89449 26.682C6.89576 26.6823 6.89838 26.6828 6.90122 26.6828C6.90908 26.6828 6.91402 26.6804 6.91431 26.68C6.91379 26.6805 6.90908 26.6835 6.90062 26.6932C6.88334 26.713 6.86516 26.7427 6.83904 26.7857C6.80747 26.8375 6.76752 26.9035 6.71402 26.9649C6.56827 27.1325 6.32809 27.2611 6.04676 27.2831C6.01878 27.2853 5.98982 27.2866 5.96132 27.2866C5.70842 27.2866 5.41145 27.1936 5.32227 26.9175C5.27228 26.7628 5.29391 26.5559 5.30955 26.398C5.32436 26.2487 5.32945 26.162 5.31456 26.1334C5.3174 26.1381 5.32661 26.1428 5.33169 26.1432M5.33169 26.1432C5.33192 26.1433 5.33207 26.1432 5.33169 26.1432ZM5.33169 26.1432C5.32099 26.1432 5.29413 26.1489 5.24662 26.1698C5.2012 26.1898 5.14935 26.2175 5.09002 26.2491C5.02635 26.2831 4.95519 26.3212 4.88456 26.3522C4.71531 26.4265 4.55033 26.4609 4.36418 26.4609C4.26706 26.4609 4.16553 26.4515 4.05561 26.4344C3.77279 26.3901 3.30254 26.2732 3.24919 26.0255C3.21934 25.8875 3.33067 25.7347 3.39157 25.646C3.43609 25.5815 3.45622 25.549 3.45861 25.535" stroke="#372D21" stroke-miterlimit="10"/>
<path d="M13.5103 9L14.0175 9.5" stroke="#372D21" stroke-width="1.5" stroke-linecap="round"/>
<path d="M11.9883 12.0139L11.4812 12.0001" stroke="#372D21" stroke-linecap="round"/>
<path d="M9.45215 9L9.95944 9.5" stroke="#372D21" stroke-width="1.5" stroke-linecap="round"/>
<line x1="24.6707" y1="6.5" x2="51.0498" y2="6.5" stroke="black"/>
<line x1="2.34985" y1="43.5" x2="27.7144" y2="43.5" stroke="black"/>
<line x1="24.6707" y1="9.5" x2="38.8748" y2="9.5" stroke="black"/>
<line x1="2.34985" y1="40.5" x2="16.554" y2="40.5" stroke="black"/>
<path d="M42.9331 9.5H51.0498M42.9331 15.5H51.0498" stroke="black"/>
<line x1="19.5979" y1="40.5" x2="27.7145" y2="40.5" stroke="black"/>
<line x1="24.6707" y1="12.5" x2="36.8456" y2="12.5" stroke="black"/>
<line x1="15.5396" y1="46.5" x2="27.7145" y2="46.5" stroke="black"/>
<line x1="38.8748" y1="12.5" x2="51.0497" y2="12.5" stroke="black"/>
<line x1="24.6707" y1="15.5" x2="40.9039" y2="15.5" stroke="black"/>
</svg>
