<svg width="166" height="166" viewBox="0 0 166 166" fill="none" xmlns="http://www.w3.org/2000/svg">
<path d="M71 72.7292V35.0258C71 31.7105 68.313 29.0234 65 29.0234C61.687 29.0234 59 31.7105 59 35.0258V43.8234" stroke="#FFB800" stroke-width="4" stroke-miterlimit="10"/>
<path d="M59 72.7292V29.0023C59 25.687 56.313 23 53 23C49.687 23 47 25.687 47 29.0023V70.8069" stroke="#FFB800" stroke-width="4" stroke-miterlimit="10"/>
<path d="M47 43.8167V35.3579C47 32.1085 44.5661 29.1933 41.3235 29.0238C37.8617 28.8427 35 31.5956 35 35.0168V83.6825" stroke="#FFB800" stroke-width="4" stroke-miterlimit="10"/>
<path d="M83 143V40.6122C83 37.2969 80.313 34.6099 77 34.6099C73.687 34.6099 71 37.2969 71 40.6122V72.7297" stroke="#FFB800" stroke-width="4" stroke-miterlimit="10"/>
<path d="M35 83.6824V70.4354C35 65.546 32.0783 61.3389 27.8887 59.4684C25.5904 58.4425 23 60.1978 23 62.7154V89.0612C23 103.471 44.4304 109.974 44.4304 119.435V143" stroke="#FFB800" stroke-width="4" stroke-miterlimit="10"/>
<path d="M35 83.6824C44.8609 83.6824 52.8513 91.6776 52.8513 101.541" stroke="#FFB800" stroke-width="4" stroke-miterlimit="10"/>
<path d="M95.002 72.7296V35.0263C95.002 31.711 97.6889 29.0239 101.002 29.0239C104.315 29.0239 107.002 31.711 107.002 35.0263V43.8239" stroke="#FFB800" stroke-width="4" stroke-miterlimit="10"/>
<path d="M107.002 72.7295V29.0026C107.002 25.6873 109.689 23.0002 113.002 23.0002C116.315 23.0002 119.002 25.6873 119.002 29.0026V70.8071" stroke="#FFB800" stroke-width="4" stroke-miterlimit="10"/>
<path d="M118.998 43.8167V35.3579C118.998 32.1085 121.432 29.1933 124.675 29.0238C128.136 28.8427 130.998 31.5956 130.998 35.0168V83.6825" stroke="#FFB800" stroke-width="4" stroke-miterlimit="10"/>
<path d="M83 143V40.6122C83 37.2969 85.687 34.6099 89 34.6099C92.313 34.6099 95 37.2969 95 40.6122V72.7297" stroke="#FFB800" stroke-width="4" stroke-miterlimit="10"/>
<path d="M130.999 83.6824V70.4354C130.999 65.546 133.921 61.3389 138.11 59.4684C140.408 58.4425 142.999 60.1978 142.999 62.7154V89.0612C142.999 103.471 121.568 109.974 121.568 119.435V143" stroke="#FFB800" stroke-width="4" stroke-miterlimit="10"/>
<path d="M131 83.6824C121.139 83.6824 113.148 91.6776 113.148 101.541" stroke="#FFB800" stroke-width="4" stroke-miterlimit="10"/>
<path d="M105.116 65.6378C100.292 62.4708 93.8042 62.6308 89.1034 65.9767C86.4268 67.8825 84.6373 70.4425 83.7216 73.2284C83.4816 73.9555 82.5164 73.9555 82.279 73.2284C81.3634 70.4425 79.5738 67.8802 76.8973 65.9767C72.1964 62.6308 65.7086 62.4708 60.8851 65.6378C52.9625 70.8425 52.1616 81.5931 58.4851 87.9178L72.8407 102.28L83.0016 112.445L93.1625 102.28L107.518 87.9178C113.836 81.5931 113.038 70.8425 105.116 65.6378Z" fill="#D4EEFE" stroke="#00A81B" stroke-width="4" stroke-miterlimit="10"/>
<path d="M105.116 65.6378C100.292 62.4708 93.8042 62.6308 89.1034 65.9767C86.4268 67.8825 84.6373 70.4425 83.7216 73.2284C83.4816 73.9555 82.5164 73.9555 82.279 73.2284C81.3634 70.4425 79.5738 67.8802 76.8973 65.9767C72.1964 62.6308 65.7086 62.4708 60.8851 65.6378C52.9625 70.8425 52.1616 81.5931 58.4851 87.9178L72.8407 102.28L83.0016 112.445L93.1625 102.28L107.518 87.9178C113.836 81.5931 113.038 70.8425 105.116 65.6378Z" fill="#D4EEFE" stroke="#00A81B" stroke-width="4" stroke-miterlimit="10"/>
</svg>
