<svg width="422" height="252" viewBox="0 0 422 252" fill="none" xmlns="http://www.w3.org/2000/svg">
<path d="M13 41H422V222C422 238.569 408.569 252 392 252H13V41Z" fill="#627D83"/>
<path opacity="0.5" d="M0 46C0 34.9543 8.9543 26 20 26H409V217C409 228.046 400.046 237 389 237H0V46Z" fill="#00A81B"/>
<path d="M225 10C225 4.47715 229.477 0 235 0H352C357.523 0 362 4.47715 362 10V41H225V10Z" fill="#00A81B"/>
<rect x="235" y="8" width="118" height="27" fill="#F8F8F8"/>
<path d="M26 63C26 57.4771 30.4772 53 36 53H400V189C400 194.523 395.523 199 390 199H26V63Z" fill="#F8F8F8"/>
</svg>
