<svg width="124" height="122" viewBox="0 0 124 122" fill="none" xmlns="http://www.w3.org/2000/svg">
    <rect width="124" height="122" fill="" />
    <rect width="1400" height="14867" transform="translate(-214 -4005)" fill="" />
    <path d="M50 51.7292V14.0258C50 10.7105 47.313 8.02344 44 8.02344C40.687 8.02344 38 10.7105 38 14.0258V22.8234"
        stroke="#FFB800" stroke-width="4" stroke-miterlimit="10" />
    <path d="M38 51.7292V8.00233C38 4.68705 35.313 2 32 2C28.687 2 26 4.68705 26 8.00233V49.8069" stroke="#FFB800"
        stroke-width="4" stroke-miterlimit="10" />
    <path
        d="M26 22.8167V14.3579C26 11.1085 23.5661 8.19325 20.3235 8.02384C16.8617 7.84266 14 10.5956 14 14.0168V62.6825"
        stroke="#FFB800" stroke-width="4" stroke-miterlimit="10" />
    <path d="M62 122V19.6122C62 16.2969 59.313 13.6099 56 13.6099C52.687 13.6099 50 16.2969 50 19.6122V51.7297"
        stroke="#FFB800" stroke-width="4" stroke-miterlimit="10" />
    <path
        d="M14 62.6824V49.4354C14 44.546 11.0783 40.3389 6.8887 38.4684C4.59043 37.4425 2 39.1978 2 41.7154V68.0612C2 82.4706 23.4304 88.9741 23.4304 98.4352V122"
        stroke="#FFB800" stroke-width="4" stroke-miterlimit="10" />
    <path d="M14 62.6824C23.8609 62.6824 31.8513 70.6776 31.8513 80.5411" stroke="#FFB800" stroke-width="4"
        stroke-miterlimit="10" />
    <path
        d="M74.002 51.7296V14.0263C74.002 10.711 76.6889 8.02393 80.002 8.02393C83.315 8.02393 86.002 10.711 86.002 14.0263V22.8239"
        stroke="#FFB800" stroke-width="4" stroke-miterlimit="10" />
    <path
        d="M86.002 51.7295V8.00257C86.002 4.68729 88.6889 2.00024 92.002 2.00024C95.315 2.00024 98.002 4.68729 98.002 8.00257V49.8071"
        stroke="#FFB800" stroke-width="4" stroke-miterlimit="10" />
    <path
        d="M97.998 22.8167V14.3579C97.998 11.1085 100.432 8.19325 103.675 8.02384C107.136 7.84266 109.998 10.5956 109.998 14.0168V62.6825"
        stroke="#FFB800" stroke-width="4" stroke-miterlimit="10" />
    <path d="M62 122V19.6122C62 16.2969 64.687 13.6099 68 13.6099C71.313 13.6099 74 16.2969 74 19.6122V51.7297"
        stroke="#FFB800" stroke-width="4" stroke-miterlimit="10" />
    <path
        d="M109.999 62.6824V49.4354C109.999 44.546 112.921 40.3389 117.11 38.4684C119.408 37.4425 121.999 39.1978 121.999 41.7154V68.0612C121.999 82.4706 100.568 88.9741 100.568 98.4352V122"
        stroke="#FFB800" stroke-width="4" stroke-miterlimit="10" />
    <path d="M110 62.6824C100.139 62.6824 92.1484 70.6776 92.1484 80.5411" stroke="#FFB800" stroke-width="4"
        stroke-miterlimit="10" />
    <path
        d="M84.1155 44.6378C79.2921 41.4708 72.8042 41.6308 68.1034 44.9767C65.4268 46.8825 63.6373 49.4425 62.7216 52.2284C62.4816 52.9555 61.5164 52.9555 61.279 52.2284C60.3634 49.4425 58.5738 46.8802 55.8973 44.9767C51.1964 41.6308 44.7086 41.4708 39.8851 44.6378C31.9625 49.8425 31.1616 60.5931 37.4851 66.9178L51.8407 81.2801L62.0016 91.4447L72.1625 81.2801L86.5181 66.9178C92.8364 60.5931 92.0381 49.8425 84.1155 44.6378Z"
        fill="#D4EEFE" stroke="#00A81B" stroke-width="4" stroke-miterlimit="10" />
    <path
        d="M84.1155 44.6378C79.2921 41.4708 72.8042 41.6308 68.1034 44.9767C65.4268 46.8825 63.6373 49.4425 62.7216 52.2284C62.4816 52.9555 61.5164 52.9555 61.279 52.2284C60.3634 49.4425 58.5738 46.8802 55.8973 44.9767C51.1964 41.6308 44.7086 41.4708 39.8851 44.6378C31.9625 49.8425 31.1616 60.5931 37.4851 66.9178L51.8407 81.2801L62.0016 91.4447L72.1625 81.2801L86.5181 66.9178C92.8364 60.5931 92.0381 49.8425 84.1155 44.6378Z"
        fill="#D4EEFE" stroke="#00A81B" stroke-width="4" stroke-miterlimit="10" />
</svg>