<svg width="69" height="72" viewBox="0 0 69 72" fill="none" xmlns="http://www.w3.org/2000/svg">
<path d="M44.6945 12.6215C44.6945 16.2735 40.1477 19.2336 34.5391 19.2336C28.9306 19.2336 24.3838 16.273 24.3838 12.6215C24.3838 8.96954 28.9306 6.0094 34.5391 6.0094C40.1477 6.0094 44.6945 8.96954 44.6945 12.6215Z" stroke="#372D21" stroke-width="2" stroke-miterlimit="10" stroke-linecap="round" stroke-linejoin="round"/>
<path d="M62.2484 5.853C62.3495 12.502 62.5275 17.1436 58.2871 21.7828C55.1772 25.1855 50.289 27.5808 44.8694 28.1902L49.9819 67.7004C50.212 69.4763 48.0599 71 45.323 71C43.0053 71 41.0378 69.8948 40.6978 68.4018L35.9451 47.5159C35.8337 47.025 35.175 46.6659 34.4129 46.6807C33.675 46.6946 33.0624 47.0552 32.9657 47.5318L28.7457 68.3544C28.4387 69.8685 26.4566 71 24.1103 71H23.7512C21.0144 71 18.8622 69.4763 19.0923 67.7004L24.2048 28.1902C18.7853 27.5803 13.897 25.1855 10.7872 21.7828C6.52692 17.1201 6.72843 12.4551 6.82882 5.75232" stroke="#372D21" stroke-width="2" stroke-miterlimit="10" stroke-linecap="round" stroke-linejoin="round"/>
<path d="M15.1389 5.90059C15.0488 12.2226 14.8708 15.6704 17.9293 19.0165C18.3074 19.4302 18.7544 19.8224 19.2512 20.1883C21.6935 21.9843 25.2694 22.9513 28.9544 22.9513H34.5381H40.1203C43.8053 22.9513 47.3812 21.9843 49.8243 20.1883C50.3211 19.8229 50.7681 19.4302 51.1462 19.0165C54.2201 15.6536 54.0244 12.1881 53.935 5.80518" stroke="#372D21" stroke-width="2" stroke-miterlimit="10" stroke-linecap="round" stroke-linejoin="round"/>
<path d="M48.5007 3.50464H67.1964" stroke="#372D21" stroke-width="2" stroke-miterlimit="10" stroke-linecap="round" stroke-linejoin="round"/>
<path d="M67.1956 1V6.00931" stroke="#372D21" stroke-width="2" stroke-miterlimit="10" stroke-linecap="round" stroke-linejoin="round"/>
<path d="M48.5007 1V6.00931" stroke="#372D21" stroke-width="2" stroke-miterlimit="10" stroke-linecap="round" stroke-linejoin="round"/>
<path d="M1.2478 3.50464H19.9435" stroke="#372D21" stroke-width="2" stroke-miterlimit="10" stroke-linecap="round" stroke-linejoin="round"/>
<path d="M19.9426 1V6.00931" stroke="#372D21" stroke-width="2" stroke-miterlimit="10" stroke-linecap="round" stroke-linejoin="round"/>
<path d="M1.2478 1V6.00931" stroke="#372D21" stroke-width="2" stroke-miterlimit="10" stroke-linecap="round" stroke-linejoin="round"/>
</svg>
