<svg width="77" height="70" viewBox="0 0 77 70" fill="none" xmlns="http://www.w3.org/2000/svg">
<path d="M1.42305 36.3998C1.07403 36.3998 0.728825 36.2201 0.494169 35.8741C0.0837311 35.2704 0.16675 34.3892 0.680114 33.9066L36.3492 0.306438C36.7834 -0.102146 37.4001 -0.102146 37.8342 0.306438L45.2653 7.30647C45.7787 7.78903 45.8617 8.67024 45.4513 9.27393C45.0413 9.87762 44.292 9.97443 43.7803 9.49286L37.0917 3.19284L2.16514 36.093C1.94616 36.299 1.68355 36.3998 1.42305 36.3998Z" fill="#372D21"/>
<path d="M62.06 70H46.6036C45.9471 70 45.4147 69.373 45.4147 68.6V44.7999H28.7693V68.6C28.7693 69.373 28.2368 70 27.5803 70H12.123C11.4665 70 10.9341 69.373 10.9341 68.6V25.1998C10.9341 24.4268 11.4665 23.7998 12.123 23.7998C12.7796 23.7998 13.312 24.4268 13.312 25.1998V67.2H26.3905V43.3999C26.3905 42.6269 26.9229 41.9999 27.5795 41.9999H46.6028C47.2593 41.9999 47.7917 42.6269 47.7917 43.3999V67.2H60.8702V54.6C60.8702 53.827 61.4027 53.1999 62.0592 53.1999C62.7157 53.1999 63.2481 53.827 63.2481 54.6V68.6C63.249 69.373 62.7166 70 62.06 70Z" fill="#372D21"/>
<path d="M59.6815 53.1999C59.3537 53.1999 59.0398 53.0406 58.8153 52.7591C58.1711 51.9523 43.0361 32.8854 43.0361 22.3998C43.0361 11.5919 50.5032 2.79968 59.6815 2.79968C68.8602 2.79968 76.3269 11.5919 76.3269 22.3998C76.3269 32.8854 61.192 51.9523 60.5477 52.7591C60.3228 53.0406 60.0094 53.1999 59.6815 53.1999ZM59.6815 5.5992C51.8146 5.5992 45.414 13.1359 45.414 22.3993C45.414 30.4578 56.4666 45.5148 59.6815 49.7237C62.8968 45.5148 73.949 30.4578 73.949 22.3993C73.949 13.1359 67.5484 5.5992 59.6815 5.5992Z" fill="#372D21"/>
<path d="M59.6816 30.7997C55.7479 30.7997 52.5479 27.0316 52.5479 22.3997C52.5479 17.7677 55.7479 13.9996 59.6816 13.9996C63.6153 13.9996 66.8153 17.7677 66.8153 22.3997C66.8153 27.0316 63.6153 30.7997 59.6816 30.7997ZM59.6816 16.7992C57.0593 16.7992 54.9258 19.3112 54.9258 22.3992C54.9258 25.4871 57.0593 27.9997 59.6816 27.9997C62.3039 27.9997 64.4374 25.4876 64.4374 22.3997C64.4374 19.3117 62.3039 16.7992 59.6816 16.7992Z" fill="#372D21"/>
</svg>
