<svg width="90" height="70" viewBox="0 0 90 70" fill="none" xmlns="http://www.w3.org/2000/svg">
<path d="M1.40707 36.3998C0.994265 36.3998 0.585969 36.2201 0.308427 35.8741C-0.17702 35.2704 -0.078829 34.3892 0.528355 33.9066L42.7161 0.306438C43.2296 -0.102146 43.9591 -0.102146 44.4726 0.306438L53.2617 7.30647C53.8689 7.78903 53.9671 8.67024 53.4816 9.27393C52.9967 9.87762 52.1105 9.97443 51.5053 9.49286L43.5944 3.19284L2.28478 36.093C2.02578 36.299 1.71517 36.3998 1.40707 36.3998Z" fill="black"/>
<path d="M73.1257 70H54.8445C54.068 70 53.4383 69.373 53.4383 68.6V44.7999H33.7509V68.6C33.7509 69.373 33.1212 70 32.3447 70H14.0625C13.286 70 12.6562 69.373 12.6562 68.6V25.1998C12.6562 24.4268 13.286 23.7998 14.0625 23.7998C14.839 23.7998 15.4687 24.4268 15.4687 25.1998V67.2H30.9374V43.3999C30.9374 42.6269 31.5671 41.9999 32.3437 41.9999H54.8435C55.6201 41.9999 56.2498 42.6269 56.2498 43.3999V67.2H71.7185V54.6C71.7185 53.827 72.3482 53.1999 73.1247 53.1999C73.9012 53.1999 74.5309 53.827 74.5309 54.6V68.6C74.5319 69.373 73.9022 70 73.1257 70Z" fill="black"/>
<path d="M70.3124 53.1999C69.9246 53.1999 69.5534 53.0406 69.2879 52.7591C68.5259 51.9523 50.625 32.8854 50.625 22.3998C50.625 11.5919 59.4567 2.79968 70.3124 2.79968C81.1686 2.79968 89.9998 11.5919 89.9998 22.3998C89.9998 32.8854 72.0989 51.9523 71.3369 52.7591C71.0709 53.0406 70.7002 53.1999 70.3124 53.1999ZM70.3124 5.5992C61.0078 5.5992 53.4375 13.1359 53.4375 22.3993C53.4375 30.4578 66.51 45.5148 70.3124 49.7237C74.1153 45.5148 87.1873 30.4578 87.1873 22.3993C87.1873 13.1359 79.617 5.5992 70.3124 5.5992Z" fill="#00A81B"/>
<path d="M70.3125 30.7997C65.6599 30.7997 61.875 27.0316 61.875 22.3997C61.875 17.7677 65.6599 13.9996 70.3125 13.9996C74.965 13.9996 78.7499 17.7677 78.7499 22.3997C78.7499 27.0316 74.965 30.7997 70.3125 30.7997ZM70.3125 16.7992C67.2109 16.7992 64.6875 19.3112 64.6875 22.3992C64.6875 25.4871 67.2109 27.9997 70.3125 27.9997C73.414 27.9997 75.9374 25.4876 75.9374 22.3997C75.9374 19.3117 73.414 16.7992 70.3125 16.7992Z" fill="#372D21"/>
</svg>
