<svg width="74" height="72" viewBox="0 0 74 72" fill="none" xmlns="http://www.w3.org/2000/svg">
<path d="M56.5925 1L72.1957 16.379" stroke="#372D21" stroke-width="2" stroke-miterlimit="10" stroke-linecap="round" stroke-linejoin="round"/>
<path d="M48.999 16.8578L60.8174 5.16638L67.9671 12.2126L56.2253 23.9796" stroke="#372D21" stroke-width="2" stroke-miterlimit="10" stroke-linecap="round" stroke-linejoin="round"/>
<path d="M45.6067 28.9484L48.9819 32.2748" stroke="#372D21" stroke-width="2" stroke-miterlimit="10" stroke-linecap="round" stroke-linejoin="round"/>
<path d="M39.9392 34.5358L43.3144 37.8622" stroke="#372D21" stroke-width="2" stroke-miterlimit="10" stroke-linecap="round" stroke-linejoin="round"/>
<path d="M34.2678 40.123L37.643 43.4494" stroke="#372D21" stroke-width="2" stroke-miterlimit="10" stroke-linecap="round" stroke-linejoin="round"/>
<path d="M28.6006 45.7106L31.9758 49.037" stroke="#372D21" stroke-width="2" stroke-miterlimit="10" stroke-linecap="round" stroke-linejoin="round"/>
<path d="M22.9331 51.298L26.3069 54.6244" stroke="#372D21" stroke-width="2" stroke-miterlimit="10" stroke-linecap="round" stroke-linejoin="round"/>
<path d="M42.2556 10.2092L62.8502 30.5092" stroke="#372D21" stroke-width="2" stroke-miterlimit="10" stroke-linecap="round" stroke-linejoin="round"/>
<path d="M42.2556 10.2092L62.8502 30.5092" stroke="#372D21" stroke-width="2" stroke-miterlimit="10" stroke-linecap="round" stroke-linejoin="round"/>
<path d="M24.0026 62.7399L12.3242 61.6185C11.4608 61.5359 10.7787 60.8625 10.6948 60.0113L9.55593 48.5005C9.49111 47.8439 9.7283 47.1929 10.2012 46.7253L44.7519 12.6703L60.3536 28.0493L25.8029 62.1043C25.3286 62.5705 24.6685 62.8043 24.0026 62.7399Z" stroke="#372D21" stroke-width="2" stroke-miterlimit="10" stroke-linecap="round" stroke-linejoin="round"/>
<path d="M10.8381 61.4758L1.17505 71" stroke="#372D21" stroke-width="2" stroke-miterlimit="10" stroke-linecap="round" stroke-linejoin="round"/>
</svg>
