<svg width="369" height="200" viewBox="0 33 369 208" fill="none" xmlns="http://www.w3.org/2000/svg">
    <path
        d="M160.366 224.626C159.055 225.866 156.128 229.735 152.667 232.294C149.061 234.959 144.547 236.818 142.362 237.765C140.178 238.712 129.33 245.968 111.633 234.175C93.9353 222.382 95.5864 223.154 97.7314 221.862C117.787 209.779 128.572 237.943 145.544 231.285C155.171 227.508 163.525 219.42 164.904 214.623C168.817 214.732 161.676 223.385 160.366 224.626Z"
        fill="black" />
    <path
        d="M249.472 132.757C251.427 135.815 250.067 143.418 249.472 146.915C248.928 150.108 246.227 156.193 244.519 159.021C243.035 161.478 238.909 165.746 236.638 167.64C234.667 169.281 227.856 173.18 227.856 173.18C227.856 173.18 224.653 176.609 222.904 143.63C222.675 139.317 220.019 110.368 221.553 116.544C241.419 196.609 245.307 126.238 249.472 132.757Z"
        fill="black" />
    <path
        d="M187.697 128.517C187.697 128.517 171.935 126.944 167.559 126.907C162.64 126.864 147.369 124.807 142.795 126.453C137.47 128.367 129.06 133.896 124.766 137.347C121.452 140.01 117.722 145.529 115.543 149.033C113.807 151.825 111.865 158.251 112.008 161.457C112.148 164.61 114.466 170.658 115.438 173.685C116.111 175.785 117.815 182.163 117.815 182.163C117.815 182.163 112.719 175.509 115.957 158.329C119.535 139.343 137.688 129.742 149.282 127.103C158.372 125.036 187.697 128.517 187.697 128.517Z"
        fill="black" />
    <path
        d="M220.012 44.7686C220.012 44.7686 214.676 45.9971 210.706 57.6034C204.745 75.0325 209.297 92.3997 208.921 97.3367C207.716 113.143 185.808 125.216 185.808 125.216C185.808 125.216 211.882 116.065 211.882 89.7588C211.882 48.3283 220.012 44.7686 220.012 44.7686Z"
        fill="black" />
    <path
        d="M264.263 78.1279C265.092 75.7368 261.254 85.1875 260.896 87.6735C260.196 92.532 261.687 102.377 262.516 107.219C263.157 110.963 264.723 117.719 264.886 122.218C265.063 127.093 261.893 141.536 261.893 141.536C261.893 141.536 259.829 151.084 259.138 154.266C258.922 155.259 258.277 158.241 258.277 158.241C258.277 158.241 265.418 142.494 266.88 136.992C267.847 133.347 269.025 125.852 268.876 122.106C268.715 118.082 267.385 110.058 266.132 106.197C263.415 97.82 258.746 94.0497 264.263 78.1279Z"
        fill="black" />
    <path
        d="M272.964 41.5539C272.993 42.7701 268.852 52.9083 270.984 46.0139C271.197 45.3284 270.753 42.0866 269.778 41.2442C269.203 40.7466 267.266 40.6557 267.3 39.4416C267.325 38.5826 267.8 34.8288 268.582 34.2197C269.096 33.8191 270.707 36.3857 270.707 36.3857C270.707 36.3857 272.935 40.3026 272.964 41.5539Z"
        fill="black" />
    <path
        d="M271.223 41.0439C271.597 40.8704 271.653 40.4595 271.642 40.1147C271.624 39.5551 271.449 38.9956 271.254 38.467C270.813 37.2694 270.201 36.0924 269.453 35.0291C269.329 34.8535 269.181 34.6512 269.05 34.5025C269.023 34.4716 268.993 34.4406 268.964 34.4096C268.912 34.3539 268.941 34.3869 268.923 34.3683C268.841 34.2878 269.029 34.4365 269.027 34.422C269.027 34.4137 269.023 34.422 269.029 34.4199C269.011 34.4241 268.932 34.4199 268.912 34.4199C268.821 34.4199 268.73 34.4241 268.642 34.4282C268.402 34.4406 268.164 34.4633 267.926 34.4901C267.43 34.548 266.938 34.6305 266.449 34.7276C265.479 34.9217 264.487 35.1571 263.585 35.5453C262.964 35.8116 262.411 36.206 261.867 36.5839C260.748 37.3644 259.667 38.1924 258.609 39.0389C258.589 39.0513 258.569 39.0534 258.546 39.0431C257.279 38.6301 255.99 38.2605 254.692 37.9404C253.806 37.7216 252.902 37.5089 251.987 37.4304C251.606 37.3974 251.225 37.4387 250.847 37.4821C249.463 37.6369 248.089 37.8888 246.73 38.1655C245.142 38.4876 243.556 38.8572 242.024 39.361C241.36 39.5799 240.69 39.8194 240.089 40.1663C239.79 40.3398 239.337 40.6123 239.33 40.9778C239.328 41.0748 239.106 40.9324 239.079 40.9138C239.002 40.8642 238.795 40.7321 238.798 40.6247C238.804 40.3026 239.108 40.061 239.371 39.8876C239.831 39.584 240.363 39.3693 240.887 39.1752C242.353 38.6301 243.896 38.2564 245.434 37.9219C246.889 37.6059 248.357 37.3313 249.836 37.1331C250.278 37.0732 250.725 37.0113 251.171 37.001C251.855 36.9844 252.567 37.1496 253.228 37.29C254.83 37.6266 256.407 38.0829 257.959 38.5764C258.016 38.595 258.072 38.6094 258.127 38.6301C258.181 38.6507 258.075 38.6714 258.115 38.6239C258.22 38.5041 258.394 38.403 258.521 38.3039C259.119 37.8351 259.722 37.3726 260.334 36.9184C261.006 36.4207 261.686 35.9231 262.411 35.4895C263.123 35.0642 263.929 34.8102 264.743 34.5975C265.785 34.325 266.861 34.1102 267.944 34.0297C268.23 34.009 268.542 33.9512 268.801 34.0896C269.005 34.199 269.181 34.3559 269.335 34.517C269.714 34.9114 270.013 35.3718 270.298 35.824C270.679 36.429 271.019 37.0567 271.318 37.6989C271.612 38.3286 271.877 38.977 272.045 39.646C272.158 40.0961 272.269 40.633 272.086 41.081C272.02 41.24 271.909 41.3701 271.744 41.4465C271.578 41.5188 271.177 41.0666 271.223 41.0439Z"
        fill="black" />
    <path
        d="M263.807 77.3949C263.807 80.3827 256.547 86.8704 251.862 86.9199C243.798 87.0046 234.946 80.9609 226.026 66.1293C224.603 63.763 245.205 88.4087 260.823 78.7082"
        fill="black" />
    <path
        d="M224.508 37.2013C226.545 35.9644 232.989 36.237 234.518 36.8275C238.93 38.5269 238.794 39.2971 239.41 40.2572C239.965 41.1203 241.196 44.4488 241.196 44.4488C241.196 44.4488 234.874 32.5513 225.34 38.4051C222.773 39.9805 219.057 47.4076 223.838 49.1689C224.617 49.4559 221.765 48.6011 221.49 46.974C221.046 44.3228 221.862 38.5434 224.443 37.2529"
        fill="black" />
    <path
        d="M260.822 64.1782C262.678 63.0735 257.959 65.7537 251.71 65.9684C249.974 66.0283 247.253 65.3262 245.676 64.6634C244.369 64.1121 238.899 59.5014 241.197 61.3597C248.103 66.943 256.697 66.6374 260.822 64.1782Z"
        fill="#665151" />
    <path
        d="M259.805 63.7261C259.909 63.6641 260.145 63.5712 260.213 63.4618C260.836 63.7591 261.461 64.0544 262.084 64.3517C262.327 64.4095 261.885 64.4859 261.733 64.5396C261.339 64.6821 260.943 64.8266 260.544 64.9588C259.239 65.3924 257.897 65.7434 256.536 65.9953C253.429 66.5714 250.642 66.4764 247.649 65.5163C245.778 64.9154 244.228 64.0833 242.706 62.9435C241.969 62.3922 241.249 61.8264 240.537 61.2483C240.385 61.1265 239.617 60.6681 239.626 60.4678C239.629 60.412 241.394 61.1636 241.55 61.2648C242.731 62.0371 243.737 62.9703 245.001 63.6559C246.822 64.6449 248.989 65.1343 251.087 65.3222C254.055 65.5906 257.249 65.2065 259.805 63.7261C260.242 63.4721 261.647 64.744 261.842 64.6305C258.613 66.5012 254.399 66.656 250.756 65.9106C248.497 65.4481 246.329 64.6077 244.312 63.5836C242.651 62.7391 241.201 61.5332 239.742 60.5793C240.383 60.8457 241.024 61.11 241.663 61.3763C241.661 61.4403 242.339 61.9235 242.465 62.0267C243.036 62.4913 243.614 62.9476 244.201 63.3957C244.772 63.8314 245.37 64.234 245.955 64.6552C246.338 64.9319 245.998 64.5561 245.819 64.5954C246.079 64.5396 246.668 64.8679 246.927 64.9381C247.62 65.1281 248.325 65.285 249.038 65.3903C251.671 65.7764 254.506 65.2086 257.023 64.5086C257.834 64.2836 258.634 64.0234 259.422 63.7385C259.696 63.6393 260.073 63.406 260.376 63.4804C260.569 63.5258 262.338 64.2258 262.248 64.3703C262.18 64.4797 261.944 64.5706 261.84 64.6346C261.416 64.8844 259.989 63.6146 259.805 63.7261Z"
        fill="#7A6464" />
    <path
        d="M260.18 56.9844C259.931 58.6218 255.377 59.8214 253.569 59.7058C252.278 59.6232 248.856 53.7715 248.856 53.7715C248.856 53.7715 258.796 58.3162 252.289 53.5816C251.496 53.0055 255.436 53.2656 256.342 53.6786C257.523 54.2196 260.362 55.793 260.18 56.9844Z"
        fill="black" />
    <path
        d="M261.197 57.4386C260.837 58.9831 258.213 59.6253 256.79 59.9267C255.088 60.2881 253.86 60.1869 252.381 59.2784C251.169 58.5351 250.362 57.2218 249.608 56.1172C248.994 55.2169 248.407 54.2981 247.858 53.3606C247.818 53.2904 248.806 53.6353 248.903 53.6786C249.401 53.9058 253.303 55.729 253.475 55.1261C253.693 54.3621 250.321 53.245 251.495 52.8341C252.17 52.5987 253.28 52.8197 253.967 52.9084C254.828 53.022 255.605 53.2409 256.387 53.5857C257.415 54.0379 258.421 54.5748 259.339 55.1963C260.1 55.7104 261.24 56.4682 261.197 57.4386C261.201 57.3148 259.142 56.939 259.16 56.5343C259.214 55.3201 257.483 54.4798 256.541 53.9119C256.423 53.8479 256.303 53.786 256.183 53.7282C256.881 53.9842 257.001 54.0524 256.541 53.9347C256.262 53.9305 255.956 53.8397 255.678 53.8066C255.161 53.7468 254.638 53.7055 254.116 53.7117C253.879 53.7158 253.249 53.6538 253.212 53.9347C253.194 54.0792 254.382 54.8287 254.54 54.9609C254.706 55.0971 255.709 55.8178 255.492 56.1213C255.132 56.6189 252.549 55.4337 252.184 55.2933C251.042 54.8494 249.914 54.3745 248.806 53.8665C249.155 53.9718 249.501 54.0792 249.85 54.1845C250.886 55.9499 251.989 57.8041 253.434 59.3218C253.579 59.4746 253.856 59.6397 253.956 59.8111C254.218 60.0073 254.003 59.9206 253.308 59.553C252.521 59.3156 252.342 59.2165 252.771 59.2536C252.864 59.2206 253.054 59.2516 253.156 59.2454C254.005 59.2082 254.855 59.0244 255.666 58.7952C256.878 58.4504 258.859 57.8372 259.162 56.5322C259.158 56.5446 261.269 57.1351 261.197 57.4386Z"
        fill="black" />
    <path d="M273.502 55.2085C276.744 60.4552 282.646 60.9466 281.67 62.264L273.502 55.2085Z" fill="black" />
    <path
        d="M273.755 55.3489C274.835 57.0833 276.376 58.4833 278.207 59.5632C278.859 59.9472 279.539 60.292 280.214 60.6431C280.706 60.8991 281.216 61.1572 281.628 61.5165C281.92 61.7725 282.188 62.105 281.932 62.4622C281.873 62.5427 281.329 62.1772 281.411 62.0637C281.492 61.9501 281.533 61.8345 281.499 61.7003C281.483 61.6362 281.46 61.6197 281.426 61.5743C281.47 61.6362 281.349 61.4958 281.417 61.5619C281.406 61.5495 281.393 61.5392 281.381 61.5289C281.334 61.4876 281.426 61.5619 281.356 61.5082C281.302 61.4669 281.25 61.4298 281.136 61.3616C281.078 61.3245 280.921 61.2377 280.826 61.1841C280.556 61.0354 280.282 60.897 280.008 60.7546C278.438 59.9431 276.927 59.0511 275.633 57.8907C274.697 57.0524 273.897 56.1025 273.252 55.0639C273.177 54.9442 273.388 55.033 273.424 55.0515C273.549 55.1238 273.68 55.2291 273.755 55.3489Z"
        fill="black" />
    <path
        d="M275.432 62.5264C274.274 62.7762 271.592 63.8747 271.485 64.9567C271.32 66.6415 278.67 69.7925 278.67 69.7925C278.67 69.7925 280.238 67.2878 280.476 66.7365C280.947 65.6525 281.083 63.2078 281.083 63.2078C281.083 63.2078 276.821 62.227 275.432 62.5264Z"
        fill="black" />
    <path
        d="M276.452 62.9784C275.233 63.2654 273.405 63.8848 272.714 64.9234C272.129 65.801 273.14 66.5526 273.838 67.0626C275.308 68.1342 277.037 68.9725 278.723 69.6973C278.367 69.5775 278.011 69.4578 277.655 69.338C278.26 68.3717 278.945 67.3991 279.42 66.375C279.932 65.2703 280 63.9406 280.071 62.7533C280.694 63.0506 281.319 63.3459 281.942 63.6432C280.27 63.2633 278.174 62.679 276.452 62.9784C276.146 63.0321 275.65 62.7368 275.385 62.6191C275.238 62.553 274.52 62.0554 274.418 62.074C276.267 61.7539 278.439 62.361 280.234 62.7698C280.506 62.8318 282.123 63.3666 282.105 63.6598C282.037 64.847 281.967 66.1768 281.455 67.2815C280.982 68.3077 280.295 69.2781 279.69 70.2445C279.622 70.3539 278.657 69.8996 278.623 69.8852C276.466 68.9581 274.291 67.9112 272.374 66.6166C271.71 66.1685 270.466 65.419 270.471 64.5518C270.478 63.2117 273.303 62.3383 274.418 62.074C274.705 62.0059 275.236 62.3238 275.485 62.4333C275.614 62.4911 276.373 62.997 276.452 62.9784Z"
        fill="black" />
    <path
        d="M272.687 72.9432C271.402 72.8399 268.396 71.0436 267.541 69.2451C267.097 68.3077 264.931 71.4421 264.768 72.4518C264.682 72.9886 264.628 74.4237 265.194 74.5909C266.202 74.8862 268.638 75.008 269.78 74.882C270.897 74.7582 273.165 74.403 274.153 73.9095C275.061 73.4553 278.023 70.7916 277.139 71.2851C276.387 71.7043 273.908 73.0423 272.687 72.9432Z"
        fill="black" />
    <path
        d="M272.922 73.1518C272.009 73.0672 271.126 72.5654 270.382 72.1091C269.397 71.5041 268.459 70.7628 267.772 69.875C267.632 69.6912 267.5 69.5012 267.389 69.301C267.358 69.2431 267.276 69.142 267.276 69.08C267.263 68.1116 267.507 69.303 267.548 69.2824C267.53 69.2906 267.498 69.2782 267.478 69.2865C267.201 69.4063 266.997 69.5529 266.789 69.7655C266.209 70.3561 265.74 71.0643 265.371 71.7787C265.022 72.4519 264.922 73.125 265.006 73.8683C265.031 74.0769 265.112 74.2586 265.155 74.4589C265.198 74.655 265.323 74.304 264.999 74.3907C265.013 74.3866 265.087 74.4155 265.094 74.4176C265.223 74.4362 265.355 74.4774 265.484 74.5022C266.023 74.6013 266.574 74.6509 267.122 74.6839C268.169 74.75 269.198 74.7355 270.235 74.5889C271.37 74.43 272.573 74.2524 273.632 73.8291C274.406 73.5214 275.054 72.9103 275.662 72.392C275.988 72.1132 276.307 71.8304 276.613 71.5351C276.722 71.4298 276.829 71.3245 276.926 71.213C276.953 71.182 276.976 71.1407 277.008 71.1118C277.048 71.0746 277.014 71.0416 277.044 71.0911C277.132 71.1758 277.223 71.2605 277.311 71.3451C277.714 71.6197 277.547 71.3823 277.47 71.4504C277.438 71.4793 277.375 71.5 277.336 71.5227C277.186 71.6053 277.035 71.6879 276.883 71.7684C276.468 71.9893 276.045 72.1979 275.614 72.394C274.817 72.7513 273.842 73.2097 272.922 73.1518C272.789 73.1436 272.655 73.0321 272.562 72.9495C272.544 72.933 272.354 72.7285 272.451 72.7347C273.049 72.774 273.661 72.5634 274.207 72.361C274.853 72.1215 275.474 71.8262 276.079 71.5144C276.303 71.3988 276.527 71.279 276.747 71.1572C276.826 71.1139 276.946 71.0189 277.044 71.0148C277.202 71.0065 277.56 71.2625 277.565 71.4091C277.567 71.4814 277.488 71.5537 277.445 71.6053C276.844 72.2991 276.067 72.9061 275.333 73.476C275.016 73.7217 274.687 73.9819 274.311 74.1533C273.693 74.4341 272.999 74.5869 272.329 74.7232C270.985 74.9978 269.646 75.1692 268.269 75.1258C267.553 75.1031 266.837 75.0515 266.13 74.9441C265.563 74.8574 265.004 74.7397 264.691 74.2503C264.41 73.8084 264.426 73.2076 264.453 72.7141C264.476 72.3073 264.569 71.9501 264.745 71.5764C264.967 71.1097 265.244 70.6617 265.547 70.2363C265.828 69.8419 266.136 69.4372 266.524 69.1213C266.769 68.921 267.027 68.7786 267.337 68.9499C267.555 69.0697 267.709 69.2328 267.818 69.4393C267.965 69.7201 268.142 69.9844 268.35 70.2322C269.193 71.2378 270.448 72.105 271.744 72.5634C271.969 72.6418 272.206 72.712 272.447 72.7347C272.583 72.7471 272.712 72.8524 272.807 72.9371C272.827 72.9515 273.018 73.1601 272.922 73.1518Z"
        fill="black" />
    <path
        d="M234.62 43.0818C238.449 43.8313 231.396 39.6046 229.86 39.5241C228.777 39.4684 226.794 40.8373 226.214 41.6736C225.695 42.421 224.42 47.0421 224.9 46.274C225.947 44.5994 225.075 41.2111 234.62 43.0818Z"
        fill="black" />
    <path
        d="M94.9697 177.677C96.1904 176.293 98.0296 175.602 100.487 175.602C102.961 175.602 104.524 175.781 105.175 176.139L105.834 176.749C105.834 177.335 105.508 178.019 104.857 178.8C104.206 179.565 103.832 180.077 103.734 180.338C103.36 181.282 103.173 182.6 103.173 184.293C103.173 185.986 103.197 187.41 103.246 188.565L103.49 192.887C103.572 194.824 103.612 196.996 103.612 199.405C103.612 201.814 103.718 203.328 103.93 203.946C104.158 204.549 104.589 205.118 105.224 205.655L106.615 206.876C106.615 207.804 105.639 208.268 103.686 208.268C100.967 208.268 98.819 208.089 97.2402 207.73C96.1172 207.47 95.5557 206.957 95.5557 206.192L95.7266 205.509C96.3288 203.604 96.6299 202.18 96.6299 201.236C96.6299 200.276 96.516 198.478 96.2881 195.841C96.0765 193.204 95.9707 190.836 95.9707 188.736C95.9707 186.637 95.8893 185.587 95.7266 185.587C95.3034 185.587 94.0745 188.305 92.04 193.741C90.0055 199.177 88.5977 202.66 87.8164 204.19C86.6771 206.437 85.554 207.56 84.4473 207.56C83.3568 207.56 82.4779 206.884 81.8105 205.533L81.249 204.19C81.07 203.735 80.5329 202.359 79.6377 200.064L77.4648 194.571C75.1536 188.744 73.7458 185.831 73.2412 185.831C72.7529 185.831 72.5088 188.069 72.5088 192.545C72.5088 194.677 72.5495 196.492 72.6309 197.989L72.8262 200.553C72.8913 201.383 72.9238 202.213 72.9238 203.043L73.0215 204.215L73.1436 205.191C73.1924 205.696 73.2168 206.363 73.2168 207.193L72.8018 207.682C72.0531 208.219 71.0277 208.487 69.7256 208.487C66.682 208.487 65.1602 208.105 65.1602 207.34C65.1602 207.014 65.4694 206.42 66.0879 205.558C66.7227 204.695 67.1621 203.881 67.4062 203.116C67.6504 202.335 67.7725 200.634 67.7725 198.014L67.8213 196.573L67.9189 195.108C68.1468 190.551 68.2607 187.507 68.2607 185.978C68.2607 184.448 68.1549 183.235 67.9434 182.34C67.748 181.445 67.2842 180.403 66.5518 179.215C65.8356 178.01 65.4775 177.148 65.4775 176.627L65.9902 176.041C66.6738 175.536 67.39 175.284 68.1387 175.284H69.457C71.0684 175.284 72.5658 175.602 73.9492 176.236C75.3327 176.855 76.3825 177.685 77.0986 178.727L77.7822 179.85C78.3356 180.842 78.8971 182.088 79.4668 183.585C80.0365 185.066 80.8665 187.035 81.957 189.493C83.0475 191.935 83.9834 193.798 84.7646 195.084L85.3994 195.89C85.8551 195.89 87.4176 193.017 90.0869 187.271C92.7725 181.526 94.4001 178.328 94.9697 177.677ZM121.41 194.254V194.498C121.41 194.693 122.167 194.791 123.681 194.791H126.488C128.718 194.791 129.833 194.661 129.833 194.4C129.833 193.701 129.141 191.552 127.758 187.955C126.374 184.358 125.658 182.56 125.609 182.56C125.577 182.56 124.869 184.366 123.485 187.979C122.102 191.576 121.41 193.668 121.41 194.254ZM126.22 175.064H126.928C128.132 175.064 129.483 176.35 130.98 178.922C131.501 179.817 132.283 181.673 133.324 184.488C134.366 187.304 135.261 189.64 136.01 191.495C136.758 193.351 137.572 195.564 138.451 198.136C139.346 200.691 139.989 202.392 140.38 203.238C140.787 204.068 141.503 204.866 142.528 205.631C143.554 206.396 144.066 207.063 144.066 207.633C144.066 208.186 143.716 208.552 143.017 208.731C141.877 209.008 139.053 209.146 134.545 209.146C132.494 209.146 131.469 208.707 131.469 207.828C131.469 207.6 131.632 207.047 131.957 206.168C132.283 205.273 132.445 204.614 132.445 204.19C132.445 202.188 131.965 200.504 131.005 199.137C130.614 198.583 129.385 198.307 127.318 198.307C123.526 198.307 121.378 198.429 120.873 198.673C120.385 198.917 119.88 199.535 119.359 200.528C118.855 201.521 118.603 202.441 118.603 203.287C118.603 204.133 118.83 205.045 119.286 206.021C119.758 206.998 119.994 207.763 119.994 208.316C119.994 209 119.262 209.342 117.797 209.342C114.314 209.342 111.986 209.179 110.814 208.854C110.066 208.642 109.691 208.113 109.691 207.267C109.691 207.153 110.432 206.445 111.913 205.143C112.727 204.426 113.378 203.491 113.866 202.335C117.382 193.953 119.612 187.882 120.556 184.122C121.516 180.346 122.33 177.896 122.997 176.773C123.664 175.634 124.739 175.064 126.22 175.064ZM157.86 190.665C157.86 191.593 158.023 192.228 158.349 192.569C158.69 192.895 159.439 193.058 160.595 193.058H161.767C163.443 193.058 164.81 192.431 165.868 191.178C166.926 189.924 167.455 188.15 167.455 185.855L167.431 185.611C167.431 183.3 166.828 181.485 165.624 180.167C164.42 178.849 162.89 178.189 161.034 178.189H160.424C159.057 178.189 158.251 178.523 158.007 179.19C157.925 179.402 157.885 180.631 157.885 182.877V186.588L157.86 187.516V190.665ZM147.875 207.779C147.875 206.656 148.355 205.769 149.315 205.118C150.276 204.451 150.829 203.71 150.976 202.896C151.203 201.611 151.317 197.94 151.317 191.886C151.317 185.831 151.171 182.201 150.878 180.997C150.585 179.776 150.17 178.938 149.633 178.482C148.461 177.506 147.875 176.871 147.875 176.578V176.188C147.875 175.52 148.485 175.097 149.706 174.918C150.048 174.869 151.781 174.845 154.906 174.845L158.129 174.796H158.764L160.692 174.869H162.646C168.407 174.869 172.248 176.651 174.169 180.216C174.901 181.583 175.268 183.032 175.268 184.562V185.245C175.268 187.979 174.267 190.291 172.265 192.179C170.263 194.05 167.439 195.149 163.793 195.475C161.645 195.67 160.432 195.833 160.155 195.963C159.065 196.451 158.52 198.266 158.52 201.407C158.52 202.856 159.024 203.987 160.033 204.801C161.384 205.891 162.06 206.811 162.06 207.56C162.06 208.146 161.433 208.552 160.18 208.78C158.943 209.008 157.144 209.122 154.784 209.122C150.178 209.122 147.875 208.674 147.875 207.779ZM190.844 174.649C195.189 174.649 198.111 175.032 199.608 175.797C200.731 176.367 201.293 177.831 201.293 180.191C201.293 182.551 200.894 183.731 200.097 183.731C199.446 183.731 198.38 183.048 196.898 181.681C195.417 180.297 194.294 179.394 193.529 178.971C192.764 178.548 191.763 178.336 190.526 178.336C189.306 178.336 188.256 178.735 187.377 179.532C186.514 180.33 186.083 181.282 186.083 182.389C186.083 183.87 186.897 185.196 188.524 186.368C189.338 186.954 191.218 187.906 194.164 189.225C197.11 190.543 199.21 191.837 200.463 193.106C202.237 194.913 203.124 196.948 203.124 199.21C203.124 203.93 200.788 207.112 196.117 208.756C194.734 209.244 193.318 209.488 191.869 209.488H190.99C189.2 209.488 187.214 209.285 185.033 208.878C182.852 208.471 181.477 208.072 180.907 207.682C179.849 206.949 179.32 205.248 179.32 202.579V201.749C179.32 200.024 179.784 199.161 180.712 199.161C181.363 199.161 182.396 199.991 183.812 201.651C185.229 203.312 186.417 204.418 187.377 204.972C188.354 205.525 189.59 205.802 191.088 205.802C192.602 205.802 193.871 205.37 194.896 204.508C195.922 203.645 196.435 202.709 196.435 201.7C196.435 200.187 195.979 198.941 195.067 197.965C194.156 196.988 192.341 195.873 189.623 194.62C186.905 193.367 185.025 192.358 183.983 191.593C181.119 189.477 179.687 186.938 179.687 183.976C179.687 183.357 179.752 182.714 179.882 182.047C180.419 179.247 182.217 177.132 185.277 175.699C186.775 174.999 188.337 174.649 189.965 174.649H190.844ZM217.211 194.254V194.498C217.211 194.693 217.968 194.791 219.481 194.791H222.289C224.519 194.791 225.634 194.661 225.634 194.4C225.634 193.701 224.942 191.552 223.559 187.955C222.175 184.358 221.459 182.56 221.41 182.56C221.378 182.56 220.67 184.366 219.286 187.979C217.903 191.576 217.211 193.668 217.211 194.254ZM222.021 175.064H222.729C223.933 175.064 225.284 176.35 226.781 178.922C227.302 179.817 228.083 181.673 229.125 184.488C230.167 187.304 231.062 189.64 231.811 191.495C232.559 193.351 233.373 195.564 234.252 198.136C235.147 200.691 235.79 202.392 236.181 203.238C236.588 204.068 237.304 204.866 238.329 205.631C239.354 206.396 239.867 207.063 239.867 207.633C239.867 208.186 239.517 208.552 238.817 208.731C237.678 209.008 234.854 209.146 230.346 209.146C228.295 209.146 227.27 208.707 227.27 207.828C227.27 207.6 227.432 207.047 227.758 206.168C228.083 205.273 228.246 204.614 228.246 204.19C228.246 202.188 227.766 200.504 226.806 199.137C226.415 198.583 225.186 198.307 223.119 198.307C219.327 198.307 217.178 198.429 216.674 198.673C216.186 198.917 215.681 199.535 215.16 200.528C214.656 201.521 214.403 202.441 214.403 203.287C214.403 204.133 214.631 205.045 215.087 206.021C215.559 206.998 215.795 207.763 215.795 208.316C215.795 209 215.062 209.342 213.598 209.342C210.115 209.342 207.787 209.179 206.615 208.854C205.867 208.642 205.492 208.113 205.492 207.267C205.492 207.153 206.233 206.445 207.714 205.143C208.528 204.426 209.179 203.491 209.667 202.335C213.183 193.953 215.412 187.882 216.356 184.122C217.317 180.346 218.131 177.896 218.798 176.773C219.465 175.634 220.539 175.064 222.021 175.064ZM273.632 201.188C273.599 202.115 273.583 203.434 273.583 205.143C273.583 206.835 273.477 207.836 273.266 208.146C273.07 208.438 272.558 208.585 271.728 208.585C271.451 208.585 270.759 208.284 269.652 207.682C268.546 207.063 267.545 206.201 266.649 205.094C266.275 204.638 263.866 201.163 259.423 194.669C254.979 188.175 252.359 184.928 251.562 184.928C251.236 184.928 251.073 187.141 251.073 191.568C251.073 195.979 251.391 199.951 252.025 203.482C252.204 204.475 252.514 205.281 252.953 205.899C253.409 206.518 253.637 207.031 253.637 207.438L253.441 207.999C252.969 208.552 251.407 208.829 248.754 208.829H247.704C245.604 208.829 244.359 208.674 243.969 208.365C243.578 208.056 243.383 207.592 243.383 206.974C243.383 206.632 243.83 206.192 244.726 205.655C245.637 205.102 246.182 204.557 246.361 204.02C246.459 203.727 246.508 202.278 246.508 199.674L246.557 198.502L246.63 194.986C246.679 192.659 246.703 190.014 246.703 187.052C246.703 184.073 246.589 182.21 246.361 181.461C246.15 180.696 245.556 179.955 244.579 179.239C243.603 178.507 243.114 177.848 243.114 177.262C243.114 176.66 243.342 176.204 243.798 175.895C244.27 175.569 245.173 175.406 246.508 175.406H247.606C250.243 175.406 252.587 176.521 254.638 178.751C256.688 180.981 259.423 184.586 262.841 189.566C266.275 194.547 268.253 197.037 268.773 197.037C269.392 197.037 269.701 193.831 269.701 187.418C269.701 182.649 269.172 179.646 268.114 178.409C267.512 177.693 267.211 177.197 267.211 176.92C267.211 176.188 267.951 175.821 269.433 175.821C272.395 175.821 274.429 175.951 275.536 176.212C276.659 176.456 277.221 176.977 277.221 177.774C277.221 178.246 276.732 178.979 275.756 179.972C274.796 180.948 274.267 181.64 274.169 182.047C274.071 182.438 274.022 184.326 274.022 187.711L273.705 199.039L273.681 200.113L273.632 201.188ZM291.234 194.254V194.498C291.234 194.693 291.991 194.791 293.505 194.791H296.312C298.542 194.791 299.657 194.661 299.657 194.4C299.657 193.701 298.965 191.552 297.582 187.955C296.199 184.358 295.482 182.56 295.434 182.56C295.401 182.56 294.693 184.366 293.31 187.979C291.926 191.576 291.234 193.668 291.234 194.254ZM296.044 175.064H296.752C297.956 175.064 299.307 176.35 300.805 178.922C301.326 179.817 302.107 181.673 303.148 184.488C304.19 187.304 305.085 189.64 305.834 191.495C306.583 193.351 307.396 195.564 308.275 198.136C309.171 200.691 309.813 202.392 310.204 203.238C310.611 204.068 311.327 204.866 312.353 205.631C313.378 206.396 313.891 207.063 313.891 207.633C313.891 208.186 313.541 208.552 312.841 208.731C311.701 209.008 308.878 209.146 304.369 209.146C302.318 209.146 301.293 208.707 301.293 207.828C301.293 207.6 301.456 207.047 301.781 206.168C302.107 205.273 302.27 204.614 302.27 204.19C302.27 202.188 301.789 200.504 300.829 199.137C300.438 198.583 299.21 198.307 297.143 198.307C293.35 198.307 291.202 198.429 290.697 198.673C290.209 198.917 289.704 199.535 289.184 200.528C288.679 201.521 288.427 202.441 288.427 203.287C288.427 204.133 288.655 205.045 289.11 206.021C289.582 206.998 289.818 207.763 289.818 208.316C289.818 209 289.086 209.342 287.621 209.342C284.138 209.342 281.811 209.179 280.639 208.854C279.89 208.642 279.516 208.113 279.516 207.267C279.516 207.153 280.256 206.445 281.737 205.143C282.551 204.426 283.202 203.491 283.69 202.335C287.206 193.953 289.436 187.882 290.38 184.122C291.34 180.346 292.154 177.896 292.821 176.773C293.489 175.634 294.563 175.064 296.044 175.064Z"
        fill="#372D21" />
</svg>