<svg width="109" height="88" viewBox="0 0 109 88" fill="none" xmlns="http://www.w3.org/2000/svg">
<path d="M19.5319 15.0222C19.5196 13.0806 21.0902 11.5 23.0319 11.5H59C60.933 11.5 62.5 13.067 62.5 15V64.8972H55.4706C51.8807 64.8972 48.9706 67.8073 48.9706 71.3972V79.5H23.4193C21.495 79.5 19.9316 77.9465 19.9194 76.0222L19.5319 15.0222Z" stroke="black" stroke-width="3"/>
<line x1="29" y1="18.5" x2="61" y2="18.5" stroke="#00A81B" stroke-width="3"/>
<line x1="23" y1="28.5" x2="55" y2="28.5" stroke="#00A81B" stroke-width="3"/>
<line x1="28" y1="38.5" x2="60" y2="38.5" stroke="#00A81B" stroke-width="3"/>
<line x1="28" y1="49.5" x2="51" y2="49.5" stroke="#00A81B" stroke-width="3"/>
<path d="M56 51L75 29.5L79 32.5L59 55L54 56.5L56 51Z" fill="black"/>
<path d="M56 51L55.6253 50.6689L55.5625 50.74L55.5301 50.8291L56 51ZM75 29.5L75.3 29.1C75.0915 28.9436 74.7979 28.9736 74.6253 29.1689L75 29.5ZM79 32.5L79.3737 32.8322C79.4666 32.7277 79.5115 32.589 79.4975 32.4499C79.4835 32.3108 79.4119 32.1839 79.3 32.1L79 32.5ZM59 55L59.1437 55.4789L59.2795 55.4382L59.3737 55.3322L59 55ZM54 56.5L53.5301 56.3291L53.1898 57.2651L54.1437 56.9789L54 56.5ZM56.3747 51.3311L75.3747 29.8311L74.6253 29.1689L55.6253 50.6689L56.3747 51.3311ZM74.7 29.9L78.7 32.9L79.3 32.1L75.3 29.1L74.7 29.9ZM78.6263 32.1678L58.6263 54.6678L59.3737 55.3322L79.3737 32.8322L78.6263 32.1678ZM59.4 54.7L56.4 50.7L55.6 51.3L58.6 55.3L59.4 54.7ZM55.5301 50.8291L53.5301 56.3291L54.4699 56.6709L56.4699 51.1709L55.5301 50.8291ZM54.1437 56.9789L59.1437 55.4789L58.8563 54.5211L53.8563 56.0211L54.1437 56.9789Z" fill="black"/>
<path d="M63.5 66L50 80.5" stroke="black" stroke-linecap="round"/>
</svg>
