<svg width="69" height="71" viewBox="0 0 69 70" fill="none" xmlns="http://www.w3.org/2000/svg">
    <rect x="1.5" y="1.5" width="42" height="60" rx="1.5" stroke="black" stroke-width="3" />
    <g filter="url(#filter0_d_379_2952)">
        <rect x="14" y="25" width="51" height="25" rx="3" fill="#F8F8F8" />
        <rect x="14.5" y="25.5" width="50" height="24" rx="2.5" stroke="black" />
    </g>
    <path
        d="M29.5446 40.01C29.5446 41.0487 29.2026 41.9607 28.5186 42.746C27.8346 43.5187 26.7642 43.9873 25.3076 44.152L25.2886 46.394H23.6356L23.6546 44.19C22.9579 44.152 22.3119 44.0697 21.7166 43.943C21.1339 43.8037 20.6652 43.6833 20.3106 43.582C19.9559 43.468 19.7342 43.3983 19.6456 43.373L19.7976 39.934H21.6026L22.0966 42.233C22.4639 42.6763 23.1352 42.898 24.1106 42.898C25.6052 42.898 26.3526 42.2393 26.3526 40.922C26.3526 40.3393 26.0929 39.839 25.5736 39.421C25.0542 38.9903 24.2309 38.49 23.1036 37.92C22.0269 37.3753 21.1909 36.7737 20.5956 36.115C20.0129 35.4437 19.7216 34.557 19.7216 33.455C19.7216 32.847 19.8736 32.2833 20.1776 31.764C20.4942 31.232 20.9502 30.7887 21.5456 30.434C22.1536 30.0793 22.8756 29.8513 23.7116 29.75V27.66H25.4026V29.731C26.2639 29.7817 27.0112 29.902 27.6446 30.092C28.2779 30.282 28.6262 30.3833 28.6896 30.396L28.5756 33.55H26.8276L26.4096 31.46C26.2702 31.3207 26.0676 31.2067 25.8016 31.118C25.5356 31.0167 25.2442 30.966 24.9276 30.966C24.2562 30.966 23.7306 31.1307 23.3506 31.46C22.9706 31.7893 22.7806 32.22 22.7806 32.752C22.7806 33.208 22.9262 33.6133 23.2176 33.968C23.5089 34.3227 23.8446 34.6203 24.2246 34.861C24.6172 35.089 25.1936 35.3993 25.9536 35.792C26.7262 36.21 27.3532 36.5963 27.8346 36.951C28.3286 37.3057 28.7339 37.7363 29.0506 38.243C29.3799 38.7497 29.5446 39.3387 29.5446 40.01Z"
        fill="black" />
    <path
        d="M60.7071 37.7071C61.0976 37.3166 61.0976 36.6834 60.7071 36.2929L54.3431 29.9289C53.9526 29.5384 53.3195 29.5384 52.9289 29.9289C52.5384 30.3195 52.5384 30.9526 52.9289 31.3431L58.5858 37L52.9289 42.6569C52.5384 43.0474 52.5384 43.6805 52.9289 44.0711C53.3195 44.4616 53.9526 44.4616 54.3431 44.0711L60.7071 37.7071ZM38 38L60 38V36L38 36V38Z"
        fill="black" />
    <path d="M10.5 10.5H36" stroke="black" stroke-width="2" stroke-linecap="round" />
    <path d="M16.5 14.5H35" stroke="#00A81B" stroke-width="2" stroke-linecap="round" />
    <path d="M6 54H20.5" stroke="#00A81B" stroke-width="2" stroke-linecap="round" />
    <path d="M14 58H37.5" stroke="black" stroke-width="2" stroke-linecap="round" />
    <defs>
        <filter id="filter0_d_379_2952" x="10" y="25" width="59" height="33" filterUnits="userSpaceOnUse"
            color-interpolation-filters="sRGB">
            <feFlood flood-opacity="0" result="BackgroundImageFix" />
            <feColorMatrix in="SourceAlpha" type="matrix" values="0 0 0 0 0 0 0 0 0 0 0 0 0 0 0 0 0 0 127 0"
                result="hardAlpha" />
            <feOffset dy="4" />
            <feGaussianBlur stdDeviation="2" />
            <feComposite in2="hardAlpha" operator="out" />
            <feColorMatrix type="matrix" values="0 0 0 0 0 0 0 0 0 0 0 0 0 0 0 0 0 0 0.25 0" />
            <feBlend mode="normal" in2="BackgroundImageFix" result="effect1_dropShadow_379_2952" />
            <feBlend mode="normal" in="SourceGraphic" in2="effect1_dropShadow_379_2952" result="shape" />
        </filter>
    </defs>
</svg>