<svg width="74" height="72" viewBox="0 0 74 72" fill="none" xmlns="http://www.w3.org/2000/svg">
<path d="M27.619 30.8021C20.9584 28.4441 16.3887 23.5084 16.3887 17.3855C16.3887 8.7398 25.5006 1 36.7417 1C47.9827 1 57.0947 8.7398 57.0947 17.3855C57.0947 23.5084 52.5234 28.4441 45.8628 30.8021" stroke="#372D21" stroke-width="2" stroke-miterlimit="10" stroke-linecap="round" stroke-linejoin="round"/>
<path d="M48.1755 3.93584C50.9644 1.93192 55.1019 1.71781 57.9748 3.57624C61.1974 5.66251 61.6083 9.57015 58.8927 12.3043C58.2329 12.9672 57.4509 13.5011 56.5971 13.8978" stroke="#372D21" stroke-width="2" stroke-miterlimit="10" stroke-linecap="round" stroke-linejoin="round"/>
<path d="M25.3114 3.936C22.5225 1.93208 18.385 1.71796 15.5137 3.57776C12.291 5.66404 11.8802 9.57168 14.5957 12.3058C15.2555 12.9687 16.0375 13.5027 16.8913 13.9007" stroke="#372D21" stroke-width="2" stroke-miterlimit="10" stroke-linecap="round" stroke-linejoin="round"/>
<path d="M44.5931 22.7097C44.5931 25.3724 41.0803 27.5315 36.7488 27.5315C32.4158 27.5315 28.9045 25.3724 28.9045 22.7097C28.9045 20.047 32.4174 17.1564 36.7488 17.1564C41.0803 17.1564 44.5931 20.047 44.5931 22.7097Z" stroke="#372D21" stroke-width="2" stroke-miterlimit="10" stroke-linecap="round" stroke-linejoin="round"/>
<path d="M26.5797 17.7986C27.0993 17.7986 27.5206 17.4582 27.5206 17.0382C27.5206 16.6183 27.0993 16.2778 26.5797 16.2778C26.0601 16.2778 25.6389 16.6183 25.6389 17.0382C25.6389 17.4582 26.0601 17.7986 26.5797 17.7986Z" stroke="#372D21" stroke-width="2" stroke-miterlimit="10" stroke-linecap="round" stroke-linejoin="round"/>
<path d="M46.9069 17.7986C47.4265 17.7986 47.8477 17.4582 47.8477 17.0382C47.8477 16.6183 47.4265 16.2778 46.9069 16.2778C46.3873 16.2778 45.9661 16.6183 45.9661 17.0382C45.9661 17.4582 46.3873 17.7986 46.9069 17.7986Z" stroke="#372D21" stroke-width="2" stroke-miterlimit="10" stroke-linecap="round" stroke-linejoin="round"/>
<path d="M36.7414 22.3732C37.261 22.3732 37.6822 22.0328 37.6822 21.6128C37.6822 21.1929 37.261 20.8524 36.7414 20.8524C36.2218 20.8524 35.8005 21.1929 35.8005 21.6128C35.8005 22.0328 36.2218 22.3732 36.7414 22.3732Z" stroke="#372D21" stroke-width="2" stroke-miterlimit="10" stroke-linecap="round" stroke-linejoin="round"/>
<path d="M36.7417 21.6129V24.9317" stroke="#372D21" stroke-width="2" stroke-miterlimit="10" stroke-linecap="round" stroke-linejoin="round"/>
<path d="M49.6436 29.0577L50.1369 31.3801C50.3844 32.5468 51.3313 33.5391 52.6631 34.0332L66.9206 39.3079C69.8836 40.4046 71.1681 43.2403 69.7797 45.6203C67.753 49.0956 62.7648 50.7371 58.3035 49.3989L49.6421 46.6524" stroke="#372D21" stroke-width="2" stroke-miterlimit="10" stroke-linecap="round" stroke-linejoin="round"/>
<path d="M64.1998 38.3127C63.5767 38.4308 61.947 38.811 60.5541 40.0257C59.0925 41.3008 58.7763 42.7214 58.6938 43.2278" stroke="#372D21" stroke-width="2" stroke-miterlimit="10" stroke-linecap="round" stroke-linejoin="round"/>
<path d="M61.8143 55.9817C59.9938 55.5 57.7242 54.8768 56.5054 54.4513C53.0704 53.2531 53.938 49.5294 54.3916 48.1582" stroke="#372D21" stroke-width="2" stroke-miterlimit="10" stroke-linecap="round" stroke-linejoin="round"/>
<path d="M23.8435 29.0577L23.3502 31.3801C23.1027 32.5468 22.1558 33.5391 20.824 34.0332L6.56651 39.3079C3.60352 40.4046 2.31905 43.2403 3.70738 45.6203C5.73412 49.0956 10.7223 50.7371 15.1836 49.3989L23.845 46.6524" stroke="#372D21" stroke-width="2" stroke-miterlimit="10" stroke-linecap="round" stroke-linejoin="round"/>
<path d="M9.28662 38.3127C9.90977 38.4308 11.5394 38.811 12.9323 40.0257C14.394 41.3008 14.7101 42.7214 14.7926 43.2278" stroke="#372D21" stroke-width="2" stroke-miterlimit="10" stroke-linecap="round" stroke-linejoin="round"/>
<path d="M11.6665 55.9817C13.4871 55.5 15.7567 54.8768 16.9754 54.4513C20.4104 53.2531 19.5429 49.5294 19.0893 48.1582" stroke="#372D21" stroke-width="2" stroke-miterlimit="10" stroke-linecap="round" stroke-linejoin="round"/>
<path d="M16.7833 58.5991C16.209 58.1036 15.6011 57.6631 14.9627 57.2856C13.0474 56.1574 10.8542 55.6097 8.45786 55.8966C7.39333 56.0242 6.28755 56.3152 5.1497 56.7942C0.795329 58.6238 0.436409 62.8609 2.2982 66.0329C4.72358 70.1642 11.3628 72.0899 16.5557 70.3729C17.6554 70.0091 18.5717 69.4313 19.5049 68.848C23.6195 66.2703 31.308 62.2954 36.7437 62.4162C42.1794 62.2954 49.8679 66.2703 53.9825 68.848C54.9142 69.4313 55.8321 70.0105 56.9318 70.3729C62.1246 72.0899 68.7639 70.1642 71.1892 66.0329C73.051 62.8623 72.6921 58.6252 68.3377 56.7942C67.1999 56.3152 66.0941 56.0242 65.0296 55.8966C62.6332 55.6097 60.44 56.1574 58.5248 57.2856C57.8863 57.6617 57.2785 58.1023 56.7042 58.5991" stroke="#372D21" stroke-width="2" stroke-miterlimit="10" stroke-linecap="round" stroke-linejoin="round"/>
<path d="M39.7279 39.9379H33.7729C33.5988 39.9379 33.4583 39.8116 33.4583 39.6552V35.3852C33.4583 35.2287 33.5988 35.1024 33.7729 35.1024H39.7279C39.902 35.1024 40.0425 35.2287 40.0425 35.3852V39.6552C40.0425 39.8116 39.902 39.9379 39.7279 39.9379Z" stroke="#372D21" stroke-width="2" stroke-miterlimit="10" stroke-linecap="round" stroke-linejoin="round"/>
<path d="M39.4604 35.5496C40.1875 35.0404 41.4964 34.2841 43.3551 33.9519C44.3631 33.7721 45.2536 33.7666 45.9286 33.8092C47.2742 36.1412 47.2864 38.8327 45.9607 41.1729L45.9286 41.2306C45.2536 41.2731 44.3631 41.2676 43.3551 41.0878C41.4979 40.7557 40.189 39.998 39.462 39.4902" stroke="#372D21" stroke-width="2" stroke-miterlimit="10" stroke-linecap="round" stroke-linejoin="round"/>
<path d="M34.0265 35.5496C33.2995 35.0404 31.9906 34.2841 30.1319 33.9519C29.1239 33.7721 28.2334 33.7666 27.5584 33.8092C26.2128 36.1412 26.2006 38.8327 27.5263 41.1729L27.5584 41.2306C28.2334 41.2731 29.1239 41.2676 30.1319 41.0878C31.9891 40.7557 33.298 39.998 34.025 39.4902" stroke="#372D21" stroke-width="2" stroke-miterlimit="10" stroke-linecap="round" stroke-linejoin="round"/>
</svg>
