<svg width="74" height="72" viewBox="0 0 74 72" fill="none" xmlns="http://www.w3.org/2000/svg">
<path d="M10.1101 26.6668C20.3331 26.6668 24.5831 24.8713 24.089 10.5074" stroke="#372D21" stroke-width="2" stroke-miterlimit="10" stroke-linecap="round" stroke-linejoin="round"/>
<path d="M24.0923 10.5045C24.1956 13.3381 25.8396 16.7122 29.945 20.5215" stroke="#372D21" stroke-width="2" stroke-miterlimit="10" stroke-linecap="round" stroke-linejoin="round"/>
<path d="M24.0898 10.5075L24.0936 10.5045C24.1969 13.3381 25.8409 16.7122 29.9463 20.5215L28.9449 27.2772L28.9561 27.3188C28.4113 27.5639 25.2453 29.0683 22.908 30.2296C21.3448 31.0063 19.9638 31.9493 18.7951 33.0246L2.39627 48.0924C0.611332 49.5299 0.889407 51.7487 3.00127 52.9338L29.7002 65.6061C28.3455 67.0259 26.7334 68.9654 25.5798 71M69.2638 70.8946C77.5703 61.3647 67.4394 51.1012 51.8146 46.2538C64.8183 40.1872 57.8646 36.7922 42.4484 27.5431L43.1548 22.6274L48.3725 23.4635C50.49 23.7932 52.5924 22.868 53.143 21.3665L54.7269 17.0449C55.0594 16.1375 54.8471 15.1707 54.1425 14.3806L52.0194 12.0015C56.3915 4.74087 41.787 -0.205992 33.565 1.25683C30.9759 1.71721 28.4206 2.88301 26.6056 4.62206C22.521 -1.12972 12.2792 0.243992 12.6437 7.27742C13.0326 14.7549 16.2361 22.0319 10.1072 26.6713M14.6898 49.1022L23.4491 42.7742C23.4491 42.7742 31.5997 56.103 33.1404 59.4771C33.4279 60.1068 32.3419 60.5791 31.6767 60.1187L14.6898 49.1022Z" stroke="#372D21" stroke-width="2" stroke-miterlimit="10" stroke-linecap="round" stroke-linejoin="round"/>
</svg>
