<svg width="109" height="88" viewBox="0 0 109 88" fill="none" xmlns="http://www.w3.org/2000/svg">
<g clip-path="url(#clip0_379_2948)">
<path d="M43.8887 34.797L42.0867 34.559V33.369H47.8667L49.6687 40.475L50.0767 42.362L50.4167 40.475L52.2017 33.369H57.9477V34.559L56.0947 34.797L57.4547 44.691L58.7637 44.878V46H53.0347V44.878L54.4797 44.691L53.7657 37.364L53.4597 34.372L52.8647 37.092L50.6377 45.507H48.4107L46.0307 37.33L45.2487 34.355L45.0447 37.364L44.4157 44.691L46.1497 44.878V46H41.2367V44.878L42.6477 44.708L43.8887 34.797ZM61.5888 35.086C61.1468 35.086 60.7898 34.9557 60.5178 34.695C60.2458 34.4343 60.1098 34.1 60.1098 33.692C60.1098 33.216 60.2571 32.825 60.5518 32.519C60.8578 32.213 61.2658 32.06 61.7758 32.06C62.2858 32.06 62.6768 32.1903 62.9488 32.451C63.2208 32.7117 63.3568 33.046 63.3568 33.454C63.3568 33.9413 63.2038 34.338 62.8978 34.644C62.5918 34.9387 62.1611 35.086 61.6058 35.086H61.5888ZM60.5518 38.333L59.4128 38.01V36.735L62.8128 36.327H62.8468L63.3738 36.684V44.725L64.3938 44.878V46H59.4978V44.878L60.5518 44.725V38.333ZM82.4435 49.179C81.7295 49.179 81.0722 49.026 80.4715 48.72C79.8822 48.414 79.1965 47.972 78.4145 47.394C77.9159 47.02 77.5079 46.731 77.1905 46.527C76.8845 46.3343 76.5672 46.1813 76.2385 46.068C75.7625 46.1473 75.3375 46.187 74.9635 46.187C73.0595 46.187 71.6485 45.6147 70.7305 44.47C69.8125 43.314 69.3535 41.7273 69.3535 39.71C69.3535 38.4067 69.5915 37.2677 70.0675 36.293C70.5549 35.307 71.2349 34.5477 72.1075 34.015C72.9915 33.4823 74.0172 33.216 75.1845 33.216C77.1339 33.216 78.5675 33.76 79.4855 34.848C80.4149 35.9247 80.8795 37.466 80.8795 39.472C80.8795 40.8547 80.6132 42.0673 80.0805 43.11C79.5479 44.1527 78.8055 44.9403 77.8535 45.473C78.2389 45.541 78.6299 45.66 79.0265 45.83C79.4232 45.9887 79.9049 46.204 80.4715 46.476C81.1855 46.816 81.7579 47.0653 82.1885 47.224C82.6192 47.3827 83.0385 47.462 83.4465 47.462C83.8772 47.462 84.1775 47.4337 84.3475 47.377L84.6025 48.176C84.3079 48.5387 83.9962 48.7937 83.6675 48.941C83.3502 49.0997 82.9422 49.179 82.4435 49.179ZM75.0995 45.048C75.9042 45.048 76.5332 44.572 76.9865 43.62C77.4399 42.668 77.6665 41.291 77.6665 39.489C77.6665 37.6757 77.4512 36.3667 77.0205 35.562C76.5899 34.746 75.9609 34.338 75.1335 34.338C74.3175 34.338 73.6829 34.7857 73.2295 35.681C72.7875 36.5763 72.5665 37.9137 72.5665 39.693C72.5665 41.5063 72.7819 42.855 73.2125 43.739C73.6545 44.6117 74.2835 45.048 75.0995 45.048ZM81.9237 44.878L83.2327 44.708V34.78L81.9917 34.542V33.369H84.6097C84.825 33.369 85.0574 33.3633 85.3067 33.352C85.5674 33.3407 85.7657 33.3293 85.9017 33.318C86.5137 33.2727 87.035 33.25 87.4657 33.25C88.6784 33.25 89.6417 33.369 90.3557 33.607C91.0697 33.8337 91.5854 34.1963 91.9027 34.695C92.2314 35.1823 92.3957 35.8283 92.3957 36.633C92.3957 37.4037 92.1917 38.1233 91.7837 38.792C91.3757 39.4607 90.775 39.9197 89.9817 40.169C90.503 40.3617 90.9394 40.7243 91.2907 41.257C91.6534 41.7783 92.0274 42.447 92.4127 43.263C92.6394 43.739 92.8207 44.096 92.9567 44.334C93.0927 44.5607 93.2344 44.691 93.3817 44.725L93.8747 44.878V46H90.6447C90.4747 46 90.299 45.8187 90.1177 45.456C89.9364 45.0933 89.704 44.5267 89.4207 43.756C89.0694 42.8153 88.7634 42.09 88.5027 41.58C88.2534 41.0587 87.9757 40.7413 87.6697 40.628H86.1397V44.708L87.6527 44.878V46H81.9237V44.878ZM87.4487 39.523C88.038 39.523 88.497 39.2963 88.8257 38.843C89.1544 38.3783 89.3187 37.6813 89.3187 36.752C89.3187 35.936 89.1544 35.341 88.8257 34.967C88.5084 34.5817 87.97 34.389 87.2107 34.389C86.8027 34.389 86.4457 34.4173 86.1397 34.474V39.472C86.287 39.506 86.5307 39.523 86.8707 39.523C87.2107 39.523 87.4034 39.523 87.4487 39.523Z" fill="#00A81B"/>
<rect x="22" y="9" width="9" height="9" fill="#372D21"/>
<rect x="22" y="65" width="9" height="9" fill="#372D21"/>
<rect x="100" y="9" width="9" height="9" fill="#372D21"/>
<rect x="80" y="53" width="6" height="6" fill="#372D21"/>
<path d="M36.3778 9V17.0405H45.4556V11.8378H40.2V9H50.7111V17.0405V23.1892H23V33.5946H32.0778V28.8649H27.3V26.027H45.4556V30.2838H55.9667V9H65.0444V14.6757H59.3111V26.027H65.0444V30.2838H70.3V23.1892H62.1778V18.4595H67.4333V9H96.1V17.0405H72.2111V14.6757H92.7556V11.8378H70.3V20.3514H109V26.027H94.6667V23.1892H80.8111H73.6444V30.2838H86.5444V27.4459H76.5111V26.027H90.3667V30.2838H109V36.9054H99.4444V35.0135H105.178V33.5946H96.1V39.7432H99.4444V48.7297H106.133V45.8919H102.789V39.7432H109V42.1081H105.178V43.527H109V51.5676H90.3667V58.1892H99.4444V54.8784H92.7556V52.9865H109V56.7703H102.789V62.9189H109V79H33.5111V65.2838V59.6081H23V36.9054H33.5111V43.527H30.1667V39.7432H27.3V56.7703H32.0778V51.5676L29.2111 51.0946V46.8378H33.5111V48.7297H40.2V52.9865H34.9444V56.7703H36.3778H43.5444V51.0946H76.5111V56.7703H70.3V54.8784H59.3111V59.6081H49.2778V56.7703H55.9667V52.9865H45.4556V62.9189H36.3778V72.3784V76.1622H45.4556V72.3784H40.2V68.1216H49.2778V62.9189H60.2667H65.0444V56.7703H67.4333V65.2838H54.0556V70.4865H49.2778V74.2703H57.8778V68.1216H62.1778V76.1622H77.9444V70.4865H68.8667V72.3784H73.6444V74.2703H65.0444V68.1216H72.2111V59.6081H76.5111V68.1216H80.8111V61.5H99.4444V74.2703H102.789V66.7027H106.133V76.1622H80.8111V70.4865H82.7222V72.3784H96.1V65.2838H86.5444V69.5405H92.7556V68.1216H88.9333" stroke="black" stroke-linecap="round"/>
</g>
<defs>
<clipPath id="clip0_379_2948">
<rect width="109" height="88" fill="white"/>
</clipPath>
</defs>
</svg>
