<svg width="64" height="72" viewBox="0 0 64 72" fill="none" xmlns="http://www.w3.org/2000/svg">
<path d="M8.11426 48.2543V41.4148C8.11426 38.3678 7.09049 35.4193 5.24613 32.9728C2.47662 29.2974 0.947866 24.6646 1.29701 19.66C1.91838 10.7383 10.292 2.10298 19.3225 1.12511C31.6137 -0.204121 42.0151 9.23435 42.0151 21.0636C42.0151 21.4856 41.9993 21.902 41.9717 22.3166C41.9322 22.9171 42.0328 23.5176 42.3051 24.0567L46.9643 33.339C47.4279 34.2611 46.8874 35.3654 45.8675 35.5866L42.9521 36.2168C42.2498 36.3693 41.7291 36.9475 41.658 37.6502L40.9874 44.3874C40.7684 46.5793 38.8964 48.2524 36.6576 48.2524H27.9565C24.463 48.2524 21.6324 45.4657 21.6324 42.0264V41.1266" stroke="#372D21" stroke-width="2" stroke-miterlimit="10" stroke-linecap="round" stroke-linejoin="round"/>
<path d="M29.2756 48.2543V53.6511C29.2756 55.5288 30.8222 57.0514 32.7299 57.0514H45.4381" stroke="#372D21" stroke-width="2" stroke-miterlimit="10" stroke-linecap="round"/>
<path d="M45.4336 57.0514C53.2594 57.0514 59.6056 63.296 59.6056 71" stroke="#372D21" stroke-width="2" stroke-miterlimit="10" stroke-linecap="round"/>
<path d="M11.3936 22C13.6346 22 15.4519 23.3431 15.4519 25" stroke="#372D21" stroke-width="2" stroke-miterlimit="10" stroke-linecap="round"/>
<path d="M13.4229 32C9.54346 29.5042 7.7258 25.4745 9.36453 23" stroke="#372D21" stroke-width="2" stroke-miterlimit="10" stroke-linecap="round"/>
<path d="M39.8018 40C40.9223 40 41.8309 40.8954 41.8309 42" stroke="#372D21" stroke-width="2" stroke-miterlimit="10" stroke-linecap="round"/>
<path d="M55.1018 35C59.5937 39.4684 59.566 46.6762 55.038 51.0982" stroke="#372D21" stroke-width="2" stroke-miterlimit="10" stroke-linecap="round" stroke-dasharray="4 4"/>
</svg>
