<svg width="64" height="63" viewBox="0 0 64 63" fill="none" xmlns="http://www.w3.org/2000/svg">
<g filter="url(#filter0_d_420_2497)">
<path d="M52.1249 53.2571C50.8099 53.2571 49.4949 52.7566 48.4944 51.7556L35.9651 39.2261C31.7956 41.6904 26.9009 42.5959 22.0227 41.781C13.5806 40.3701 6.70274 33.4958 5.29641 25.062C4.17643 18.3494 6.26189 11.7716 11.0172 7.01617C15.7725 2.26078 22.3537 0.177848 29.0626 1.29566C37.4957 2.7017 44.3701 9.58004 45.7806 18.0228C46.595 22.9007 45.6893 27.7973 43.2261 31.9657L55.7554 44.4951C57.7577 46.4972 57.7577 49.7543 55.7554 51.7556C54.7535 52.7566 53.4392 53.2571 52.1249 53.2571ZM36.202 35.333C36.6442 35.333 37.0817 35.5036 37.4126 35.8343L50.9136 49.3354C51.5796 50.0009 52.6667 50.0025 53.3341 49.3354C54.0009 48.6675 54.0009 47.5824 53.3341 46.9144L39.8332 33.4133C39.2488 32.8295 39.1658 31.9126 39.6341 31.2324C42.1679 27.5548 43.1513 23.064 42.4035 18.5878C41.2299 11.5642 35.5119 5.84202 28.4981 4.67195C22.8934 3.73459 17.4006 5.47214 13.4364 9.43715C9.47283 13.4005 7.73689 18.8908 8.67146 24.4994C9.84157 31.5141 15.5637 37.2322 22.5871 38.4055C27.0643 39.1551 31.5539 38.1687 35.2317 35.6359C35.5263 35.4326 35.8655 35.333 36.202 35.333Z" fill="#335860" stroke="#335860" stroke-width="2" stroke-miterlimit="10"/>
<path d="M38.1571 24.2902C37.0903 24.2902 36.2251 23.4255 36.2251 22.358C36.2251 15.9648 31.0252 10.7645 24.6322 10.7645C23.5654 10.7645 22.7002 9.89978 22.7002 8.83225C22.7002 7.76472 23.5654 6.9 24.6322 6.9C33.155 6.9 40.0891 13.8343 40.0891 22.358C40.0891 23.4255 39.2239 24.2902 38.1571 24.2902Z" fill="#00A81B"/>
</g>
<defs>
<filter id="filter0_d_420_2497" x="0" y="2.28882e-05" width="68" height="68" filterUnits="userSpaceOnUse" color-interpolation-filters="sRGB">
<feFlood flood-opacity="0" result="BackgroundImageFix"/>
<feColorMatrix in="SourceAlpha" type="matrix" values="0 0 0 0 0 0 0 0 0 0 0 0 0 0 0 0 0 0 127 0" result="hardAlpha"/>
<feOffset dy="4"/>
<feGaussianBlur stdDeviation="2"/>
<feComposite in2="hardAlpha" operator="out"/>
<feColorMatrix type="matrix" values="0 0 0 0 0 0 0 0 0 0 0 0 0 0 0 0 0 0 0.25 0"/>
<feBlend mode="normal" in2="BackgroundImageFix" result="effect1_dropShadow_420_2497"/>
<feBlend mode="normal" in="SourceGraphic" in2="effect1_dropShadow_420_2497" result="shape"/>
</filter>
</defs>
</svg>
