<svg width="66" height="64" viewBox="0 0 66 64" fill="none" xmlns="http://www.w3.org/2000/svg">
<path d="M57.9448 63C56.3619 63 54.779 62.4062 53.5747 61.2185L38.4927 46.353C33.4736 49.2767 27.5817 50.3511 21.7096 49.3842C11.5475 47.7102 3.26841 39.5543 1.57555 29.5481C0.227385 21.5841 2.73774 13.7798 8.46187 8.13783C14.186 2.49584 22.108 0.0245654 30.1838 1.35078C40.3352 3.01897 48.6102 11.1797 50.308 21.1966C51.2883 26.9839 50.198 32.7935 47.2331 37.7389L62.315 52.6044C64.7253 54.9797 64.7253 58.8441 62.315 61.2185C61.109 62.4062 59.5269 63 57.9448 63ZM38.7779 41.734C39.3102 41.734 39.8367 41.9365 40.2351 42.3288L56.4867 58.3471C57.2885 59.1366 58.597 59.1386 59.4005 58.3471C60.2031 57.5547 60.2031 56.2672 59.4005 55.4748L43.1489 39.4565C42.4454 38.7639 42.3454 37.6759 42.9092 36.869C45.9593 32.5057 47.143 27.1776 46.2428 21.8669C44.8302 13.5338 37.9471 6.74477 29.5044 5.35656C22.7577 4.24443 16.1458 6.30593 11.3739 11.0102C6.60287 15.7125 4.51325 22.2263 5.63824 28.8807C7.04675 37.2032 13.9347 43.9873 22.3891 45.3794C27.7784 46.2687 33.1827 45.0985 37.6099 42.0934C37.9645 41.8522 38.3728 41.734 38.7779 41.734Z" stroke="#372D21" stroke-width="2" stroke-miterlimit="10"/>
<path d="M41.131 28.6325C39.8469 28.6325 38.8054 27.6065 38.8054 26.34C38.8054 18.7548 32.5461 12.585 24.8506 12.585C23.5664 12.585 22.5249 11.5591 22.5249 10.2925C22.5249 9.02594 23.5664 8 24.8506 8C35.1097 8 43.4567 16.2272 43.4567 26.34C43.4567 27.6065 42.4152 28.6325 41.131 28.6325Z" fill="#372D21"/>
</svg>
