<svg width="120" height="120" viewBox="0 0 120 120" fill="none" xmlns="http://www.w3.org/2000/svg">
    <rect width="120" height="120" fill="" />
    <rect width="1400" height="14867" transform="translate(-351 -3692)" fill="" />
    <path
        d="M58.9415 95.1008C54.2312 95.1008 49.6665 94.1761 45.3639 92.3558C41.2069 90.6011 37.4794 88.0818 34.2761 84.8781C31.0728 81.6744 28.5611 77.9465 26.7993 73.789C24.9793 69.4858 24.0547 64.9133 24.0547 60.2097C24.0547 55.5061 24.9793 50.9336 26.7993 46.6304C28.5539 42.4729 31.0728 38.745 34.2761 35.5413C37.4794 32.3376 41.2069 29.8256 45.3639 28.0636C49.6665 26.2433 54.2385 25.3186 58.9415 25.3186C63.6446 25.3186 68.2166 26.2433 72.5192 28.0636C76.6762 29.8183 80.4037 32.3376 83.607 35.5413C86.8103 38.745 89.3219 42.4729 91.0837 46.6304C92.9038 50.9336 93.8284 55.5061 93.8284 60.2097C93.8284 64.9133 92.9038 69.4858 91.0837 73.789C89.3292 77.9465 86.8103 81.6744 83.607 84.8781C80.4037 88.0818 76.6762 90.5938 72.5192 92.3558C68.2166 94.1761 63.6519 95.1008 58.9415 95.1008ZM58.9415 31.26C42.9833 31.26 29.9954 44.2495 29.9954 60.2097C29.9954 76.1699 42.9833 89.1594 58.9415 89.1594C74.8998 89.1594 87.8877 76.1699 87.8877 60.2097C87.8877 44.2495 74.8998 31.26 58.9415 31.26Z"
        fill="#FFB800" />
    <path
        d="M52.7649 77.3203C52.0078 77.3203 51.2433 77.0291 50.6609 76.4466L41.415 67.1996C40.2575 66.0419 40.2575 64.1561 41.415 62.9984C42.5726 61.8407 44.4582 61.8407 45.6157 62.9984L52.7649 70.1484L73.812 49.0987C74.9696 47.941 76.8552 47.941 78.0127 49.0987C79.1703 50.2564 79.1703 52.1422 78.0127 53.2999L54.8616 76.4466C54.2865 77.0291 53.5221 77.3203 52.7649 77.3203Z"
        fill="#00A81B" />
    <path
        d="M66.8689 120H53.1238C51.8643 120 50.7432 119.206 50.3209 118.027L45.7344 105.139L38.163 102.001L25.8084 107.877C24.6727 108.416 23.3186 108.183 22.4304 107.294L12.704 97.5669C11.8158 96.6786 11.5828 95.3243 12.1216 94.1885L17.9967 81.8324L14.8589 74.2601L1.97294 69.673C0.786265 69.2507 0 68.1294 0 66.8697V53.1303C0 51.8706 0.793545 50.7493 1.97294 50.327L14.8589 45.7399L17.9967 38.1676L12.1216 25.8115C11.5828 24.6757 11.8158 23.3214 12.704 22.4331L22.4304 12.7055C23.3186 11.8172 24.6727 11.5842 25.8084 12.1231L38.163 17.9989L45.7344 14.8608L50.3209 1.97318C50.7432 0.786361 51.8643 0 53.1238 0H66.8762C68.1357 0 69.2568 0.793642 69.6791 1.97318L74.2656 14.8608L81.837 17.9989L94.1916 12.1231C95.3273 11.5842 96.6814 11.8172 97.5696 12.7055L107.296 22.4331C108.184 23.3214 108.417 24.6757 107.878 25.8115L102.003 38.1676L105.141 45.7399L118.027 50.327C119.214 50.7493 120 51.8706 120 53.1303V66.8843C120 68.1439 119.206 69.2652 118.027 69.6875L105.141 74.2746L102.003 81.847L107.878 94.203C108.417 95.3389 108.184 96.6932 107.296 97.5815L97.5696 107.309C96.6814 108.197 95.3273 108.43 94.1916 107.892L81.837 102.016L74.2656 105.154L69.6791 118.041C69.2495 119.206 68.1284 120 66.8689 120ZM55.2205 114.059H64.7795L69.1039 101.899C69.3879 101.106 69.9921 100.472 70.7638 100.152L80.7741 96.0087C81.5531 95.6884 82.4267 95.7102 83.1839 96.067L94.8395 101.608L101.596 94.851L96.0553 83.194C95.6913 82.4367 95.6695 81.5557 95.9971 80.7839L100.14 70.7724C100.46 69.9933 101.101 69.389 101.887 69.1123L114.045 64.7873V55.2272L101.887 50.9023C101.093 50.6183 100.46 50.014 100.14 49.2422L95.9971 39.2306C95.6768 38.4516 95.6986 37.5778 96.0553 36.8206L101.596 25.1635L94.8395 18.4067L83.1839 23.9476C82.4267 24.3116 81.5458 24.3335 80.7741 24.0058L70.7638 19.8629C69.9848 19.5425 69.3806 18.909 69.1039 18.1154L64.7795 5.95595H55.2205L50.8961 18.1154C50.6121 18.909 50.0079 19.5425 49.2362 19.8629L39.2259 24.0058C38.4469 24.3262 37.5733 24.3044 36.8161 23.9476L25.1605 18.4067L18.4044 25.1635L23.9447 36.8206C24.3087 37.5778 24.3305 38.4588 24.0029 39.2306L19.8605 49.2422C19.5401 50.0212 18.9068 50.6256 18.1132 50.9023L5.95523 55.2272V64.7873L18.1132 69.1123C18.9068 69.3963 19.5401 70.0006 19.8605 70.7724L24.0029 80.7839C24.3232 81.563 24.3014 82.4367 23.9447 83.194L18.4044 94.851L25.1605 101.608L36.8161 96.067C37.5733 95.7029 38.4542 95.6811 39.2259 96.0087L49.2362 100.152C50.0152 100.472 50.6194 101.113 50.8961 101.899L55.2205 114.059Z"
        fill="#FFB800" />
</svg>