<svg width="52" height="52" viewBox="0 0 52 52" fill="none" xmlns="http://www.w3.org/2000/svg">
    <g filter="url(#filter0_d_381_2304)">
        <path
            d="M25.9995 35.2C24.2799 35.2 22.6133 34.8624 21.0425 34.198C19.5248 33.5574 18.1639 32.6378 16.9944 31.4683C15.8249 30.2988 14.908 28.9379 14.2647 27.4202C13.6003 25.8494 13.2627 24.1802 13.2627 22.4632C13.2627 20.7461 13.6003 19.0769 14.2647 17.5061C14.9053 15.9884 15.8249 14.6276 16.9944 13.4581C18.1639 12.2886 19.5248 11.3716 21.0425 10.7284C22.6133 10.0639 24.2825 9.72632 25.9995 9.72632C27.7166 9.72632 29.3858 10.0639 30.9566 10.7284C32.4743 11.3689 33.8351 12.2886 35.0046 13.4581C36.1741 14.6276 37.0911 15.9884 37.7343 17.5061C38.3988 19.0769 38.7364 20.7461 38.7364 22.4632C38.7364 24.1802 38.3988 25.8494 37.7343 27.4202C37.0938 28.9379 36.1741 30.2988 35.0046 31.4683C33.8351 32.6378 32.4743 33.5547 30.9566 34.198C29.3858 34.8624 27.7192 35.2 25.9995 35.2ZM25.9995 11.8952C20.1733 11.8952 15.4316 16.637 15.4316 22.4632C15.4316 28.2894 20.1733 33.0311 25.9995 33.0311C31.8257 33.0311 36.5675 28.2894 36.5675 22.4632C36.5675 16.637 31.8257 11.8952 25.9995 11.8952Z"
            fill="#335860" />
        <path
            d="M28.5186 44H23.4787C23.0169 44 22.6058 43.709 22.451 43.2765L20.7693 38.5511L17.9931 37.4004L13.4631 39.5549C13.0467 39.7524 12.5501 39.667 12.2245 39.3413L8.65813 35.7745C8.33246 35.4488 8.24704 34.9522 8.44458 34.5358L10.5988 30.0052L9.44828 27.2287L4.72341 25.5468C4.2883 25.3919 4 24.9808 4 24.5189V19.4811C4 19.0192 4.29097 18.6081 4.72341 18.4532L9.44828 16.7713L10.5988 13.9948L8.44458 9.46423C8.24704 9.04775 8.33246 8.55118 8.65813 8.22547L12.2245 4.6587C12.5501 4.33299 13.0467 4.24756 13.4631 4.44512L17.9931 6.5996L20.7693 5.44894L22.451 0.7235C22.6058 0.288332 23.0169 0 23.4787 0H28.5213C28.9831 0 29.3942 0.291002 29.549 0.7235L31.2307 5.44894L34.0069 6.5996L38.5369 4.44512C38.9533 4.24756 39.4499 4.33299 39.7755 4.6587L43.3419 8.22547C43.6675 8.55118 43.753 9.04775 43.5554 9.46423L41.4012 13.9948L42.5517 16.7713L47.2766 18.4532C47.7117 18.6081 48 19.0192 48 19.4811V24.5242C48 24.9861 47.709 25.3972 47.2766 25.5521L42.5517 27.234L41.4012 30.0106L43.5554 34.5411C43.753 34.9576 43.6675 35.4542 43.3419 35.7799L39.7755 39.3466C39.4499 39.6723 38.9533 39.7578 38.5369 39.5602L34.0069 37.4057L31.2307 38.5564L29.549 43.2818C29.3915 43.709 28.9804 44 28.5186 44ZM24.2475 41.8215H27.7525L29.3381 37.363C29.4422 37.072 29.6638 36.8398 29.9467 36.7223L33.6172 35.2032C33.9028 35.0857 34.2231 35.0937 34.5008 35.2246L38.7745 37.2562L41.2517 34.7787L39.2203 30.5045C39.0868 30.2268 39.0788 29.9038 39.1989 29.6208L40.7178 25.9499C40.8353 25.6642 41.0702 25.4426 41.3585 25.3412L45.8164 23.7554V20.25L41.3585 18.6642C41.0675 18.56 40.8353 18.3385 40.7178 18.0555L39.1989 14.3846C39.0815 14.0989 39.0895 13.7785 39.2203 13.5009L41.2517 9.22663L38.7745 6.74911L34.5008 8.78078C34.2231 8.91426 33.9001 8.92227 33.6172 8.80214L29.9467 7.28305C29.6611 7.16559 29.4395 6.93332 29.3381 6.64232L27.7525 2.18385H24.2475L22.6619 6.64232C22.5578 6.93332 22.3362 7.16559 22.0533 7.28305L18.3828 8.80214C18.0972 8.91961 17.7769 8.9116 17.4992 8.78078L13.2255 6.74911L10.7483 9.22663L12.7797 13.5009C12.9132 13.7785 12.9212 14.1016 12.8011 14.3846L11.2822 18.0555C11.1647 18.3411 10.9325 18.5627 10.6415 18.6642L6.18358 20.25V23.7554L10.6415 25.3412C10.9325 25.4453 11.1647 25.6669 11.2822 25.9499L12.8011 29.6208C12.9185 29.9064 12.9105 30.2268 12.7797 30.5045L10.7483 34.7787L13.2255 37.2562L17.4992 35.2246C17.7769 35.0911 18.0999 35.0831 18.3828 35.2032L22.0533 36.7223C22.3389 36.8398 22.5605 37.0747 22.6619 37.363L24.2475 41.8215Z"
            fill="#335860" />
    </g>
    <defs>
        <filter id="filter0_d_381_2304" x="0" y="0" width="52" height="52" filterUnits="userSpaceOnUse"
            color-interpolation-filters="sRGB">
            <feFlood flood-opacity="0" result="BackgroundImageFix" />
            <feColorMatrix in="SourceAlpha" type="matrix" values="0 0 0 0 0 0 0 0 0 0 0 0 0 0 0 0 0 0 127 0"
                result="hardAlpha" />
            <feOffset dy="4" />
            <feGaussianBlur stdDeviation="2" />
            <feComposite in2="hardAlpha" operator="out" />
            <feColorMatrix type="matrix" values="0 0 0 0 0 0 0 0 0 0 0 0 0 0 0 0 0 0 0.25 0" />
            <feBlend mode="normal" in2="BackgroundImageFix" result="effect1_dropShadow_381_2304" />
            <feBlend mode="normal" in="SourceGraphic" in2="effect1_dropShadow_381_2304" result="shape" />
        </filter>
    </defs>
</svg>