<svg width="74" height="72" viewBox="0 0 74 72" fill="none" xmlns="http://www.w3.org/2000/svg">
<path d="M49.8749 31.5C48.7594 17.5717 44.3764 6.15601 36.6853 6.15601" stroke="#372D21" stroke-width="2" stroke-miterlimit="10" stroke-linecap="round" stroke-linejoin="round"/>
<path d="M36.6854 6C29.9925 6 24.4665 16.8535 23.4958 31" stroke="#372D21" stroke-width="2" stroke-miterlimit="10" stroke-linecap="round" stroke-linejoin="round"/>
<path d="M36.6853 24.8989V63.8104" stroke="#372D21" stroke-width="2" stroke-miterlimit="10" stroke-linecap="round"/>
<path d="M11.7968 24.8989C17.2466 24.8989 21.8525 28.2538 23.3565 32.8602C25.0923 28.2538 30.4001 24.8989 36.6854 24.8989C42.9686 24.8989 48.2785 28.2538 50.0143 32.8602C51.5182 28.2538 56.1241 24.8989 61.5739 24.8989C66.161 24.8989 70.1507 27.2738 72.1957 30.7704C69.5805 16.8421 54.7016 6.15601 36.6854 6.15601C18.6691 6.15601 3.79028 16.8421 1.17505 30.7704C3.22003 27.2738 7.20972 24.8989 11.7968 24.8989Z" stroke="#372D21" stroke-width="2" stroke-miterlimit="10" stroke-linecap="round" stroke-linejoin="round"/>
<path d="M11.7968 24.8989C17.2466 24.8989 21.8525 28.2538 23.3565 32.8602C25.0923 28.2538 30.4001 24.8989 36.6854 24.8989C42.9686 24.8989 48.2785 28.2538 50.0143 32.8602C51.5182 28.2538 56.1241 24.8989 61.5739 24.8989C66.161 24.8989 70.1507 27.2738 72.1957 30.7704C69.5805 16.8421 54.7016 6.15601 36.6854 6.15601C18.6691 6.15601 3.79028 16.8421 1.17505 30.7704C3.22003 27.2738 7.20972 24.8989 11.7968 24.8989Z" stroke="#372D21" stroke-width="2" stroke-miterlimit="10" stroke-linecap="round" stroke-linejoin="round"/>
<path d="M36.6853 1V6.15781" stroke="#372D21" stroke-width="2" stroke-miterlimit="10" stroke-linecap="round" stroke-linejoin="round"/>
<path d="M27.7603 70.9999H30.4799C33.9077 70.9999 36.6838 68.7616 36.6838 66.0009V63.8104" stroke="#372D21" stroke-width="2" stroke-miterlimit="10" stroke-linecap="round" stroke-linejoin="round"/>
<path d="M36.6853 63.8497V63.8104" stroke="#372D21" stroke-width="2" stroke-miterlimit="10" stroke-linecap="square"/>
</svg>
